<svg width="1920" height="143" viewBox="0 0 1920 143" fill="none" xmlns="http://www.w3.org/2000/svg">
<path d="M1874.52 136.152C1862.26 140.722 1848.79 142.995 1835.18 142.995C1823.36 142.995 1811.62 141.277 1800.68 137.794C1794.81 135.929 1789.05 133.874 1783.48 131.397C1767.85 124.449 1738.21 102.092 1721.86 102.087C1704.07 102.083 1693.44 118.194 1679.45 118.731C1663.82 119.328 1661.4 104.081 1638.23 107.739C1620.63 110.516 1617.58 128.554 1597.83 129.527C1581.53 130.329 1580.99 120.102 1568.42 116.353C1561.26 114.222 1555.06 113.857 1549.44 114.635C1535.61 122.518 1521.68 130.433 1506.33 136.152C1494.07 140.722 1480.6 142.995 1466.99 142.995C1466.79 142.995 1466.58 142.995 1466.38 142.991C1466.24 142.991 1466.09 142.995 1465.95 142.995C1459.14 142.995 1452.37 142.35 1445.77 141.092C1442.57 140.504 1439.41 139.782 1436.3 138.923L1428.56 137.02C1404.55 131.046 1385.76 114.773 1365.02 105.946C1358.44 103.15 1353.16 102.239 1348.66 102.514C1342.39 103.592 1337.01 106.553 1331.93 109.657C1326.07 113.909 1320.46 118.583 1312.06 119.21C1297.87 120.273 1288.77 105.95 1271.75 108.513C1264.74 109.571 1258.29 114.009 1251.68 118.356C1245.93 123.666 1240.15 129.005 1229.65 129.522C1215.94 130.196 1213.38 123.073 1205.43 118.56C1201.61 116.903 1197.47 115.689 1192.75 115.674C1178.26 115.641 1164.38 125.602 1152.82 127.396C1148.07 130.319 1143.22 133.2 1137.88 135.412C1131.64 137.993 1126.08 139.389 1120.21 140.641C1112.89 142.203 1105.34 142.995 1097.75 142.995C1089.08 142.995 1080.46 141.961 1072.2 139.934L1060.35 137.025C1036.35 131.05 1017.56 114.777 996.816 105.95C967.943 93.6637 963.708 117.729 943.857 119.215C929.669 120.278 920.567 105.955 903.554 108.518C888.796 110.739 876.587 127.923 859.905 127.785C848.542 127.69 839.404 115.717 824.542 115.684C824.296 115.684 824.045 115.693 823.8 115.698C810.58 123.225 797.213 130.69 782.547 136.157C770.284 140.727 756.812 143 743.207 143C731.378 143 719.641 141.282 708.702 137.799C702.836 135.934 697.075 133.879 691.498 131.402C675.87 124.454 646.231 102.097 629.879 102.092C612.094 102.087 601.46 118.199 587.468 118.735C571.846 119.333 569.419 104.085 546.252 107.744C528.656 110.52 525.598 128.559 505.857 129.532C489.555 130.334 489.015 120.107 476.439 116.358C448.369 107.991 434.892 126.803 414.091 135.416C407.852 137.998 402.287 139.393 396.422 140.646C389.104 142.207 381.553 143 373.96 143C365.294 143 356.671 141.965 348.409 139.939L336.562 137.03C312.556 131.055 293.765 114.782 273.025 105.955C244.152 93.6685 239.917 117.734 220.066 119.219C205.878 120.282 196.777 105.96 179.763 108.523C165.005 110.743 152.797 127.928 136.114 127.79C124.751 127.695 115.613 115.722 100.751 115.689C84.4546 115.651 68.9243 128.269 56.5993 127.671C37.9372 126.76 25.7409 97.0189 0 110.748V0H958H1920V113.287C1905.39 121.611 1890.75 130.106 1874.52 136.152H1874.52Z" fill="#FFFCED"/>
</svg>
