<svg width="1920" height="155" viewBox="0 0 1920 155" fill="none" xmlns="http://www.w3.org/2000/svg">
<path d="M575.202 153.953C591.718 153.953 608.072 150.477 623.043 143.492L624.487 142.806C642.895 133.883 659.679 121.694 676.317 109.376L676.444 109.282L676.603 109.278L677.548 109.255H677.55C687.075 109.283 694.743 114.289 701.736 119.209C705.25 121.681 708.583 124.124 711.933 125.967C715.068 127.691 718.178 128.865 721.405 129.036L722.053 129.057C732.335 129.167 741.287 122.333 750.094 114.859C754.473 111.143 758.815 107.273 763.216 104.114C767.482 101.052 771.849 98.623 776.432 97.6299L776.876 97.5381C787.796 95.3991 796.166 100.326 803.938 105.443C807.841 108.014 811.578 110.623 815.458 112.491C819.205 114.295 823.047 115.389 827.232 115.07L827.638 115.035C833.745 114.441 838.671 111.589 843.213 107.9C845.485 106.055 847.653 104.008 849.824 101.935C851.991 99.8657 854.163 97.7681 856.426 95.8477C860.953 92.0052 865.892 88.8241 872.024 87.9014C877.971 87.0067 884.968 88.2463 893.716 92.9268L894.568 93.3906C907.657 100.634 920.139 110.938 933.06 120.602C946.003 130.282 959.411 139.339 974.431 144.2L974.43 144.201L989.337 148.96L989.336 148.961C999.683 152.261 1010.48 153.945 1021.34 153.945C1030.55 153.945 1039.71 152.734 1048.61 150.347L1049.47 150.112C1056.6 148.131 1063.36 145.936 1070.87 141.983L1071.6 141.596C1078.27 138.001 1084.35 133.313 1090.32 128.53L1090.41 128.454L1090.53 128.43C1094.11 127.708 1097.88 126.161 1101.84 124.228C1105.8 122.291 1109.89 119.993 1114.14 117.766C1122.34 113.47 1131.06 109.47 1140.01 109.249L1140.87 109.239H1140.88C1146.93 109.263 1152.23 111.291 1157.07 114.025L1157.1 114.04L1157.13 114.059C1159.67 115.933 1161.77 118.074 1163.75 120.192C1165.74 122.32 1167.6 124.409 1169.68 126.237C1173.68 129.746 1178.49 132.279 1186.49 131.941L1187.28 131.9C1200.24 131.069 1207.39 122.517 1214.65 113.807L1214.67 113.774L1214.71 113.747C1218.86 110.198 1222.99 106.585 1227.18 103.646C1231.25 100.799 1235.41 98.559 1239.77 97.6172L1240.19 97.5303C1251.11 95.3913 1259.48 100.318 1267.25 105.436C1271.16 108.006 1274.89 110.615 1278.77 112.483C1282.52 114.288 1286.36 115.381 1290.55 115.062L1290.96 115.027C1301.32 114.023 1308.24 106.536 1315.66 99.5293L1315.68 99.5146L1315.69 99.501C1322.09 94.4215 1328.94 89.5079 1336.95 87.7178L1336.99 87.71L1337.02 87.707C1342.63 87.2612 1349.14 88.6831 1357.12 92.96L1357.89 93.3828C1370.98 100.627 1383.46 110.931 1396.38 120.594C1409.33 130.274 1422.73 139.332 1437.75 144.193L1437.75 144.192L1447.49 147.307L1447.5 147.309L1447.51 147.312C1450.92 148.537 1454.38 149.589 1457.88 150.476L1459.38 150.845L1459.38 150.846C1467.64 152.894 1476.13 153.945 1484.65 153.945C1484.73 153.945 1484.82 153.943 1484.91 153.941C1485 153.939 1485.1 153.938 1485.19 153.938H1485.21C1485.45 153.945 1485.71 153.945 1485.96 153.945C1502.48 153.945 1518.83 150.469 1533.8 143.484L1535.25 142.798C1554.51 133.464 1572 120.54 1589.42 107.637L1589.51 107.567L1589.62 107.547C1596.57 106.296 1604.2 106.83 1612.92 110.062L1613.77 110.384C1621.81 113.502 1626.04 119.343 1630.7 124.07C1633.04 126.446 1635.49 128.558 1638.61 130.001C1641.52 131.352 1645.05 132.131 1649.64 131.956L1650.58 131.908C1662.77 131.127 1669.82 123.514 1676.65 115.366C1683.35 107.39 1689.86 98.8506 1700.81 96.3789L1701.34 96.2656C1708.7 94.7538 1714.44 95.1897 1719.23 96.7002C1724 98.2088 1727.79 100.779 1731.24 103.476C1738.07 108.818 1743.51 114.537 1752.83 114.259L1753.28 114.241C1757.56 114.028 1761.61 112.265 1765.65 109.692C1769.7 107.117 1773.7 103.763 1777.88 100.401C1786.08 93.8153 1795 87.2126 1806.14 87.0117L1806.67 87.0068C1811.94 87.0089 1818.22 89.3469 1824.94 92.9648C1831.67 96.59 1838.89 101.535 1846.08 106.823C1853.26 112.11 1860.42 117.758 1867 122.78C1873.58 127.81 1879.57 132.209 1884.46 135.033L1884.46 135.034C1891.01 138.821 1897.77 142.004 1904.67 144.897L1906.04 145.473H1906.05C1919.75 151.146 1934.45 153.945 1949.27 153.945C1966.32 153.945 1983.19 150.243 1998.55 142.802V142.798C2018.85 132.965 2037.17 119.162 2055.5 105.582V0.5H-359.5V100.736C-351.633 95.5113 -344.71 94.4148 -338.399 95.8301C-331.912 97.2853 -326.145 101.38 -320.719 106.166C-318.003 108.562 -315.357 111.145 -312.745 113.671C-310.129 116.201 -307.546 118.675 -304.938 120.873C-299.71 125.278 -294.451 128.509 -288.747 128.871L-288.748 128.872C-284.983 129.11 -280.936 128.035 -276.631 126.249C-272.326 124.464 -267.814 121.991 -263.11 119.47C-253.889 114.527 -243.936 109.394 -233.707 109.265L-233.22 109.263C-223.694 109.291 -216.026 114.297 -209.033 119.217C-205.519 121.689 -202.187 124.132 -198.837 125.975C-195.702 127.699 -192.591 128.873 -189.364 129.044L-188.718 129.064C-178.435 129.175 -169.483 122.341 -160.676 114.867C-156.297 111.151 -151.955 107.281 -147.554 104.122C-143.287 101.06 -138.921 98.6307 -134.338 97.6377L-133.894 97.5459C-122.973 95.4071 -114.603 100.333 -106.832 105.451C-102.928 108.022 -99.1915 110.631 -95.3115 112.499C-91.5649 114.303 -87.7228 115.396 -83.5381 115.078L-83.1318 115.043C-77.0242 114.449 -72.0985 111.597 -67.5566 107.908C-65.2842 106.063 -63.1175 104.015 -60.9463 101.941C-58.7796 99.8725 -56.6065 97.7759 -54.3438 95.8555C-49.8165 92.013 -44.8779 88.8318 -38.7451 87.9092C-32.7983 87.0145 -25.802 88.2539 -17.0537 92.9346L-16.2012 93.3984C-3.11285 100.642 9.36928 110.946 22.29 120.609C35.2338 130.29 48.6411 139.347 63.6611 144.208L63.6602 144.209L78.5664 148.968C88.9133 152.268 99.7133 153.953 110.566 153.953C119.779 153.953 128.941 152.742 137.837 150.354L138.697 150.12C146.061 148.075 153.024 145.803 160.827 141.604V141.604C167.328 138.103 173.265 133.562 179.086 128.909C184.896 124.266 190.6 119.503 196.59 115.612C202.586 111.718 208.9 108.676 215.957 107.479C222.799 106.32 230.308 106.9 238.868 110.076L239.7 110.392C247.743 113.509 251.973 119.351 256.626 124.078C258.965 126.454 261.418 128.565 264.534 130.009C267.45 131.359 270.976 132.137 275.571 131.963L276.505 131.916C288.694 131.135 295.745 123.522 302.581 115.374C309.274 107.397 315.784 98.8585 326.741 96.3867L327.267 96.2734C334.628 94.7616 340.372 95.1976 345.155 96.708C349.933 98.2166 353.718 100.787 357.167 103.483C364 108.825 369.437 114.545 378.759 114.267L379.206 114.249C383.485 114.036 387.537 112.272 391.582 109.699C395.632 107.123 399.625 103.771 403.812 100.409C412.013 93.8231 420.928 87.2204 432.066 87.0195L432.599 87.0146C437.871 87.0167 444.15 89.3547 450.865 92.9727C457.593 96.5978 464.821 101.543 472.004 106.831C479.185 112.118 486.346 117.766 492.921 122.788C499.506 127.818 505.501 132.217 510.386 135.041L510.385 135.042C516.94 138.829 523.703 142.012 530.594 144.905L531.974 145.48C545.676 151.154 560.381 153.953 575.202 153.953Z" fill="white" stroke="white"/>
</svg>
