<svg width="118" height="96" viewBox="0 0 118 96" fill="none" xmlns="http://www.w3.org/2000/svg">
<g clip-path="url(#clip0_1_1041)">
<path d="M59.2134 95.6668H56.9529L49.2096 94.5865C37.2523 91.0684 25.121 86.4983 13.7748 81.3479C7.57052 78.5312 5.4515 76.7806 5.11342 69.5796C4.65793 59.8435 5.68632 49.8286 5.38643 40.0574C3.33249 37.342 1.36483 34.8281 0.520336 31.4016C0.315224 30.5664 0.286933 29.689 0.0266532 28.8693C0.0903085 27.8651 -0.0610497 26.7666 0.0266532 25.7751C0.658963 18.5882 6.66944 12.6097 12.4691 8.98175C33.7116 -4.30337 64.5916 0.675204 87.2896 7.73676C93.7853 9.75776 102.029 12.6238 107.792 16.1532C118.581 22.7626 122.163 33.7535 111.902 43.0037C111.515 43.3515 110.583 43.7881 110.491 44.2712C110.317 54.2974 110.446 64.3503 110.058 74.3568C109.883 78.8692 110.327 83.7661 105.038 85.3899C98.725 87.3292 91.1726 88.6418 84.6401 90.1136C76.1782 92.0205 67.6824 93.7964 59.2134 95.6668ZM75.7397 10.0268C58.0167 5.74955 38.275 3.06661 20.9792 10.4225C12.9275 13.8463 1.86983 21.7261 6.26346 31.8719C7.48706 34.6985 8.73612 35.4069 11.3248 36.8167C14.7862 38.7025 18.7739 40.5109 22.3909 42.1122C28.8993 44.9937 35.7599 47.7499 42.8257 48.8371C43.1256 48.5512 41.1777 46.8936 40.9174 46.5894C36.074 40.939 36.8039 33.2212 40.5072 27.1934C46.1923 17.939 57.6277 13.3364 67.9426 11.476C70.1649 11.0746 72.4579 10.9464 74.6364 10.5465C74.7835 10.5197 76.0736 10.3549 75.7383 10.0268H75.7397ZM78.1119 15.5504C66.4489 16.0785 50.5407 19.8896 44.4991 30.8833C41.0886 37.0885 42.7182 43.5065 49.4699 46.2331C50.395 46.6063 52.4886 46.9865 53.135 47.5062C53.7815 48.0259 53.9441 49.5272 53.9951 50.3061C54.7434 61.7998 53.227 74.0314 53.8494 85.6082C53.9512 87.3518 54.8579 89.9939 56.8058 90.3995C58.0789 90.6642 61.5884 89.7291 63.0567 89.4347C73.9602 87.2461 85.1225 84.8012 95.9439 82.238C98.1804 81.7084 101.298 81.1648 103.36 80.3409C103.926 80.1142 104.335 80.0226 104.498 79.3635C104.761 78.3016 104.805 76.2327 104.847 75.0708C105.023 70.2218 105.054 65.2939 105.13 60.4463C105.216 55.003 104.825 49.2456 105.283 43.8628C105.625 39.8503 107.917 39.9898 110.14 37.4477C114.557 32.4001 112.83 26.6286 108.016 22.6838C100.311 16.3672 87.7635 15.1124 78.1148 15.549L78.1119 15.5504ZM11.1197 42.6502L10.9046 43.0023C10.551 49.0442 10.5567 55.0889 10.4859 61.1491C10.4477 64.4757 9.93849 68.9866 10.6571 72.2174C11.2229 74.7567 14.0648 75.5834 16.1753 76.5665C24.8876 80.624 35.303 84.8533 44.4453 87.7982C45.1456 88.0236 48.4726 89.1601 48.9097 88.8559C49.2945 88.5883 48.5688 86.6715 48.491 86.1617C48.1968 84.235 48.4684 82.5506 48.4825 80.6972C48.5292 74.7891 48.7032 68.8726 48.7654 62.9786C48.7937 60.2337 48.7838 57.4789 48.6975 54.7368C47.4782 54.5255 46.1456 54.5931 44.8754 54.4636C39.6273 53.9256 33.9054 52.2552 28.9474 50.492C22.811 48.3104 16.9816 45.4444 11.1182 42.6516L11.1197 42.6502Z" fill="black"/>
<path d="M64.6866 56.4621C66.2129 56.1776 67.3573 57.4958 67.5313 58.9084C67.7647 60.8041 67.7081 63.0209 67.694 64.9461C67.6727 67.8178 67.4804 70.781 67.3997 73.654C67.3757 74.53 67.5751 77.6946 67.3318 78.227C67.1154 78.7016 65.8946 79.5452 65.3444 79.6241C63.8181 79.8438 62.5237 79.4537 62.2408 77.8158C61.8278 75.4089 62.2833 72.1837 62.3243 69.7275C62.3809 66.4122 62.1715 62.5871 62.6185 59.3323C62.8081 57.9493 63.1263 56.7522 64.6852 56.4621H64.6866Z" fill="black"/>
<path d="M57.9051 23.981C60.8417 23.5204 61.8305 26.8766 59.8459 28.5849C58.8811 29.4158 57.393 29.5694 56.2005 30.4397C54.4026 31.7523 53.4478 33.3776 53.7194 35.6746C53.9924 37.9773 57.1172 40.7588 54.0306 42.4827C52.1606 43.5277 51.3642 42.8305 50.3414 41.2884C47.3228 36.7365 47.8928 30.2792 52.2242 26.7639C53.353 25.8484 56.5019 24.2021 57.9051 23.9824V23.981Z" fill="black"/>
</g>
<defs>
<clipPath id="clip0_1_1041">
<rect width="118" height="95" fill="white" transform="translate(0 0.666748)"/>
</clipPath>
</defs>
</svg>
