<svg width="122" height="101" viewBox="0 0 122 101" fill="none" xmlns="http://www.w3.org/2000/svg">
<g clip-path="url(#clip0_1_655)">
<path d="M24.065 46.1812L23.2739 43.356H24.8453L24.065 46.1812Z" fill="#4D4D4D"/>
<path d="M95.0815 43.356L95.8726 46.1812L96.6421 43.356H95.0815ZM95.0815 43.356L95.8726 46.1812L96.6421 43.356H95.0815ZM95.0815 43.356L95.8726 46.1812L96.6421 43.356H95.0815ZM95.0815 43.356L95.8726 46.1812L96.6421 43.356H95.0815ZM95.0815 43.356L95.8726 46.1812L96.6421 43.356H95.0815ZM95.0815 43.356L95.8726 46.1812L96.6421 43.356H95.0815ZM95.0815 43.356L95.8726 46.1812L96.6421 43.356H95.0815ZM95.0815 43.356L95.8726 46.1812L96.6421 43.356H95.0815ZM53.434 65.4399C53.2389 64.7491 52.9463 64.3913 52.5345 64.3913C52.1769 64.3913 51.8951 64.675 51.6892 65.2672C51.5375 65.7484 51.4508 66.3159 51.4508 66.9821C51.4508 67.6483 52.0793 70.745 52.0793 70.745C52.101 70.745 52.2527 70.3626 52.3503 70.1528C52.4478 69.8938 52.5128 69.7704 52.6212 69.5113C52.7946 69.1042 52.8921 68.8944 53.0655 68.475C53.3798 67.7347 53.5424 67.0562 53.5424 66.4516C53.5424 66.0075 53.499 65.662 53.434 65.4399ZM51.7976 77.7774C51.7976 77.7774 51.505 78.567 51.3966 78.9618C51.1582 79.7884 51.0823 80.6273 51.0823 81.3552C51.0823 81.9844 51.169 82.5026 51.3316 82.9097C51.5266 83.3909 51.8084 83.65 52.1769 83.6993C52.5887 83.761 53.4773 83.0825 53.499 82.626C53.5315 81.9227 51.8084 77.7897 51.8084 77.7897L51.7976 77.7774ZM95.0815 43.356L95.8726 46.1812L96.6421 43.356H95.0815ZM51.7976 77.7774C51.7976 77.7774 51.505 78.567 51.3966 78.9618C51.1582 79.7884 51.0823 80.6273 51.0823 81.3552C51.0823 81.9844 51.169 82.5026 51.3316 82.9097C51.5266 83.3909 51.8084 83.65 52.1769 83.6993C52.5887 83.761 53.4773 83.0825 53.499 82.626C53.5315 81.9227 51.8084 77.7897 51.8084 77.7897L51.7976 77.7774ZM53.434 65.4399C53.2389 64.7491 52.9463 64.3913 52.5345 64.3913C52.1769 64.3913 51.8951 64.675 51.6892 65.2672C51.5375 65.7484 51.4508 66.3159 51.4508 66.9821C51.4508 67.6483 52.0793 70.745 52.0793 70.745C52.101 70.745 52.2527 70.3626 52.3503 70.1528C52.4478 69.8938 52.5128 69.7704 52.6212 69.5113C52.7946 69.1042 52.8921 68.8944 53.0655 68.475C53.3798 67.7347 53.5424 67.0562 53.5424 66.4516C53.5424 66.0075 53.499 65.662 53.434 65.4399ZM95.0815 43.356L95.8726 46.1812L96.6421 43.356H95.0815ZM32.3447 67.1425C32.0304 70.0912 31.8787 71.6703 31.5753 74.6067C32.193 74.7177 32.4964 74.7794 33.1141 74.9028C32.7999 71.7567 32.659 70.1158 32.3555 67.1425H32.3447ZM53.434 65.4399C53.2389 64.7491 52.9463 64.3913 52.5345 64.3913C52.1769 64.3913 51.8951 64.675 51.6892 65.2672C51.5375 65.7484 51.4508 66.3159 51.4508 66.9821C51.4508 67.6483 52.0793 70.745 52.0793 70.745C52.101 70.745 52.2527 70.3626 52.3503 70.1528C52.4478 69.8938 52.5128 69.7704 52.6212 69.5113C52.7946 69.1042 52.8921 68.8944 53.0655 68.475C53.3798 67.7347 53.5424 67.0562 53.5424 66.4516C53.5424 66.0075 53.499 65.662 53.434 65.4399ZM51.7976 77.7774C51.7976 77.7774 51.505 78.567 51.3966 78.9618C51.1582 79.7884 51.0823 80.6273 51.0823 81.3552C51.0823 81.9844 51.169 82.5026 51.3316 82.9097C51.5266 83.3909 51.8084 83.65 52.1769 83.6993C52.5887 83.761 53.4773 83.0825 53.499 82.626C53.5315 81.9227 51.8084 77.7897 51.8084 77.7897L51.7976 77.7774ZM95.0815 43.356L95.8726 46.1812L96.6421 43.356H95.0815ZM51.7976 77.7774C51.7976 77.7774 51.505 78.567 51.3966 78.9618C51.1582 79.7884 51.0823 80.6273 51.0823 81.3552C51.0823 81.9844 51.169 82.5026 51.3316 82.9097C51.5266 83.3909 51.8084 83.65 52.1769 83.6993C52.5887 83.761 53.4773 83.0825 53.499 82.626C53.5315 81.9227 51.8084 77.7897 51.8084 77.7897L51.7976 77.7774ZM53.434 65.4399C53.2389 64.7491 52.9463 64.3913 52.5345 64.3913C52.1769 64.3913 51.8951 64.675 51.6892 65.2672C51.5375 65.7484 51.4508 66.3159 51.4508 66.9821C51.4508 67.6483 52.0793 70.745 52.0793 70.745C52.101 70.745 52.2527 70.3626 52.3503 70.1528C52.4478 69.8938 52.5128 69.7704 52.6212 69.5113C52.7946 69.1042 52.8921 68.8944 53.0655 68.475C53.3798 67.7347 53.5424 67.0562 53.5424 66.4516C53.5424 66.0075 53.499 65.662 53.434 65.4399ZM32.3447 67.1425C32.0304 70.0912 31.8787 71.6703 31.5753 74.6067C32.193 74.7177 32.4964 74.7794 33.1141 74.9028C32.7999 71.7567 32.659 70.1158 32.3555 67.1425H32.3447ZM95.0815 43.356L95.8726 46.1812L96.6421 43.356H95.0815ZM32.3447 67.1425C32.0304 70.0912 31.8787 71.6703 31.5753 74.6067C32.193 74.7177 32.4964 74.7794 33.1141 74.9028C32.7999 71.7567 32.659 70.1158 32.3555 67.1425H32.3447ZM53.434 65.4399C53.2389 64.7491 52.9463 64.3913 52.5345 64.3913C52.1769 64.3913 51.8951 64.675 51.6892 65.2672C51.5375 65.7484 51.4508 66.3159 51.4508 66.9821C51.4508 67.6483 52.0793 70.745 52.0793 70.745C52.101 70.745 52.2527 70.3626 52.3503 70.1528C52.4478 69.8938 52.5128 69.7704 52.6212 69.5113C52.7946 69.1042 52.8921 68.8944 53.0655 68.475C53.3798 67.7347 53.5424 67.0562 53.5424 66.4516C53.5424 66.0075 53.499 65.662 53.434 65.4399ZM51.7976 77.7774C51.7976 77.7774 51.505 78.567 51.3966 78.9618C51.1582 79.7884 51.0823 80.6273 51.0823 81.3552C51.0823 81.9844 51.169 82.5026 51.3316 82.9097C51.5266 83.3909 51.8084 83.65 52.1769 83.6993C52.5887 83.761 53.4773 83.0825 53.499 82.626C53.5315 81.9227 51.8084 77.7897 51.8084 77.7897L51.7976 77.7774ZM64.152 66.4146C63.9244 66.0198 63.6427 65.8224 63.3175 65.8224C62.9924 65.8224 62.7107 65.9951 62.4722 66.4023C62.2447 66.7847 62.1363 67.2659 62.1363 67.8581V82.1572C62.1363 82.7247 62.2447 83.1935 62.4722 83.5513C62.7107 83.9214 62.9924 84.0941 63.3175 84.0695C63.6318 84.0448 63.9244 83.8474 64.152 83.4526C64.3904 83.0701 64.4988 82.589 64.4988 82.0091V67.8828C64.4988 67.3029 64.3904 66.8217 64.152 66.4269V66.4146ZM71.7814 66.2172C71.2829 66.2172 71.0445 66.2172 70.5352 66.2419V74.0391C71.0445 74.0021 71.2829 73.9774 71.7814 73.9404C72.1066 73.9034 72.3883 73.669 72.6159 73.2249C72.8543 72.7807 72.9627 72.2625 72.9627 71.6827V68.1665C72.9627 66.8217 72.5726 66.2049 71.7814 66.2172ZM95.0815 43.356L95.8726 46.1812L96.6421 43.356H95.0815ZM71.7814 66.2172C71.2829 66.2172 71.0445 66.2172 70.5352 66.2419V74.0391C71.0445 74.0021 71.2829 73.9774 71.7814 73.9404C72.1066 73.9034 72.3883 73.669 72.6159 73.2249C72.8543 72.7807 72.9627 72.2625 72.9627 71.6827V68.1665C72.9627 66.8217 72.5726 66.2049 71.7814 66.2172ZM64.152 66.4146C63.9244 66.0198 63.6427 65.8224 63.3175 65.8224C62.9924 65.8224 62.7107 65.9951 62.4722 66.4023C62.2447 66.7847 62.1363 67.2659 62.1363 67.8581V82.1572C62.1363 82.7247 62.2447 83.1935 62.4722 83.5513C62.7107 83.9214 62.9924 84.0941 63.3175 84.0695C63.6318 84.0448 63.9244 83.8474 64.152 83.4526C64.3904 83.0701 64.4988 82.589 64.4988 82.0091V67.8828C64.4988 67.3029 64.3904 66.8217 64.152 66.4269V66.4146ZM51.7976 77.7774C51.7976 77.7774 51.505 78.567 51.3966 78.9618C51.1582 79.7884 51.0823 80.6273 51.0823 81.3552C51.0823 81.9844 51.169 82.5026 51.3316 82.9097C51.5266 83.3909 51.8084 83.65 52.1769 83.6993C52.5887 83.761 53.4773 83.0825 53.499 82.626C53.5315 81.9227 51.8084 77.7897 51.8084 77.7897L51.7976 77.7774ZM53.434 65.4399C53.2389 64.7491 52.9463 64.3913 52.5345 64.3913C52.1769 64.3913 51.8951 64.675 51.6892 65.2672C51.5375 65.7484 51.4508 66.3159 51.4508 66.9821C51.4508 67.6483 52.0793 70.745 52.0793 70.745C52.101 70.745 52.2527 70.3626 52.3503 70.1528C52.4478 69.8938 52.5128 69.7704 52.6212 69.5113C52.7946 69.1042 52.8921 68.8944 53.0655 68.475C53.3798 67.7347 53.5424 67.0562 53.5424 66.4516C53.5424 66.0075 53.499 65.662 53.434 65.4399ZM32.3447 67.1425C32.0304 70.0912 31.8787 71.6703 31.5753 74.6067C32.193 74.7177 32.4964 74.7794 33.1141 74.9028C32.7999 71.7567 32.659 70.1158 32.3555 67.1425H32.3447ZM95.0815 43.356L95.8726 46.1812L96.6421 43.356H95.0815ZM32.3447 67.1425C32.0304 70.0912 31.8787 71.6703 31.5753 74.6067C32.193 74.7177 32.4964 74.7794 33.1141 74.9028C32.7999 71.7567 32.659 70.1158 32.3555 67.1425H32.3447ZM53.434 65.4399C53.2389 64.7491 52.9463 64.3913 52.5345 64.3913C52.1769 64.3913 51.8951 64.675 51.6892 65.2672C51.5375 65.7484 51.4508 66.3159 51.4508 66.9821C51.4508 67.6483 52.0793 70.745 52.0793 70.745C52.101 70.745 52.2527 70.3626 52.3503 70.1528C52.4478 69.8938 52.5128 69.7704 52.6212 69.5113C52.7946 69.1042 52.8921 68.8944 53.0655 68.475C53.3798 67.7347 53.5424 67.0562 53.5424 66.4516C53.5424 66.0075 53.499 65.662 53.434 65.4399ZM51.7976 77.7774C51.7976 77.7774 51.505 78.567 51.3966 78.9618C51.1582 79.7884 51.0823 80.6273 51.0823 81.3552C51.0823 81.9844 51.169 82.5026 51.3316 82.9097C51.5266 83.3909 51.8084 83.65 52.1769 83.6993C52.5887 83.761 53.4773 83.0825 53.499 82.626C53.5315 81.9227 51.8084 77.7897 51.8084 77.7897L51.7976 77.7774ZM64.152 66.4146C63.9244 66.0198 63.6427 65.8224 63.3175 65.8224C62.9924 65.8224 62.7107 65.9951 62.4722 66.4023C62.2447 66.7847 62.1363 67.2659 62.1363 67.8581V82.1572C62.1363 82.7247 62.2447 83.1935 62.4722 83.5513C62.7107 83.9214 62.9924 84.0941 63.3175 84.0695C63.6318 84.0448 63.9244 83.8474 64.152 83.4526C64.3904 83.0701 64.4988 82.589 64.4988 82.0091V67.8828C64.4988 67.3029 64.3904 66.8217 64.152 66.4269V66.4146ZM71.7814 66.2172C71.2829 66.2172 71.0445 66.2172 70.5352 66.2419V74.0391C71.0445 74.0021 71.2829 73.9774 71.7814 73.9404C72.1066 73.9034 72.3883 73.669 72.6159 73.2249C72.8543 72.7807 72.9627 72.2625 72.9627 71.6827V68.1665C72.9627 66.8217 72.5726 66.2049 71.7814 66.2172ZM81.2965 66.501C81.069 66.1555 80.798 65.9951 80.4729 66.0075C79.9744 66.0075 79.736 66.0321 79.2375 66.0445C79.2375 71.8061 79.2375 75.8527 79.2375 81.4169C79.736 81.3059 79.9744 81.2442 80.4837 81.1332C80.798 81.0468 81.0798 80.8124 81.3074 80.4176C81.535 80.0228 81.6433 79.591 81.6433 79.1098C81.6433 74.7917 81.6433 72.1638 81.6433 67.7717C81.6433 67.2659 81.5241 66.8464 81.2965 66.501ZM95.0815 43.356L95.8726 46.1812L96.6421 43.356H95.0815ZM81.2965 66.501C81.069 66.1555 80.798 65.9951 80.4729 66.0075C79.9744 66.0075 79.736 66.0321 79.2375 66.0445C79.2375 71.8061 79.2375 75.8527 79.2375 81.4169C79.736 81.3059 79.9744 81.2442 80.4837 81.1332C80.798 81.0468 81.0798 80.8124 81.3074 80.4176C81.535 80.0228 81.6433 79.591 81.6433 79.1098C81.6433 74.7917 81.6433 72.1638 81.6433 67.7717C81.6433 67.2659 81.5241 66.8464 81.2965 66.501ZM71.7814 66.2172C71.2829 66.2172 71.0445 66.2172 70.5352 66.2419V74.0391C71.0445 74.0021 71.2829 73.9774 71.7814 73.9404C72.1066 73.9034 72.3883 73.669 72.6159 73.2249C72.8543 72.7807 72.9627 72.2625 72.9627 71.6827V68.1665C72.9627 66.8217 72.5726 66.2049 71.7814 66.2172ZM64.152 66.4146C63.9244 66.0198 63.6427 65.8224 63.3175 65.8224C62.9924 65.8224 62.7107 65.9951 62.4722 66.4023C62.2447 66.7847 62.1363 67.2659 62.1363 67.8581V82.1572C62.1363 82.7247 62.2447 83.1935 62.4722 83.5513C62.7107 83.9214 62.9924 84.0941 63.3175 84.0695C63.6318 84.0448 63.9244 83.8474 64.152 83.4526C64.3904 83.0701 64.4988 82.589 64.4988 82.0091V67.8828C64.4988 67.3029 64.3904 66.8217 64.152 66.4269V66.4146ZM51.3966 78.9618C51.1582 79.7884 51.0823 80.6273 51.0823 81.3552C51.0823 81.9844 51.169 82.5026 51.3316 82.9097C51.5266 83.3909 51.8084 83.65 52.1769 83.6993C52.5887 83.761 53.4773 83.0825 53.499 82.626C53.5315 81.9227 51.8084 77.7897 51.8084 77.7897C51.7867 77.7897 51.5158 78.5793 51.4074 78.9741L51.3966 78.9618ZM52.3503 70.1528C52.4478 69.8938 52.5128 69.7704 52.6212 69.5113C52.7946 69.1042 52.8921 68.8944 53.0655 68.475C53.3798 67.7347 53.5424 67.0562 53.5424 66.4516C53.5424 66.0075 53.499 65.662 53.434 65.4399C53.2389 64.7491 52.9463 64.3913 52.5345 64.3913C52.1769 64.3913 51.8951 64.675 51.6892 65.2672C51.5375 65.7484 51.4508 66.3159 51.4508 66.9821C51.4508 67.6483 52.0793 70.745 52.0793 70.745C52.101 70.745 52.2527 70.3626 52.3503 70.1528ZM32.3447 67.1425C32.0304 70.0912 31.8787 71.6703 31.5753 74.6067C32.193 74.7177 32.4964 74.7794 33.1141 74.9028C32.7999 71.7567 32.659 70.1158 32.3555 67.1425H32.3447ZM95.0815 43.356L95.8726 46.1812L96.6421 43.356H95.0815ZM105.366 30.5497L102.798 29.3036V16.9168L60.5866 5.01123C60.5866 5.01123 60.489 5.01123 60.3373 5.01123C60.1856 5.01123 60.0664 5.01123 60.023 5.03591L17.8987 16.9168V29.4023L15.3844 30.6731C8.61113 34.1029 4.22205 41.7644 4.22205 50.2032C4.22205 58.642 8.61113 66.3282 15.3844 69.7457L17.8987 71.0165V83.5019L60.0989 95.4076C60.0989 95.4076 60.5866 95.4076 60.6408 95.4076L102.798 83.5143V71.1275L105.366 69.8814C112.313 66.5133 116.789 58.8024 116.789 50.2032C116.789 41.604 112.313 33.9055 105.366 30.5497ZM99.7632 43.393L100.099 40.4813H105.561L102.473 50.7337H99.7632L101.996 43.393H99.7632ZM93.0116 41.6657C93.2825 41.2216 93.6618 40.9008 94.1495 40.7157C94.3012 40.6294 94.4638 40.58 94.648 40.5554C94.8106 40.5183 94.984 40.506 95.1682 40.506C95.3416 40.506 95.5258 40.506 95.6992 40.506H96.2303C96.7721 40.4813 97.2706 40.5924 97.7366 40.7898C98.1918 40.9995 98.5603 41.3573 98.842 41.8508C99.048 42.2086 99.178 42.6404 99.2105 43.1215C99.243 43.615 99.178 44.0592 99.0263 44.454L97.2381 50.7461H94.5938L95.851 46.2552L93.2283 46.2306C93.1742 45.9838 93.12 45.7247 93.0333 45.4903C92.9574 45.2436 92.8924 44.9968 92.8165 44.7501C92.7407 44.491 92.6865 44.2442 92.6323 43.9975C92.589 43.7508 92.5673 43.4793 92.5673 43.2079C92.5998 42.6157 92.7407 42.1099 93.0116 41.6657ZM77.8286 23.8998C80.2236 21.0869 87.9073 24.2453 86.195 29.2543C85.924 30.0069 85.4689 30.5744 84.9379 30.9568L84.862 31.0185L75.2169 38.1866C75.1843 38.384 75.1301 38.5937 75.0651 38.8034C74.9676 39.0872 74.8484 39.3216 74.6967 39.5313L74.1331 40.1482C73.7647 40.4443 73.3095 40.7898 72.8543 40.8638C72.9085 40.617 72.941 40.3703 72.941 40.1482C72.941 39.2969 72.6051 38.569 72.1391 37.9768C71.6189 37.3106 70.8819 36.7924 70.0908 36.4347C69.7874 36.3113 69.4731 36.2126 69.1588 36.1509C71.0228 36.8665 72.2908 38.9268 72.3341 41.493L63.6318 52.2759C63.6318 52.2759 63.6318 52.3253 63.5993 52.3376C62.9057 53.1642 62.4289 53.9168 61.4102 54.2992C60.5215 54.6447 59.5354 54.8174 58.625 54.5707C57.5088 54.2622 56.4359 53.5837 55.9374 52.3623C55.6231 51.5727 55.1138 50.3636 55.5039 49.5C55.6231 49.2286 55.7857 49.0312 55.9916 48.8708L57.6063 47.4273L58.4083 46.6994C59.3728 46.3416 61.757 47.7974 61.9846 48.6364L60.7708 49.9565L59.6437 51.2026C59.5245 51.4 58.896 51.437 58.9176 51.3876C60.0014 49.5864 56.4901 47.8715 56.165 49.4877C55.8724 50.9311 56.761 52.9051 57.8447 53.6207C58.7226 54.2129 59.828 54.546 60.8467 54.2376C62.1471 53.8674 62.9816 52.7571 63.5993 51.3876C63.6318 51.1532 63.6535 50.9188 63.6535 50.6967C63.6535 47.2176 59.6871 44.8981 56.6093 45.0832C54.7128 45.5027 53.7591 47.4643 53.7591 48.8708C53.7591 49.1299 53.8024 49.3766 53.8675 49.5863C53.965 49.9071 53.1197 49.9565 53.1197 49.648C53.1197 48.1059 53.434 46.7487 54.3877 45.7988L55.2221 45.1572L66.1352 36.7554L68.1076 34.362L68.2918 34.1522H68.3135C68.747 33.7451 69.3322 33.523 69.9933 33.4613C71.6189 33.3133 73.6454 34.1646 74.675 35.6204C73.7755 34.0905 72.28 32.8568 70.6869 32.6347L77.7419 24.0479L77.872 23.8875L77.8286 23.8998ZM78.7823 43.5534L76.7882 42.7761L73.8297 41.6287C74.144 41.456 74.4366 41.2339 74.675 41.0365L74.7292 40.9872L75.3794 40.2839L75.4119 40.2593L75.4444 40.1976C75.6503 39.9015 75.8021 39.6054 75.9646 39.1736C75.9971 39.0502 76.0296 38.9515 76.0621 38.8405L77.3843 37.8658L80.1695 38.9392L77.6119 40.506L78.7931 43.5163L78.7823 43.5534ZM77.8286 44.602L74.9568 44.0222L74.2415 47.2176L72.0849 43.4053L73.2228 41.9988L77.2651 43.5904L77.8286 44.5897V44.602ZM55.1138 13.2403L75.6395 20.8031V22.5921L69.9825 25.6271L66.6554 27.416L60.4023 30.7718L69.9825 27.6134V31.8328L69.4839 32.425C68.7687 32.5484 68.1293 32.8568 67.6416 33.3133L67.5983 33.3503L67.349 33.6217L65.4091 35.9782L59.2427 40.7157C58.094 40.8885 56.9127 40.9748 55.6773 40.9748C53.2281 40.9748 50.9089 40.617 48.8932 39.9878L47.8311 37.1379C47.9937 36.6814 48.0912 36.1879 48.0912 35.6821C48.0912 34.473 47.571 33.3626 46.7366 32.6841V29.0939L55.1138 33.6094V31.8205L47.2351 27.5887L55.1138 24.2083L55.7857 23.9245C56.7502 23.505 57.2487 22.2466 56.8911 21.1609C56.6093 20.322 55.9049 19.7545 55.1246 19.7545C54.897 19.7545 54.6694 19.8161 54.4527 19.9025L44.1898 24.2823C43.713 24.4797 43.3445 24.8745 43.1386 25.368L36.5604 21.8395L34.5988 20.7785L55.1246 13.2156L55.1138 13.2403ZM46.6715 43.5657C46.7257 43.9852 46.4548 44.38 46.0863 44.4293C46.0538 44.4293 46.0213 44.4293 45.9996 44.4293C45.6637 44.4293 45.3711 44.1455 45.3169 43.7631L44.84 39.7041L44.3632 43.7631C44.3199 44.1455 44.0381 44.4293 43.6913 44.4293C43.6588 44.4293 43.6263 44.4293 43.5938 44.4293C43.2253 44.3676 42.9652 43.9852 43.0194 43.5657L43.4962 39.4327L42.2825 42.7144C42.1416 43.0969 41.7406 43.2819 41.383 43.1092C41.047 42.9488 40.8845 42.5047 41.0362 42.0975L42.8893 37.0885C42.6726 36.6814 42.5425 36.2002 42.5425 35.6821C42.5425 34.6087 43.0844 33.7081 43.8972 33.301V26.3056C43.8972 25.8615 44.1465 25.4667 44.5041 25.3063L54.7778 20.9142C55.2655 20.7044 55.8073 20.9882 55.9807 21.531C56.165 22.0862 55.9157 22.6908 55.4389 22.9005L45.772 27.0459V33.3133C46.5848 33.7081 47.1375 34.6211 47.1375 35.6944C47.1375 36.2126 47.0075 36.6937 46.7799 37.1009L48.6439 42.1099C48.7848 42.5047 48.6222 42.9488 48.2863 43.1215C47.9395 43.2819 47.5494 43.1215 47.3868 42.7267L46.173 39.445L46.6607 43.578L46.6715 43.5657ZM41.3938 32.7211V26.2439L42.9435 27.0706V32.6841C42.38 33.1406 41.9573 33.7944 41.7623 34.547C41.513 33.9548 41.3938 33.338 41.3938 32.7088V32.7211ZM21.1932 41.6657C21.4641 41.2216 21.8434 40.9008 22.3419 40.7157C22.4936 40.6294 22.6562 40.58 22.8296 40.5554C23.003 40.5183 23.1764 40.506 23.3498 40.506C23.534 40.506 23.7074 40.506 23.8916 40.506H24.4118C24.9429 40.4813 25.4522 40.5924 25.9074 40.7898C26.3734 40.9995 26.731 41.3573 27.0128 41.8508C27.2295 42.2086 27.3487 42.6404 27.3812 43.1215C27.4246 43.615 27.3596 44.0592 27.2078 44.454L25.4197 50.7461H22.7754L24.0325 46.2552L21.4208 46.2306C21.3666 45.9838 21.3124 45.7247 21.2257 45.4903C21.1498 45.2436 21.074 44.9968 20.9981 44.7501C20.9222 44.491 20.8681 44.2442 20.8247 43.9975C20.7705 43.7508 20.7488 43.4793 20.7597 43.2079C20.7922 42.6157 20.9331 42.1099 21.1932 41.6657ZM17.4652 42.1962L20.0444 40.4813V50.7337H17.4652V42.1962ZM27.1862 80.1708C24.9429 79.5786 23.8158 79.2949 21.5616 78.7644V62.9971C22.3853 62.9971 22.7971 62.9971 23.6316 62.9971V76.8521C25.0512 77.1852 25.7665 77.3579 27.1862 77.691V80.1585V80.1708ZM33.8944 82.0214C33.7102 80.4423 33.6018 79.5663 33.4176 77.7897C32.5506 77.5923 32.1171 77.4936 31.2501 77.2839C31.0551 78.9124 30.9467 79.702 30.7516 81.1578C29.8846 80.9111 29.4512 80.8 28.595 80.5656C29.527 74.3476 29.993 69.721 30.925 63.0341C32.0521 63.0341 32.6373 63.0341 33.7644 63.0341C34.6855 69.8567 35.1299 75.68 36.051 82.6136C35.1841 82.3792 34.7506 82.2559 33.8728 82.0214H33.8944ZM44.1681 84.711C43.3879 84.5259 42.9977 84.4273 42.2066 84.2422C41.7406 80.3559 41.5022 77.506 41.0362 72.4723C40.5918 77.3949 40.3751 80.0351 39.9308 83.6747C39.1505 83.4649 38.7495 83.3539 37.9584 83.1442C37.0372 76.1488 36.5821 69.9678 35.6609 63.0588C36.5279 63.0588 36.9614 63.0588 37.8284 63.0588C38.2618 66.8094 38.4786 69.3509 38.9121 74.0761C39.3131 69.462 39.5081 66.8587 39.9091 63.0712H42.0765C42.51 66.9204 42.7268 69.6593 43.1494 74.693C43.5504 69.7827 43.7563 66.9575 44.1573 63.0835H46.3247C45.4686 70.3749 45.0351 78.0241 44.179 84.711H44.1681ZM57.2704 86.648C56.4684 86.5863 54.9837 84.9454 54.7886 84.9454C54.496 84.9454 53.098 86.4876 52.1769 86.3395C51.0931 86.1915 50.2695 85.5253 49.706 84.1435C49.3483 83.2675 49.1749 82.2435 49.1749 81.0468C49.1749 79.8501 49.3375 78.604 49.6951 77.2839C49.7493 77.0741 49.9444 76.4696 50.2695 75.5073C50.4429 74.9891 50.6271 74.4833 50.8114 73.9898C50.6488 73.2495 50.5513 72.8918 50.3887 72.1638C50.1828 71.3249 50.0528 70.7327 49.9661 70.3873C49.836 69.721 49.7168 69.1165 49.6626 68.5983C49.5976 68.0308 49.5542 67.5003 49.5542 66.9698C49.5542 65.9581 49.6951 65.0822 49.9552 64.3419C50.2478 63.5523 50.6488 63.0095 51.1582 62.6517C51.57 62.3679 52.036 62.2322 52.5345 62.2322C53.0872 62.2322 53.6074 62.3926 54.0842 62.7627C54.5502 63.1205 54.9078 63.6387 55.1463 64.3789C55.3522 64.9711 55.4497 65.6744 55.4497 66.4393C55.4497 67.8211 55.1571 69.2522 54.5827 70.6217C54.4093 71.0535 54.3118 71.2632 54.1384 71.695C53.7266 72.682 53.0438 73.8664 53.0005 74.4833C52.9246 75.7417 54.5611 79.6403 54.5611 79.6403C54.6369 79.6403 55.1679 76.6793 55.3522 74.9768C56.0891 75.3346 56.4684 75.5196 57.2162 75.8651C56.8911 78.7027 55.7857 81.713 55.8724 82.6013C55.9374 83.1565 56.8694 83.8844 57.2595 83.9091V86.6233L57.2704 86.648ZM66.6446 81.8734C66.6446 83.4279 66.3303 84.6493 65.6909 85.587C65.0407 86.5246 64.2821 86.9441 63.3826 86.9934C62.4722 87.0428 61.692 86.7097 61.0634 85.8584C60.424 85.0071 60.1097 83.8104 60.1097 82.2312V67.9198C60.1097 66.2912 60.424 65.0328 61.0634 64.1198C61.7028 63.1945 62.4722 62.8121 63.3826 62.8121C64.2929 62.8121 65.0623 63.2192 65.7017 64.1569C66.3303 65.1068 66.6446 66.3406 66.6446 67.9321V81.8611V81.8734ZM73.1578 85.5499C72.6593 83.0578 72.41 81.2812 71.9115 77.6417C71.8465 77.6417 71.7923 77.6417 71.7273 77.6663C71.2504 77.728 71.012 77.765 70.5352 77.802V86.0064C69.7115 86.1422 69.2997 86.2038 68.4761 86.3149V63.0712H71.7273C72.8868 63.0712 73.7213 63.4783 74.2632 64.3913C74.74 65.2055 74.9784 66.3776 74.9784 68.0185V71.4359C74.9784 73.1385 74.61 74.6313 73.873 75.9268C74.4799 80.1091 74.7834 82.1942 75.4011 85.0811C74.5016 85.2662 74.0573 85.3649 73.1686 85.5376L73.1578 85.5499ZM83.6482 78.5916C83.6482 79.9118 83.3339 81.0591 82.7054 82.0708C82.066 83.0825 81.3074 83.6747 80.4079 83.8967C79.1074 84.2298 78.4572 84.3902 77.1675 84.6987C77.1675 77.8144 77.1675 70.3132 77.1675 63.0712C78.468 63.0712 79.1182 63.0712 80.4187 63.0712C81.329 63.0712 82.0877 63.466 82.7162 64.3419C83.3448 65.2055 83.6591 66.2789 83.6591 67.6113C83.6591 71.8801 83.6591 74.3969 83.6482 78.604V78.5916ZM91.3535 65.6127C89.8146 65.662 89.0668 65.6867 87.528 65.736V71.0535C88.6442 70.9301 89.2077 70.8561 90.324 70.7204C90.324 71.8677 90.324 72.4476 90.324 73.595C89.2077 73.7801 88.655 73.8911 87.5388 74.0761V79.3442C89.0668 78.9494 89.8255 78.752 91.3535 78.3696V80.9234C88.991 81.565 87.8206 81.9104 85.4689 82.552C85.4689 75.8651 85.4689 69.9554 85.4689 63.0465C87.8206 63.0465 88.991 63.0465 91.3535 63.0218V65.625V65.6127ZM97.4549 79.2949C96.9455 77.0371 96.7071 75.8651 96.1978 73.4099C96.1436 73.4099 96.0785 73.4099 96.0135 73.4346C95.5367 73.5333 95.2983 73.558 94.8323 73.6567C94.8323 76.2599 94.8323 77.5553 94.8323 79.9734C94.0086 80.1832 93.5968 80.3065 92.7732 80.5286C92.7732 74.0638 92.7732 69.5853 92.7732 63.0095C94.0737 63.0095 94.7239 63.0095 96.0244 63.0095C97.1731 63.0095 98.0076 63.3796 98.5603 64.1075C99.0371 64.7367 99.2755 65.6373 99.2755 66.7847V69.0795C99.2755 70.2022 98.9071 71.2015 98.1593 72.1022C98.777 74.8411 99.0805 76.1488 99.6982 78.7644C98.7987 78.9741 98.3544 79.0851 97.4657 79.3072L97.4549 79.2949ZM11.3421 59.629V57.4206H111.262V59.629H11.3421ZM96.0785 65.5263C95.58 65.5263 95.3308 65.551 94.8323 65.5633V71.0782C95.3308 71.0041 95.5692 70.9795 96.0785 70.9178C96.4037 70.8808 96.6746 70.6957 96.913 70.3873C97.1406 70.0665 97.249 69.721 97.249 69.3262V66.9081C97.249 65.9581 96.8588 65.5016 96.0785 65.5263ZM96.6421 43.356H95.0815L95.8726 46.1812L96.6421 43.356ZM80.4729 66.0075C79.9744 66.0075 79.736 66.0321 79.2375 66.0445C79.2375 71.8061 79.2375 75.8527 79.2375 81.4169C79.736 81.3059 79.9744 81.2442 80.4837 81.1332C80.798 81.0468 81.0798 80.8124 81.3074 80.4176C81.535 80.0228 81.6433 79.591 81.6433 79.1098C81.6433 74.7917 81.6433 72.1638 81.6433 67.7717C81.6433 67.2659 81.5241 66.8464 81.2965 66.501C81.069 66.1555 80.798 65.9951 80.4729 66.0075ZM71.7814 66.2172C71.2829 66.2172 71.0445 66.2172 70.5352 66.2419V74.0391C71.0445 74.0021 71.2829 73.9774 71.7814 73.9404C72.1066 73.9034 72.3883 73.669 72.6159 73.2249C72.8543 72.7807 72.9627 72.2625 72.9627 71.6827V68.1665C72.9627 66.8217 72.5726 66.2049 71.7814 66.2172ZM63.3175 65.8224C62.9924 65.8224 62.7107 65.9951 62.4722 66.4023C62.2447 66.7847 62.1363 67.2659 62.1363 67.8581V82.1572C62.1363 82.7247 62.2447 83.1935 62.4722 83.5513C62.7107 83.9214 62.9924 84.0941 63.3175 84.0695C63.6318 84.0448 63.9244 83.8474 64.152 83.4526C64.3904 83.0701 64.4988 82.589 64.4988 82.0091V67.8828C64.4988 67.3029 64.3904 66.8217 64.152 66.4269C63.9244 66.0321 63.6427 65.8347 63.3175 65.8347V65.8224ZM51.3966 78.9618C51.1582 79.7884 51.0823 80.6273 51.0823 81.3552C51.0823 81.9844 51.169 82.5026 51.3316 82.9097C51.5266 83.3909 51.8084 83.65 52.1769 83.6993C52.5887 83.761 53.4773 83.0825 53.499 82.626C53.5315 81.9227 51.8084 77.7897 51.8084 77.7897C51.7867 77.7897 51.5158 78.5793 51.4074 78.9741L51.3966 78.9618ZM52.3503 70.1528C52.4478 69.8938 52.5128 69.7704 52.6212 69.5113C52.7946 69.1042 52.8921 68.8944 53.0655 68.475C53.3798 67.7347 53.5424 67.0562 53.5424 66.4516C53.5424 66.0075 53.499 65.662 53.434 65.4399C53.2389 64.7491 52.9463 64.3913 52.5345 64.3913C52.1769 64.3913 51.8951 64.675 51.6892 65.2672C51.5375 65.7484 51.4508 66.3159 51.4508 66.9821C51.4508 67.6483 52.0793 70.745 52.0793 70.745C52.101 70.745 52.2527 70.3626 52.3503 70.1528ZM31.5753 74.6067C32.193 74.7177 32.4964 74.7794 33.1141 74.9028C32.7999 71.7567 32.659 70.1158 32.3555 67.1425C32.0413 70.0912 31.8895 71.6703 31.5861 74.6067H31.5753ZM95.0815 43.356L95.8726 46.1812L96.6421 43.356H95.0815ZM32.3447 67.1425C32.0304 70.0912 31.8787 71.6703 31.5753 74.6067C32.193 74.7177 32.4964 74.7794 33.1141 74.9028C32.7999 71.7567 32.659 70.1158 32.3555 67.1425H32.3447ZM53.434 65.4399C53.2389 64.7491 52.9463 64.3913 52.5345 64.3913C52.1769 64.3913 51.8951 64.675 51.6892 65.2672C51.5375 65.7484 51.4508 66.3159 51.4508 66.9821C51.4508 67.6483 52.0793 70.745 52.0793 70.745C52.101 70.745 52.2527 70.3626 52.3503 70.1528C52.4478 69.8938 52.5128 69.7704 52.6212 69.5113C52.7946 69.1042 52.8921 68.8944 53.0655 68.475C53.3798 67.7347 53.5424 67.0562 53.5424 66.4516C53.5424 66.0075 53.499 65.662 53.434 65.4399ZM51.7976 77.7774C51.7976 77.7774 51.505 78.567 51.3966 78.9618C51.1582 79.7884 51.0823 80.6273 51.0823 81.3552C51.0823 81.9844 51.169 82.5026 51.3316 82.9097C51.5266 83.3909 51.8084 83.65 52.1769 83.6993C52.5887 83.761 53.4773 83.0825 53.499 82.626C53.5315 81.9227 51.8084 77.7897 51.8084 77.7897L51.7976 77.7774ZM64.152 66.4146C63.9244 66.0198 63.6427 65.8224 63.3175 65.8224C62.9924 65.8224 62.7107 65.9951 62.4722 66.4023C62.2447 66.7847 62.1363 67.2659 62.1363 67.8581V82.1572C62.1363 82.7247 62.2447 83.1935 62.4722 83.5513C62.7107 83.9214 62.9924 84.0941 63.3175 84.0695C63.6318 84.0448 63.9244 83.8474 64.152 83.4526C64.3904 83.0701 64.4988 82.589 64.4988 82.0091V67.8828C64.4988 67.3029 64.3904 66.8217 64.152 66.4269V66.4146ZM71.7814 66.2172C71.2829 66.2172 71.0445 66.2172 70.5352 66.2419V74.0391C71.0445 74.0021 71.2829 73.9774 71.7814 73.9404C72.1066 73.9034 72.3883 73.669 72.6159 73.2249C72.8543 72.7807 72.9627 72.2625 72.9627 71.6827V68.1665C72.9627 66.8217 72.5726 66.2049 71.7814 66.2172ZM81.2965 66.501C81.069 66.1555 80.798 65.9951 80.4729 66.0075C79.9744 66.0075 79.736 66.0321 79.2375 66.0445C79.2375 71.8061 79.2375 75.8527 79.2375 81.4169C79.736 81.3059 79.9744 81.2442 80.4837 81.1332C80.798 81.0468 81.0798 80.8124 81.3074 80.4176C81.535 80.0228 81.6433 79.591 81.6433 79.1098C81.6433 74.7917 81.6433 72.1638 81.6433 67.7717C81.6433 67.2659 81.5241 66.8464 81.2965 66.501ZM95.0815 43.356L95.8726 46.1812L96.6421 43.356H95.0815ZM81.2965 66.501C81.069 66.1555 80.798 65.9951 80.4729 66.0075C79.9744 66.0075 79.736 66.0321 79.2375 66.0445C79.2375 71.8061 79.2375 75.8527 79.2375 81.4169C79.736 81.3059 79.9744 81.2442 80.4837 81.1332C80.798 81.0468 81.0798 80.8124 81.3074 80.4176C81.535 80.0228 81.6433 79.591 81.6433 79.1098C81.6433 74.7917 81.6433 72.1638 81.6433 67.7717C81.6433 67.2659 81.5241 66.8464 81.2965 66.501ZM71.7814 66.2172C71.2829 66.2172 71.0445 66.2172 70.5352 66.2419V74.0391C71.0445 74.0021 71.2829 73.9774 71.7814 73.9404C72.1066 73.9034 72.3883 73.669 72.6159 73.2249C72.8543 72.7807 72.9627 72.2625 72.9627 71.6827V68.1665C72.9627 66.8217 72.5726 66.2049 71.7814 66.2172ZM64.152 66.4146C63.9244 66.0198 63.6427 65.8224 63.3175 65.8224C62.9924 65.8224 62.7107 65.9951 62.4722 66.4023C62.2447 66.7847 62.1363 67.2659 62.1363 67.8581V82.1572C62.1363 82.7247 62.2447 83.1935 62.4722 83.5513C62.7107 83.9214 62.9924 84.0941 63.3175 84.0695C63.6318 84.0448 63.9244 83.8474 64.152 83.4526C64.3904 83.0701 64.4988 82.589 64.4988 82.0091V67.8828C64.4988 67.3029 64.3904 66.8217 64.152 66.4269V66.4146ZM51.7976 77.7774C51.7976 77.7774 51.505 78.567 51.3966 78.9618C51.1582 79.7884 51.0823 80.6273 51.0823 81.3552C51.0823 81.9844 51.169 82.5026 51.3316 82.9097C51.5266 83.3909 51.8084 83.65 52.1769 83.6993C52.5887 83.761 53.4773 83.0825 53.499 82.626C53.5315 81.9227 51.8084 77.7897 51.8084 77.7897L51.7976 77.7774ZM53.434 65.4399C53.2389 64.7491 52.9463 64.3913 52.5345 64.3913C52.1769 64.3913 51.8951 64.675 51.6892 65.2672C51.5375 65.7484 51.4508 66.3159 51.4508 66.9821C51.4508 67.6483 52.0793 70.745 52.0793 70.745C52.101 70.745 52.2527 70.3626 52.3503 70.1528C52.4478 69.8938 52.5128 69.7704 52.6212 69.5113C52.7946 69.1042 52.8921 68.8944 53.0655 68.475C53.3798 67.7347 53.5424 67.0562 53.5424 66.4516C53.5424 66.0075 53.499 65.662 53.434 65.4399ZM32.3447 67.1425C32.0304 70.0912 31.8787 71.6703 31.5753 74.6067C32.193 74.7177 32.4964 74.7794 33.1141 74.9028C32.7999 71.7567 32.659 70.1158 32.3555 67.1425H32.3447ZM95.0815 43.356L95.8726 46.1812L96.6421 43.356H95.0815ZM32.3447 67.1425C32.0304 70.0912 31.8787 71.6703 31.5753 74.6067C32.193 74.7177 32.4964 74.7794 33.1141 74.9028C32.7999 71.7567 32.659 70.1158 32.3555 67.1425H32.3447ZM53.434 65.4399C53.2389 64.7491 52.9463 64.3913 52.5345 64.3913C52.1769 64.3913 51.8951 64.675 51.6892 65.2672C51.5375 65.7484 51.4508 66.3159 51.4508 66.9821C51.4508 67.6483 52.0793 70.745 52.0793 70.745C52.101 70.745 52.2527 70.3626 52.3503 70.1528C52.4478 69.8938 52.5128 69.7704 52.6212 69.5113C52.7946 69.1042 52.8921 68.8944 53.0655 68.475C53.3798 67.7347 53.5424 67.0562 53.5424 66.4516C53.5424 66.0075 53.499 65.662 53.434 65.4399ZM51.7976 77.7774C51.7976 77.7774 51.505 78.567 51.3966 78.9618C51.1582 79.7884 51.0823 80.6273 51.0823 81.3552C51.0823 81.9844 51.169 82.5026 51.3316 82.9097C51.5266 83.3909 51.8084 83.65 52.1769 83.6993C52.5887 83.761 53.4773 83.0825 53.499 82.626C53.5315 81.9227 51.8084 77.7897 51.8084 77.7897L51.7976 77.7774ZM64.152 66.4146C63.9244 66.0198 63.6427 65.8224 63.3175 65.8224C62.9924 65.8224 62.7107 65.9951 62.4722 66.4023C62.2447 66.7847 62.1363 67.2659 62.1363 67.8581V82.1572C62.1363 82.7247 62.2447 83.1935 62.4722 83.5513C62.7107 83.9214 62.9924 84.0941 63.3175 84.0695C63.6318 84.0448 63.9244 83.8474 64.152 83.4526C64.3904 83.0701 64.4988 82.589 64.4988 82.0091V67.8828C64.4988 67.3029 64.3904 66.8217 64.152 66.4269V66.4146ZM95.0815 43.356L95.8726 46.1812L96.6421 43.356H95.0815ZM64.152 66.4146C63.9244 66.0198 63.6427 65.8224 63.3175 65.8224C62.9924 65.8224 62.7107 65.9951 62.4722 66.4023C62.2447 66.7847 62.1363 67.2659 62.1363 67.8581V82.1572C62.1363 82.7247 62.2447 83.1935 62.4722 83.5513C62.7107 83.9214 62.9924 84.0941 63.3175 84.0695C63.6318 84.0448 63.9244 83.8474 64.152 83.4526C64.3904 83.0701 64.4988 82.589 64.4988 82.0091V67.8828C64.4988 67.3029 64.3904 66.8217 64.152 66.4269V66.4146ZM51.7976 77.7774C51.7976 77.7774 51.505 78.567 51.3966 78.9618C51.1582 79.7884 51.0823 80.6273 51.0823 81.3552C51.0823 81.9844 51.169 82.5026 51.3316 82.9097C51.5266 83.3909 51.8084 83.65 52.1769 83.6993C52.5887 83.761 53.4773 83.0825 53.499 82.626C53.5315 81.9227 51.8084 77.7897 51.8084 77.7897L51.7976 77.7774ZM53.434 65.4399C53.2389 64.7491 52.9463 64.3913 52.5345 64.3913C52.1769 64.3913 51.8951 64.675 51.6892 65.2672C51.5375 65.7484 51.4508 66.3159 51.4508 66.9821C51.4508 67.6483 52.0793 70.745 52.0793 70.745C52.101 70.745 52.2527 70.3626 52.3503 70.1528C52.4478 69.8938 52.5128 69.7704 52.6212 69.5113C52.7946 69.1042 52.8921 68.8944 53.0655 68.475C53.3798 67.7347 53.5424 67.0562 53.5424 66.4516C53.5424 66.0075 53.499 65.662 53.434 65.4399ZM32.3447 67.1425C32.0304 70.0912 31.8787 71.6703 31.5753 74.6067C32.193 74.7177 32.4964 74.7794 33.1141 74.9028C32.7999 71.7567 32.659 70.1158 32.3555 67.1425H32.3447ZM95.0815 43.356L95.8726 46.1812L96.6421 43.356H95.0815ZM32.3447 67.1425C32.0304 70.0912 31.8787 71.6703 31.5753 74.6067C32.193 74.7177 32.4964 74.7794 33.1141 74.9028C32.7999 71.7567 32.659 70.1158 32.3555 67.1425H32.3447ZM53.434 65.4399C53.2389 64.7491 52.9463 64.3913 52.5345 64.3913C52.1769 64.3913 51.8951 64.675 51.6892 65.2672C51.5375 65.7484 51.4508 66.3159 51.4508 66.9821C51.4508 67.6483 52.0793 70.745 52.0793 70.745C52.101 70.745 52.2527 70.3626 52.3503 70.1528C52.4478 69.8938 52.5128 69.7704 52.6212 69.5113C52.7946 69.1042 52.8921 68.8944 53.0655 68.475C53.3798 67.7347 53.5424 67.0562 53.5424 66.4516C53.5424 66.0075 53.499 65.662 53.434 65.4399ZM51.7976 77.7774C51.7976 77.7774 51.505 78.567 51.3966 78.9618C51.1582 79.7884 51.0823 80.6273 51.0823 81.3552C51.0823 81.9844 51.169 82.5026 51.3316 82.9097C51.5266 83.3909 51.8084 83.65 52.1769 83.6993C52.5887 83.761 53.4773 83.0825 53.499 82.626C53.5315 81.9227 51.8084 77.7897 51.8084 77.7897L51.7976 77.7774ZM95.0815 43.356L95.8726 46.1812L96.6421 43.356H95.0815ZM51.7976 77.7774C51.7976 77.7774 51.505 78.567 51.3966 78.9618C51.1582 79.7884 51.0823 80.6273 51.0823 81.3552C51.0823 81.9844 51.169 82.5026 51.3316 82.9097C51.5266 83.3909 51.8084 83.65 52.1769 83.6993C52.5887 83.761 53.4773 83.0825 53.499 82.626C53.5315 81.9227 51.8084 77.7897 51.8084 77.7897L51.7976 77.7774ZM53.434 65.4399C53.2389 64.7491 52.9463 64.3913 52.5345 64.3913C52.1769 64.3913 51.8951 64.675 51.6892 65.2672C51.5375 65.7484 51.4508 66.3159 51.4508 66.9821C51.4508 67.6483 52.0793 70.745 52.0793 70.745C52.101 70.745 52.2527 70.3626 52.3503 70.1528C52.4478 69.8938 52.5128 69.7704 52.6212 69.5113C52.7946 69.1042 52.8921 68.8944 53.0655 68.475C53.3798 67.7347 53.5424 67.0562 53.5424 66.4516C53.5424 66.0075 53.499 65.662 53.434 65.4399ZM32.3447 67.1425C32.0304 70.0912 31.8787 71.6703 31.5753 74.6067C32.193 74.7177 32.4964 74.7794 33.1141 74.9028C32.7999 71.7567 32.659 70.1158 32.3555 67.1425H32.3447ZM95.0815 43.356L95.8726 46.1812L96.6421 43.356H95.0815ZM53.434 65.4399C53.2389 64.7491 52.9463 64.3913 52.5345 64.3913C52.1769 64.3913 51.8951 64.675 51.6892 65.2672C51.5375 65.7484 51.4508 66.3159 51.4508 66.9821C51.4508 67.6483 52.0793 70.745 52.0793 70.745C52.101 70.745 52.2527 70.3626 52.3503 70.1528C52.4478 69.8938 52.5128 69.7704 52.6212 69.5113C52.7946 69.1042 52.8921 68.8944 53.0655 68.475C53.3798 67.7347 53.5424 67.0562 53.5424 66.4516C53.5424 66.0075 53.499 65.662 53.434 65.4399ZM51.7976 77.7774C51.7976 77.7774 51.505 78.567 51.3966 78.9618C51.1582 79.7884 51.0823 80.6273 51.0823 81.3552C51.0823 81.9844 51.169 82.5026 51.3316 82.9097C51.5266 83.3909 51.8084 83.65 52.1769 83.6993C52.5887 83.761 53.4773 83.0825 53.499 82.626C53.5315 81.9227 51.8084 77.7897 51.8084 77.7897L51.7976 77.7774ZM95.0815 43.356L95.8726 46.1812L96.6421 43.356H95.0815ZM51.7976 77.7774C51.7976 77.7774 51.505 78.567 51.3966 78.9618C51.1582 79.7884 51.0823 80.6273 51.0823 81.3552C51.0823 81.9844 51.169 82.5026 51.3316 82.9097C51.5266 83.3909 51.8084 83.65 52.1769 83.6993C52.5887 83.761 53.4773 83.0825 53.499 82.626C53.5315 81.9227 51.8084 77.7897 51.8084 77.7897L51.7976 77.7774ZM53.434 65.4399C53.2389 64.7491 52.9463 64.3913 52.5345 64.3913C52.1769 64.3913 51.8951 64.675 51.6892 65.2672C51.5375 65.7484 51.4508 66.3159 51.4508 66.9821C51.4508 67.6483 52.0793 70.745 52.0793 70.745C52.101 70.745 52.2527 70.3626 52.3503 70.1528C52.4478 69.8938 52.5128 69.7704 52.6212 69.5113C52.7946 69.1042 52.8921 68.8944 53.0655 68.475C53.3798 67.7347 53.5424 67.0562 53.5424 66.4516C53.5424 66.0075 53.499 65.662 53.434 65.4399ZM95.0815 43.356L95.8726 46.1812L96.6421 43.356H95.0815ZM95.0815 43.356L95.8726 46.1812L96.6421 43.356H95.0815ZM95.0815 43.356L95.8726 46.1812L96.6421 43.356H95.0815ZM95.0815 43.356L95.8726 46.1812L96.6421 43.356H95.0815ZM95.0815 43.356L95.8726 46.1812L96.6421 43.356H95.0815ZM95.0815 43.356L95.8726 46.1812L96.6421 43.356H95.0815ZM95.0815 43.356L95.8726 46.1812L96.6421 43.356H95.0815ZM95.0815 43.356L95.8726 46.1812L96.6421 43.356H95.0815Z" fill="#4D4D4D"/>
<path d="M107.024 26.1206V14.6222C107.024 13.8079 106.461 13.006 105.778 12.8086L61.5944 0.347756C60.9008 0.150357 59.7954 0.150357 59.1018 0.347756L14.9184 12.8086C14.2248 13.006 13.6721 13.8202 13.6721 14.6222V26.281C5.62004 30.34 0.00634766 39.5314 0.00634766 50.2033C0.00634766 60.8752 5.62004 70.0789 13.6721 74.1502V85.8091C13.6721 86.611 14.2248 87.4253 14.9184 87.6104L59.091 100.071C59.7846 100.256 60.89 100.256 61.5836 100.071L105.767 87.6104C106.45 87.4253 107.013 86.5987 107.013 85.8091V74.3106C115.228 70.338 121.004 61.0356 121.004 50.2156C121.004 39.3957 115.239 30.118 107.013 26.1453L107.024 26.1206ZM106.201 72.0899L104.911 72.7068V85.365L61.0851 97.7271C60.9875 97.7517 60.7383 97.8011 60.3481 97.8011C60.023 97.8011 59.7521 97.7641 59.6112 97.7271L15.7854 85.365V72.5587L14.5283 71.9295C6.98553 68.1172 2.10877 59.5921 2.10877 50.191C2.10877 40.7898 6.98553 32.277 14.5283 28.4648L15.7854 27.8355V15.0416L59.6004 2.67953C59.8713 2.6055 60.7925 2.59317 61.0634 2.67953L104.911 15.054V27.7245L106.201 28.329C113.917 32.0673 118.902 40.6541 118.902 50.2033C118.902 59.7525 113.917 68.3516 106.201 72.0899Z" fill="#4D4D4D"/>
</g>
<defs>
<clipPath id="clip0_1_655">
<rect width="121.009" height="100.007" fill="white" transform="translate(0.00634766 0.199707)"/>
</clipPath>
</defs>
</svg>
