<svg width="136" height="121" viewBox="0 0 136 121" fill="none" xmlns="http://www.w3.org/2000/svg">
<g clip-path="url(#clip0_1_662)">
<path d="M50.3614 120.487C50.0167 120.487 49.7258 120.351 49.4888 120.078C49.2518 119.805 49.1333 119.47 49.1333 119.074V115.839C49.1333 115.442 49.2518 115.108 49.4996 114.835C49.7366 114.562 50.0275 114.426 50.3722 114.426C50.7169 114.426 51.0078 114.562 51.2448 114.847C51.4818 115.12 51.6003 115.455 51.6003 115.851V116.521H50.7923V115.826C50.7923 115.69 50.7492 115.566 50.6631 115.467C50.5769 115.368 50.4692 115.318 50.3507 115.318C50.2321 115.318 50.1244 115.368 50.0382 115.467C49.952 115.566 49.909 115.69 49.909 115.826V119.074C49.909 119.21 49.952 119.334 50.0382 119.433C50.1244 119.532 50.2321 119.582 50.3507 119.582C50.4692 119.582 50.5769 119.532 50.6631 119.433C50.7492 119.334 50.7923 119.21 50.7923 119.074V118.256H51.6003V119.086C51.6003 119.483 51.4818 119.818 51.234 120.09C50.997 120.363 50.7062 120.499 50.3722 120.499L50.3614 120.487Z" fill="#808080"/>
<path d="M53.4317 114.414C53.7764 114.414 54.0673 114.55 54.3043 114.835C54.5413 115.108 54.6598 115.442 54.6598 115.839V119.074C54.6598 119.471 54.5413 119.805 54.2935 120.078C54.0565 120.351 53.7657 120.487 53.4209 120.487C53.0762 120.487 52.7853 120.351 52.5483 120.078C52.3113 119.805 52.1928 119.471 52.1928 119.074V115.839C52.1928 115.442 52.3113 115.108 52.5591 114.835C52.7961 114.562 53.087 114.426 53.4209 114.426L53.4317 114.414ZM53.8626 115.814C53.8626 115.678 53.8195 115.554 53.7333 115.455C53.6472 115.356 53.5394 115.306 53.4209 115.306C53.3024 115.306 53.1947 115.356 53.1085 115.455C53.0223 115.554 52.9792 115.678 52.9792 115.814V119.062C52.9792 119.198 53.0223 119.322 53.1085 119.421C53.1947 119.52 53.3024 119.57 53.4209 119.57C53.5394 119.57 53.6472 119.52 53.7333 119.421C53.8195 119.322 53.8626 119.198 53.8626 119.062V115.814Z" fill="#808080"/>
<path d="M56.125 120.413H55.3493V114.488H56.4589L57.1807 118.752L57.8702 114.488H58.9367V120.413H58.1611V116.682L57.4824 120.413H56.8575L56.1034 116.694V120.413H56.125Z" fill="#808080"/>
<path d="M60.8759 114.488C61.2529 114.488 61.5546 114.624 61.7808 114.897C61.9855 115.157 62.0932 115.492 62.0932 115.901V116.756C62.0932 117.14 61.9747 117.475 61.7377 117.76C61.5007 118.033 61.2098 118.181 60.8759 118.181H60.4234V120.413H59.6478V114.488H60.8759ZM61.3391 115.913C61.3391 115.764 61.296 115.641 61.2206 115.541C61.1452 115.442 61.0375 115.405 60.8974 115.405H60.4234V117.301H60.8974C61.0159 117.301 61.1237 117.252 61.2099 117.153C61.296 117.054 61.3391 116.93 61.3391 116.793V115.926V115.913Z" fill="#808080"/>
<path d="M63.2136 119.049L63.0197 120.413H62.2117L63.0843 114.488H64.1509L65.0127 120.413H64.194L64.0108 119.049H63.2028H63.2136ZM63.623 115.839L63.3321 118.169H63.9031L63.6122 115.839H63.623Z" fill="#808080"/>
<path d="M66.5424 114.476L67.5766 118.454V114.476H68.3523V120.4H67.5228L66.4563 116.608V120.4H65.6806V114.476H66.5532H66.5424Z" fill="#808080"/>
<path d="M70.0114 117.934L68.9772 114.488H69.8282L70.3992 116.62L70.9702 114.488H71.832L70.787 117.934V120.413H70.0114V117.934Z" fill="#808080"/>
<path d="M73.7711 114.476L74.8054 118.454V114.476H75.581V120.4H74.7515L73.685 116.608V120.4H72.9093V114.476H73.7819H73.7711Z" fill="#808080"/>
<path d="M77.2293 119.049L77.0461 120.413H76.2382L77.1108 114.488H78.1773L79.0391 120.413H78.2204L78.0373 119.049H77.2293ZM77.6387 115.839L77.3478 118.169H77.9188L77.6279 115.839H77.6387Z" fill="#808080"/>
<path d="M80.4719 120.413H79.6963V114.488H80.8059L81.5277 118.752L82.2172 114.488H83.2837V120.413H82.508V116.682L81.8293 120.413H81.2045L80.4504 116.694V120.413H80.4719Z" fill="#808080"/>
<path d="M83.9839 120.413V114.488H86.1924V115.38H84.7596V116.992H85.8046V117.884H84.7596V119.495H86.1924V120.388H83.9839V120.413Z" fill="#808080"/>
<path d="M46.9248 116.682H40.8596V118.43H46.9248V116.682Z" fill="#808080"/>
<path d="M94.2506 116.682H88.1854V118.43H94.2506V116.682Z" fill="#808080"/>
<path d="M123.532 106.915L135.145 120.165H117.122V93.6646H135.145L123.532 106.915Z" fill="#4D4D4D"/>
<path d="M18.301 93.6646V120.165H0.266968L11.891 106.915L0.266968 93.6646H18.301Z" fill="#4D4D4D"/>
<path d="M40.8811 92.7101L40.1593 98.5233H41.5921L40.8811 92.7101ZM40.8811 92.7101L40.1593 98.5233H41.5921L40.8811 92.7101ZM40.8811 92.7101L40.1593 98.5233H41.5921L40.8811 92.7101ZM59.0659 98.4242C58.9474 98.6597 58.8182 98.8952 58.6997 99.1555C58.495 99.6884 58.398 100.197 58.398 100.655C58.398 101.064 58.4734 101.399 58.6242 101.659C58.8074 101.957 59.0767 102.118 59.4107 102.118C59.7985 102.118 60.2187 101.833 60.6496 101.263C60.1217 100.494 59.6046 99.5397 59.0659 98.4242ZM60.5957 91.0616C60.4341 90.5658 60.154 90.3179 59.7662 90.3179C59.4322 90.3179 59.1629 90.5286 58.9798 90.9501C58.8289 91.2723 58.7535 91.6566 58.7535 92.0904C58.7535 92.5242 58.9474 93.2803 59.346 94.371C59.4215 94.2471 59.5076 94.1355 59.5938 94.0116L59.8416 93.6273L60.251 93.0076C60.5526 92.549 60.7034 92.1276 60.7034 91.7309C60.7034 91.4459 60.6711 91.2227 60.5957 91.0616ZM60.5957 91.0616C60.4341 90.5658 60.154 90.3179 59.7662 90.3179C59.4322 90.3179 59.1629 90.5286 58.9798 90.9501C58.8289 91.2723 58.7535 91.6566 58.7535 92.0904C58.7535 92.5242 58.9474 93.2803 59.346 94.371C59.4215 94.2471 59.5076 94.1355 59.5938 94.0116L59.8416 93.6273L60.251 93.0076C60.5526 92.549 60.7034 92.1276 60.7034 91.7309C60.7034 91.4459 60.6711 91.2227 60.5957 91.0616ZM59.0659 98.4242C58.9474 98.6597 58.8182 98.8952 58.6997 99.1555C58.495 99.6884 58.398 100.197 58.398 100.655C58.398 101.064 58.4734 101.399 58.6242 101.659C58.8074 101.957 59.0767 102.118 59.4107 102.118C59.7985 102.118 60.2187 101.833 60.6496 101.263C60.1217 100.494 59.6046 99.5397 59.0659 98.4242ZM40.8811 92.7101L40.1593 98.5233H41.5921L40.8811 92.7101ZM40.8811 92.7101L40.1593 98.5233H41.5921L40.8811 92.7101ZM59.0659 98.4242C58.9474 98.6597 58.8182 98.8952 58.6997 99.1555C58.495 99.6884 58.398 100.197 58.398 100.655C58.398 101.064 58.4734 101.399 58.6242 101.659C58.8074 101.957 59.0767 102.118 59.4107 102.118C59.7985 102.118 60.2187 101.833 60.6496 101.263C60.1217 100.494 59.6046 99.5397 59.0659 98.4242ZM60.5957 91.0616C60.4341 90.5658 60.154 90.3179 59.7662 90.3179C59.4322 90.3179 59.1629 90.5286 58.9798 90.9501C58.8289 91.2723 58.7535 91.6566 58.7535 92.0904C58.7535 92.5242 58.9474 93.2803 59.346 94.371C59.4215 94.2471 59.5076 94.1355 59.5938 94.0116L59.8416 93.6273L60.251 93.0076C60.5526 92.549 60.7034 92.1276 60.7034 91.7309C60.7034 91.4459 60.6711 91.2227 60.5957 91.0616ZM70.6361 91.7309C70.4207 91.483 70.1513 91.3591 69.8497 91.3591C69.5481 91.3591 69.2787 91.483 69.0633 91.7309C68.8478 91.9788 68.7401 92.2763 68.7401 92.6234V100.692C68.7401 101.039 68.8478 101.349 69.0633 101.597C69.2787 101.833 69.5373 101.957 69.8497 101.957C70.1621 101.957 70.4207 101.833 70.6361 101.597C70.8408 101.349 70.9486 101.039 70.9486 100.692V92.6234C70.9486 92.2763 70.8408 91.9788 70.6361 91.7309ZM77.7679 91.607H76.6044V96.317H77.7679C78.0803 96.317 78.3388 96.1931 78.5543 95.9452C78.7697 95.6849 78.8775 95.3874 78.8775 95.0404V92.8837C78.8775 92.0284 78.5004 91.607 77.7679 91.607ZM77.7679 91.607H76.6044V96.317H77.7679C78.0803 96.317 78.3388 96.1931 78.5543 95.9452C78.7697 95.6849 78.8775 95.3874 78.8775 95.0404V92.8837C78.8775 92.0284 78.5004 91.607 77.7679 91.607ZM70.6361 91.7309C70.4207 91.483 70.1513 91.3591 69.8497 91.3591C69.5481 91.3591 69.2787 91.483 69.0633 91.7309C68.8478 91.9788 68.7401 92.2763 68.7401 92.6234V100.692C68.7401 101.039 68.8478 101.349 69.0633 101.597C69.2787 101.833 69.5373 101.957 69.8497 101.957C70.1621 101.957 70.4207 101.833 70.6361 101.597C70.8408 101.349 70.9486 101.039 70.9486 100.692V92.6234C70.9486 92.2763 70.8408 91.9788 70.6361 91.7309ZM60.5957 91.0616C60.4341 90.5658 60.154 90.3179 59.7662 90.3179C59.4322 90.3179 59.1629 90.5286 58.9798 90.9501C58.8289 91.2723 58.7535 91.6566 58.7535 92.0904C58.7535 92.5242 58.9474 93.2803 59.346 94.371C59.4215 94.2471 59.5076 94.1355 59.5938 94.0116L59.8416 93.6273L60.251 93.0076C60.5526 92.549 60.7034 92.1276 60.7034 91.7309C60.7034 91.4459 60.6711 91.2227 60.5957 91.0616ZM59.0659 98.4242C58.9474 98.6597 58.8182 98.8952 58.6997 99.1555C58.495 99.6884 58.398 100.197 58.398 100.655C58.398 101.064 58.4734 101.399 58.6242 101.659C58.8074 101.957 59.0767 102.118 59.4107 102.118C59.7985 102.118 60.2187 101.833 60.6496 101.263C60.1217 100.494 59.6046 99.5397 59.0659 98.4242ZM40.8811 92.7101L40.1593 98.5233H41.5921L40.8811 92.7101ZM40.8811 92.7101L40.1593 98.5233H41.5921L40.8811 92.7101ZM59.0659 98.4242C58.9474 98.6597 58.8182 98.8952 58.6997 99.1555C58.495 99.6884 58.398 100.197 58.398 100.655C58.398 101.064 58.4734 101.399 58.6242 101.659C58.8074 101.957 59.0767 102.118 59.4107 102.118C59.7985 102.118 60.2187 101.833 60.6496 101.263C60.1217 100.494 59.6046 99.5397 59.0659 98.4242ZM60.5957 91.0616C60.4341 90.5658 60.154 90.3179 59.7662 90.3179C59.4322 90.3179 59.1629 90.5286 58.9798 90.9501C58.8289 91.2723 58.7535 91.6566 58.7535 92.0904C58.7535 92.5242 58.9474 93.2803 59.346 94.371C59.4215 94.2471 59.5076 94.1355 59.5938 94.0116L59.8416 93.6273L60.251 93.0076C60.5526 92.549 60.7034 92.1276 60.7034 91.7309C60.7034 91.4459 60.6711 91.2227 60.5957 91.0616ZM70.6361 91.7309C70.4207 91.483 70.1513 91.3591 69.8497 91.3591C69.5481 91.3591 69.2787 91.483 69.0633 91.7309C68.8478 91.9788 68.7401 92.2763 68.7401 92.6234V100.692C68.7401 101.039 68.8478 101.349 69.0633 101.597C69.2787 101.833 69.5373 101.957 69.8497 101.957C70.1621 101.957 70.4207 101.833 70.6361 101.597C70.8408 101.349 70.9486 101.039 70.9486 100.692V92.6234C70.9486 92.2763 70.8408 91.9788 70.6361 91.7309ZM77.7679 91.607H76.6044V96.317H77.7679C78.0803 96.317 78.3388 96.1931 78.5543 95.9452C78.7697 95.6849 78.8775 95.3874 78.8775 95.0404V92.8837C78.8775 92.0284 78.5004 91.607 77.7679 91.607ZM86.6771 91.9664C86.4617 91.7185 86.2031 91.5946 85.9015 91.5946H84.738V101.87H85.9015C86.2139 101.87 86.4724 101.746 86.6771 101.486C86.8926 101.225 87.0003 100.928 87.0003 100.581V92.8713C87.0003 92.5242 86.8926 92.2143 86.6771 91.9664ZM86.6771 91.9664C86.4617 91.7185 86.2031 91.5946 85.9015 91.5946H84.738V101.87H85.9015C86.2139 101.87 86.4724 101.746 86.6771 101.486C86.8926 101.225 87.0003 100.928 87.0003 100.581V92.8713C87.0003 92.5242 86.8926 92.2143 86.6771 91.9664ZM77.7679 91.607H76.6044V96.317H77.7679C78.0803 96.317 78.3388 96.1931 78.5543 95.9452C78.7697 95.6849 78.8775 95.3874 78.8775 95.0404V92.8837C78.8775 92.0284 78.5004 91.607 77.7679 91.607ZM70.6361 91.7309C70.4207 91.483 70.1513 91.3591 69.8497 91.3591C69.5481 91.3591 69.2787 91.483 69.0633 91.7309C68.8478 91.9788 68.7401 92.2763 68.7401 92.6234V100.692C68.7401 101.039 68.8478 101.349 69.0633 101.597C69.2787 101.833 69.5373 101.957 69.8497 101.957C70.1621 101.957 70.4207 101.833 70.6361 101.597C70.8408 101.349 70.9486 101.039 70.9486 100.692V92.6234C70.9486 92.2763 70.8408 91.9788 70.6361 91.7309ZM59.5938 94.0116L59.8416 93.6273L60.251 93.0076C60.5526 92.549 60.7034 92.1276 60.7034 91.7309C60.7034 91.4459 60.6711 91.2227 60.5957 91.0616C60.4341 90.5658 60.154 90.3179 59.7662 90.3179C59.4322 90.3179 59.1629 90.5286 58.9798 90.9501C58.8289 91.2723 58.7535 91.6566 58.7535 92.0904C58.7535 92.5242 58.9474 93.2803 59.346 94.371C59.4215 94.2471 59.5076 94.1355 59.5938 94.0116ZM58.6997 99.1555C58.495 99.6884 58.398 100.197 58.398 100.655C58.398 101.064 58.4734 101.399 58.6242 101.659C58.8074 101.957 59.0767 102.118 59.4107 102.118C59.7985 102.118 60.2187 101.833 60.6496 101.263C60.1217 100.494 59.6046 99.5397 59.0659 98.4242C58.9474 98.6597 58.8182 98.8952 58.6997 99.1555ZM40.8811 92.7101L40.1593 98.5233H41.5921L40.8811 92.7101ZM20.6818 83.4512V109.951H114.741V83.4512H20.6818ZM36.0548 104.064H30.7868V89.3387H32.726V101.858H36.0548V104.064ZM42.3355 104.064L41.883 100.68H39.8577L39.3945 104.064H37.3799L39.556 89.3387H42.217L44.3608 104.064H42.3355ZM51.945 104.064H50.1028L49.004 95.9576L47.9805 104.064H46.1276L43.9838 89.3387H46.0091L47.0217 97.2219L47.9482 89.3387H49.9735L50.9862 97.2219L51.9234 89.3387H53.9488L51.945 104.064ZM64.1831 103.952C63.4398 103.952 62.6641 103.556 61.8669 102.775C61.102 103.704 60.2833 104.163 59.4107 104.163C58.4088 104.163 57.6331 103.68 57.1053 102.725C56.7713 102.118 56.5989 101.436 56.5989 100.655C56.5989 99.8744 56.7605 99.1059 57.0837 98.2754C57.1376 98.1515 57.3207 97.792 57.6224 97.1971C57.7947 96.8872 57.9671 96.5897 58.1395 96.2922L57.7409 95.2511C57.5469 94.7677 57.4177 94.4206 57.353 94.2099C57.213 93.8133 57.116 93.4538 57.0622 93.1316C56.9975 92.7845 56.976 92.4374 56.976 92.0904C56.976 91.4335 57.0945 90.8385 57.353 90.2807C57.6116 89.7106 57.9886 89.2768 58.4734 88.9793C58.8613 88.7438 59.2922 88.6198 59.7662 88.6198C60.2833 88.6198 60.7681 88.7686 61.199 89.066C61.6407 89.3759 61.9747 89.7849 62.2009 90.3179C62.384 90.7517 62.481 91.2227 62.481 91.7185C62.481 92.611 62.2117 93.4538 61.673 94.2471L61.2529 94.8668C60.8758 95.4494 60.5203 95.9824 60.1971 96.4782C60.628 97.5069 61.1128 98.4737 61.6515 99.3662C61.9747 98.5233 62.2224 97.6309 62.384 96.6765L64.14 97.1351C63.8276 98.6968 63.4182 100.023 62.8904 101.101C63.3859 101.634 63.8168 101.895 64.1831 101.895V103.952ZM72.9631 100.717C72.9631 101.696 72.6615 102.527 72.0689 103.209C71.4657 103.903 70.7439 104.237 69.9036 104.237C69.0633 104.237 68.3307 103.903 67.7382 103.209C67.1457 102.514 66.844 101.684 66.844 100.717V92.6729C66.844 91.6937 67.1457 90.8633 67.749 90.1692C68.3415 89.4875 69.0633 89.1404 69.9036 89.1404C70.7439 89.1404 71.4764 89.4875 72.0689 90.1816C72.6722 90.8757 72.9631 91.7061 72.9631 92.6729V100.717ZM79.0606 104.064L77.8971 98.5233H76.6044V104.064H74.676V89.3387H77.714C78.7913 89.3387 79.5885 89.6734 80.084 90.3551C80.5365 90.9501 80.752 91.7805 80.752 92.8465V94.9908C80.752 96.0319 80.4072 96.912 79.7178 97.6309L81.1506 104.064H79.0606ZM88.8748 100.544C88.8748 101.51 88.5839 102.341 87.9914 103.035C87.3989 103.717 86.6771 104.064 85.8476 104.064H82.8096V89.3263H85.8476C86.6879 89.3263 87.4097 89.661 87.9914 90.3551C88.5839 91.0492 88.8748 91.8673 88.8748 92.8341V100.544ZM96.0712 91.5574H92.5053V95.5733H95.1124V97.8168H92.5053V101.833H96.0712V104.064H90.577V89.3263H96.0712V91.5574ZM101.792 104.064L100.617 98.5233H99.3354V104.064H97.3963V89.3387H100.445C101.522 89.3387 102.309 89.6734 102.815 90.3551C103.257 90.9501 103.483 91.7805 103.483 92.8465V94.9908C103.483 96.0319 103.138 96.912 102.449 97.6309L103.882 104.064H101.792ZM100.499 91.607H99.3354V96.317H100.499C100.801 96.317 101.07 96.1931 101.275 95.9452C101.49 95.6849 101.598 95.3874 101.598 95.0404V92.8837C101.598 92.0284 101.231 91.607 100.499 91.607ZM85.9015 91.5946H84.738V101.87H85.9015C86.2139 101.87 86.4724 101.746 86.6771 101.486C86.8926 101.225 87.0003 100.928 87.0003 100.581V92.8713C87.0003 92.5242 86.8926 92.2143 86.6771 91.9664C86.4617 91.7185 86.2031 91.5946 85.9015 91.5946ZM77.7679 91.607H76.6044V96.317H77.7679C78.0803 96.317 78.3388 96.1931 78.5543 95.9452C78.7697 95.6849 78.8775 95.3874 78.8775 95.0404V92.8837C78.8775 92.0284 78.5004 91.607 77.7679 91.607ZM69.8497 91.3591C69.5373 91.3591 69.2787 91.483 69.0633 91.7309C68.8478 91.9788 68.7401 92.2763 68.7401 92.6234V100.692C68.7401 101.039 68.8478 101.349 69.0633 101.597C69.2787 101.833 69.5373 101.957 69.8497 101.957C70.1621 101.957 70.4207 101.833 70.6361 101.597C70.8408 101.349 70.9486 101.039 70.9486 100.692V92.6234C70.9486 92.2763 70.8408 91.9788 70.6361 91.7309C70.4207 91.483 70.1513 91.3591 69.8497 91.3591ZM59.5938 94.0116L59.8416 93.6273L60.251 93.0076C60.5526 92.549 60.7034 92.1276 60.7034 91.7309C60.7034 91.4459 60.6711 91.2227 60.5957 91.0616C60.4341 90.5658 60.154 90.3179 59.7662 90.3179C59.4322 90.3179 59.1629 90.5286 58.9798 90.9501C58.8289 91.2723 58.7535 91.6566 58.7535 92.0904C58.7535 92.5242 58.9474 93.2803 59.346 94.371C59.4215 94.2471 59.5076 94.1355 59.5938 94.0116ZM58.6997 99.1555C58.495 99.6884 58.398 100.197 58.398 100.655C58.398 101.064 58.4734 101.399 58.6242 101.659C58.8074 101.957 59.0767 102.118 59.4107 102.118C59.7985 102.118 60.2187 101.833 60.6496 101.263C60.1217 100.494 59.6046 99.5397 59.0659 98.4242C58.9474 98.6597 58.8182 98.8952 58.6997 99.1555ZM40.1593 98.5233H41.5921L40.8811 92.7101L40.1593 98.5233ZM40.8811 92.7101L40.1593 98.5233H41.5921L40.8811 92.7101ZM59.0659 98.4242C58.9474 98.6597 58.8182 98.8952 58.6997 99.1555C58.495 99.6884 58.398 100.197 58.398 100.655C58.398 101.064 58.4734 101.399 58.6242 101.659C58.8074 101.957 59.0767 102.118 59.4107 102.118C59.7985 102.118 60.2187 101.833 60.6496 101.263C60.1217 100.494 59.6046 99.5397 59.0659 98.4242ZM60.5957 91.0616C60.4341 90.5658 60.154 90.3179 59.7662 90.3179C59.4322 90.3179 59.1629 90.5286 58.9798 90.9501C58.8289 91.2723 58.7535 91.6566 58.7535 92.0904C58.7535 92.5242 58.9474 93.2803 59.346 94.371C59.4215 94.2471 59.5076 94.1355 59.5938 94.0116L59.8416 93.6273L60.251 93.0076C60.5526 92.549 60.7034 92.1276 60.7034 91.7309C60.7034 91.4459 60.6711 91.2227 60.5957 91.0616ZM70.6361 91.7309C70.4207 91.483 70.1513 91.3591 69.8497 91.3591C69.5481 91.3591 69.2787 91.483 69.0633 91.7309C68.8478 91.9788 68.7401 92.2763 68.7401 92.6234V100.692C68.7401 101.039 68.8478 101.349 69.0633 101.597C69.2787 101.833 69.5373 101.957 69.8497 101.957C70.1621 101.957 70.4207 101.833 70.6361 101.597C70.8408 101.349 70.9486 101.039 70.9486 100.692V92.6234C70.9486 92.2763 70.8408 91.9788 70.6361 91.7309ZM77.7679 91.607H76.6044V96.317H77.7679C78.0803 96.317 78.3388 96.1931 78.5543 95.9452C78.7697 95.6849 78.8775 95.3874 78.8775 95.0404V92.8837C78.8775 92.0284 78.5004 91.607 77.7679 91.607ZM86.6771 91.9664C86.4617 91.7185 86.2031 91.5946 85.9015 91.5946H84.738V101.87H85.9015C86.2139 101.87 86.4724 101.746 86.6771 101.486C86.8926 101.225 87.0003 100.928 87.0003 100.581V92.8713C87.0003 92.5242 86.8926 92.2143 86.6771 91.9664ZM86.6771 91.9664C86.4617 91.7185 86.2031 91.5946 85.9015 91.5946H84.738V101.87H85.9015C86.2139 101.87 86.4724 101.746 86.6771 101.486C86.8926 101.225 87.0003 100.928 87.0003 100.581V92.8713C87.0003 92.5242 86.8926 92.2143 86.6771 91.9664ZM77.7679 91.607H76.6044V96.317H77.7679C78.0803 96.317 78.3388 96.1931 78.5543 95.9452C78.7697 95.6849 78.8775 95.3874 78.8775 95.0404V92.8837C78.8775 92.0284 78.5004 91.607 77.7679 91.607ZM70.6361 91.7309C70.4207 91.483 70.1513 91.3591 69.8497 91.3591C69.5481 91.3591 69.2787 91.483 69.0633 91.7309C68.8478 91.9788 68.7401 92.2763 68.7401 92.6234V100.692C68.7401 101.039 68.8478 101.349 69.0633 101.597C69.2787 101.833 69.5373 101.957 69.8497 101.957C70.1621 101.957 70.4207 101.833 70.6361 101.597C70.8408 101.349 70.9486 101.039 70.9486 100.692V92.6234C70.9486 92.2763 70.8408 91.9788 70.6361 91.7309ZM60.5957 91.0616C60.4341 90.5658 60.154 90.3179 59.7662 90.3179C59.4322 90.3179 59.1629 90.5286 58.9798 90.9501C58.8289 91.2723 58.7535 91.6566 58.7535 92.0904C58.7535 92.5242 58.9474 93.2803 59.346 94.371C59.4215 94.2471 59.5076 94.1355 59.5938 94.0116L59.8416 93.6273L60.251 93.0076C60.5526 92.549 60.7034 92.1276 60.7034 91.7309C60.7034 91.4459 60.6711 91.2227 60.5957 91.0616ZM59.0659 98.4242C58.9474 98.6597 58.8182 98.8952 58.6997 99.1555C58.495 99.6884 58.398 100.197 58.398 100.655C58.398 101.064 58.4734 101.399 58.6242 101.659C58.8074 101.957 59.0767 102.118 59.4107 102.118C59.7985 102.118 60.2187 101.833 60.6496 101.263C60.1217 100.494 59.6046 99.5397 59.0659 98.4242ZM40.8811 92.7101L40.1593 98.5233H41.5921L40.8811 92.7101ZM40.8811 92.7101L40.1593 98.5233H41.5921L40.8811 92.7101ZM59.0659 98.4242C58.9474 98.6597 58.8182 98.8952 58.6997 99.1555C58.495 99.6884 58.398 100.197 58.398 100.655C58.398 101.064 58.4734 101.399 58.6242 101.659C58.8074 101.957 59.0767 102.118 59.4107 102.118C59.7985 102.118 60.2187 101.833 60.6496 101.263C60.1217 100.494 59.6046 99.5397 59.0659 98.4242ZM60.5957 91.0616C60.4341 90.5658 60.154 90.3179 59.7662 90.3179C59.4322 90.3179 59.1629 90.5286 58.9798 90.9501C58.8289 91.2723 58.7535 91.6566 58.7535 92.0904C58.7535 92.5242 58.9474 93.2803 59.346 94.371C59.4215 94.2471 59.5076 94.1355 59.5938 94.0116L59.8416 93.6273L60.251 93.0076C60.5526 92.549 60.7034 92.1276 60.7034 91.7309C60.7034 91.4459 60.6711 91.2227 60.5957 91.0616ZM70.6361 91.7309C70.4207 91.483 70.1513 91.3591 69.8497 91.3591C69.5481 91.3591 69.2787 91.483 69.0633 91.7309C68.8478 91.9788 68.7401 92.2763 68.7401 92.6234V100.692C68.7401 101.039 68.8478 101.349 69.0633 101.597C69.2787 101.833 69.5373 101.957 69.8497 101.957C70.1621 101.957 70.4207 101.833 70.6361 101.597C70.8408 101.349 70.9486 101.039 70.9486 100.692V92.6234C70.9486 92.2763 70.8408 91.9788 70.6361 91.7309ZM70.6361 91.7309C70.4207 91.483 70.1513 91.3591 69.8497 91.3591C69.5481 91.3591 69.2787 91.483 69.0633 91.7309C68.8478 91.9788 68.7401 92.2763 68.7401 92.6234V100.692C68.7401 101.039 68.8478 101.349 69.0633 101.597C69.2787 101.833 69.5373 101.957 69.8497 101.957C70.1621 101.957 70.4207 101.833 70.6361 101.597C70.8408 101.349 70.9486 101.039 70.9486 100.692V92.6234C70.9486 92.2763 70.8408 91.9788 70.6361 91.7309ZM60.5957 91.0616C60.4341 90.5658 60.154 90.3179 59.7662 90.3179C59.4322 90.3179 59.1629 90.5286 58.9798 90.9501C58.8289 91.2723 58.7535 91.6566 58.7535 92.0904C58.7535 92.5242 58.9474 93.2803 59.346 94.371C59.4215 94.2471 59.5076 94.1355 59.5938 94.0116L59.8416 93.6273L60.251 93.0076C60.5526 92.549 60.7034 92.1276 60.7034 91.7309C60.7034 91.4459 60.6711 91.2227 60.5957 91.0616ZM59.0659 98.4242C58.9474 98.6597 58.8182 98.8952 58.6997 99.1555C58.495 99.6884 58.398 100.197 58.398 100.655C58.398 101.064 58.4734 101.399 58.6242 101.659C58.8074 101.957 59.0767 102.118 59.4107 102.118C59.7985 102.118 60.2187 101.833 60.6496 101.263C60.1217 100.494 59.6046 99.5397 59.0659 98.4242ZM40.8811 92.7101L40.1593 98.5233H41.5921L40.8811 92.7101ZM40.8811 92.7101L40.1593 98.5233H41.5921L40.8811 92.7101ZM40.8811 92.7101L40.1593 98.5233H41.5921L40.8811 92.7101Z" fill="#4D4D4D"/>
<path d="M118.705 64.1028C118.705 64.016 118.695 63.9169 118.641 63.8177L104.679 33.1776C104.84 33.0661 105.002 32.9669 105.164 32.843C105.616 33.1529 106.133 33.3264 106.693 33.3264C108.385 33.3264 109.753 31.7522 109.753 29.831C109.753 27.9098 108.385 26.3109 106.693 26.3109C105.002 26.3109 103.655 27.885 103.655 29.831C103.655 30.0046 103.666 30.1781 103.677 30.3392C100.833 32.0745 98.0966 33.0661 94.6815 33.2148C90.6416 33.376 87.3667 31.0829 84.0163 28.7031C81.5923 26.9926 78.8021 25.3565 75.9365 24.1294C76.0658 24.8111 76.1412 25.53 76.1412 26.2613C76.1412 27.6619 75.8826 28.9882 75.4302 30.1781C78.4574 31.4548 81.4092 33.2024 84.027 34.8509C87.539 37.0944 91.7082 37.8257 94.4661 37.5282C96.9331 37.2432 99.3785 36.2887 101.813 34.9377L88.6486 63.8177C88.6056 63.9045 88.584 64.016 88.584 64.1028H87.0542V67.0652H89.1227C91.3742 73.7832 97.0193 78.5428 103.655 78.5428C110.292 78.5428 115.947 73.7832 118.167 67.0652H120.257V64.1028H118.705ZM103.128 64.1028H89.7152L103.128 34.7022V64.1028ZM104.183 64.1028V34.665L117.596 64.1028H104.183Z" fill="#4D4D4D"/>
<path d="M51.137 34.8509C53.7441 33.2024 56.7067 31.4548 59.7123 30.1781C59.2707 28.9882 59.0121 27.6619 59.0121 26.2613C59.0121 25.53 59.0875 24.8111 59.2168 24.1294C56.3512 25.3565 53.5502 26.9802 51.137 28.7031C47.7974 31.0829 44.5009 33.376 40.4718 33.2148C37.1645 33.0785 34.4928 32.1241 31.7564 30.5004C31.7995 30.2896 31.8211 30.0665 31.8211 29.831C31.8211 27.885 30.4529 26.3109 28.7831 26.3109C27.1133 26.3109 25.7235 27.885 25.7235 29.831C25.7235 31.777 27.0917 33.3264 28.7831 33.3264C29.2894 33.3264 29.7634 33.19 30.1728 32.9421C30.3667 33.0785 30.5499 33.2024 30.7438 33.3264L16.8466 63.8177C16.8035 63.9045 16.782 64.016 16.782 64.1028H15.2307V67.0652H17.2991C19.5506 73.7832 25.2172 78.5428 31.8318 78.5428C38.4465 78.5428 44.1238 73.7832 46.3646 67.0652H48.433V64.1028H46.8817C46.8817 64.016 46.8709 63.9169 46.8171 63.8177L33.7602 35.1484C36.0764 36.3879 38.3818 37.2679 40.7088 37.5282C43.4559 37.8257 47.6143 37.0944 51.1478 34.8509H51.137ZM31.2932 64.1028H17.8808L31.2932 34.665V64.1028ZM45.7505 64.1028H32.3489V34.7022L45.7505 64.1028Z" fill="#4D4D4D"/>
<path d="M71.4549 20.5474V14.2756C72.5537 14.1641 73.4048 13.1105 73.4048 11.8339C73.4048 10.5572 72.6615 9.61518 71.638 9.41686C72.2521 8.48724 72.5968 7.32213 72.5968 6.05785C72.5968 2.87238 70.3453 0.306641 67.5766 0.306641C64.808 0.306641 62.5779 2.87238 62.5779 6.05785C62.5779 7.32213 62.9227 8.48724 63.5152 9.41686C62.5133 9.61518 61.7592 10.6316 61.7592 11.8339C61.7592 13.1105 62.6103 14.1641 63.7199 14.2756V20.5474C62.244 21.8861 61.296 23.9436 61.296 26.2615C61.296 28.5793 62.244 30.6492 63.7199 31.9755V80.9724H71.4549V31.9755C72.9308 30.6492 73.8788 28.5917 73.8788 26.2615C73.8788 23.9312 72.9308 21.8861 71.4549 20.5474ZM67.5766 29.794C65.896 29.794 64.5063 28.2199 64.5063 26.2615C64.5063 24.3031 65.896 22.7165 67.5766 22.7165C69.2572 22.7165 70.6577 24.3155 70.6577 26.2615C70.6577 28.2075 69.2787 29.794 67.5766 29.794Z" fill="#4D4D4D"/>
</g>
<defs>
<clipPath id="clip0_1_662">
<rect width="134.878" height="120.181" fill="white" transform="translate(0.266968 0.306641)"/>
</clipPath>
</defs>
</svg>
