<svg width="82" height="100" viewBox="0 0 82 100" fill="none" xmlns="http://www.w3.org/2000/svg">
<g style="mix-blend-mode:multiply" opacity="0.16">
<path d="M46.164 4.14945L42.8636 0.269934L41.2505 0.0107422L39.7937 0.679624V0.955538C39.7937 0.955538 39.8102 0.955538 39.8266 0.955538L41.7196 0.64618L42.9048 0.955538L45.522 4.12436L46.5673 10.3282L46.164 4.14109V4.14945Z" fill="#8C9B9F"/>
</g>
<path d="M37.9829 0.0610352L37.6702 2.20982C36.9048 2.6864 36.271 3.42217 35.8183 4.32516L34.7813 4.8519L34.164 9.56752L34.485 11.9002L35.4068 12.8534L34.1723 12.2932L33.02 10.3367L33.4233 4.14957L36.7155 0.270061L37.9912 0.0693962L37.9829 0.0610352Z" fill="white"/>
<path d="M16.9298 64.056C16.9298 64.8085 16.6746 65.4439 16.1561 65.9623C15.6376 66.4807 15.0121 66.7399 14.2796 66.7399C13.8516 66.7399 13.5059 66.6981 13.2426 66.6061L13.4812 65.0175C13.6705 65.051 13.8351 65.0677 13.9668 65.0677C14.0491 65.0677 14.1644 65.0677 14.3207 65.0593C14.5923 65.0426 14.8228 64.9423 15.0121 64.7583C15.1931 64.5744 15.2919 64.357 15.2919 64.0811V55.3354H16.9298V64.0393V64.056Z" fill="#808080"/>
<path d="M20.0984 63.0361V66.6146H18.4194V55.3188H20.0984V59.3405L22.1478 55.3188H23.9338L21.6375 59.9258L24.3288 66.6146H22.3618L20.6005 62.0327L20.0984 63.0361Z" fill="#808080"/>
<path d="M59.6618 64.056C59.6618 64.8085 59.4067 65.4439 58.8882 65.9623C58.3696 66.4807 57.7441 66.7399 57.0116 66.7399C56.5837 66.7399 56.238 66.6981 55.9746 66.6061L56.2133 65.0175C56.4026 65.051 56.5672 65.0677 56.6989 65.0677C56.7812 65.0677 56.8964 65.0677 57.0528 65.0593C57.3244 65.0426 57.5548 64.9423 57.7359 64.7583C57.9252 64.5744 58.0157 64.357 58.0157 64.0811V55.3354H59.6536V64.0393L59.6618 64.056Z" fill="#808080"/>
<path d="M62.7894 57.0412H61.0116V55.3271H66.2379V57.0412H64.4683V66.6145H62.7894V57.0412Z" fill="#808080"/>
<path d="M73.711 90.7946L75.3076 97.8346C72.1719 95.5018 68.7563 93.4701 65.1102 91.7979L67.3571 91.1541L68.855 90.7277L69.3571 88.6124L70.6246 83.3198C73.5217 84.8917 76.2788 86.6893 78.8549 88.6876L73.711 90.7946Z" fill="#808080"/>
<path d="M65.3407 90.0757L62.8058 90.7947C63.0774 90.2763 63.3161 89.7412 63.5465 89.1978C64.1556 89.4737 64.7482 89.7747 65.3407 90.0757Z" fill="#808080"/>
<path d="M4.50188 97.8263L6.1068 90.7863L0.95459 88.671C3.53069 86.6727 6.27963 84.8751 9.17672 83.3032L10.4524 88.6041L10.9627 90.7111L12.4689 91.1459L14.7075 91.7897C11.0615 93.4535 7.64587 95.4852 4.50188 97.8263Z" fill="#808080"/>
<path d="M17.0038 90.7863L14.4854 90.0673C15.0697 89.7747 15.6623 89.482 16.2631 89.1978C16.5018 89.7412 16.7405 90.268 17.0038 90.7863Z" fill="#808080"/>
<path d="M23.4482 79.8082C23.4235 79.1142 23.5387 78.2363 23.9091 78.1276C24.1231 78.0691 24.2136 78.3115 24.2547 78.4537C24.37 78.9553 24.0737 79.6409 23.4399 79.8082H23.4482Z" fill="#808080"/>
<path d="M27.1683 78.6627C26.9708 78.7129 26.8474 78.5707 26.8144 78.4035C26.7733 78.1945 26.8474 77.952 27.0202 77.8349C26.9461 77.6092 26.8474 77.4921 26.6498 77.5339C25.9996 77.6677 26.0161 79.1894 26.1395 79.758C26.2301 80.1844 26.4358 80.2596 26.7157 80.2011C27.1436 80.1091 27.2342 79.3734 27.1683 78.6627ZM27.1683 78.6627C26.9708 78.7129 26.8474 78.5707 26.8144 78.4035C26.7733 78.1945 26.8474 77.952 27.0202 77.8349C26.9461 77.6092 26.8474 77.4921 26.6498 77.5339C25.9996 77.6677 26.0161 79.1894 26.1395 79.758C26.2301 80.1844 26.4358 80.2596 26.7157 80.2011C27.1436 80.1091 27.2342 79.3734 27.1683 78.6627ZM27.1683 78.6627C26.9708 78.7129 26.8474 78.5707 26.8144 78.4035C26.7733 78.1945 26.8474 77.952 27.0202 77.8349C26.9461 77.6092 26.8474 77.4921 26.6498 77.5339C25.9996 77.6677 26.0161 79.1894 26.1395 79.758C26.2301 80.1844 26.4358 80.2596 26.7157 80.2011C27.1436 80.1091 27.2342 79.3734 27.1683 78.6627ZM30.1477 77.4503C30.0737 77.0156 29.8926 76.957 29.6786 76.9905C29.5469 77.0072 29.4152 77.0908 29.3 77.1995L29.1683 79.6995C29.3576 79.7998 29.5305 79.7747 29.6374 79.758C29.9914 79.6995 30.1066 79.365 30.1642 78.1861C30.1807 77.86 30.1642 77.6092 30.1477 77.442V77.4503ZM30.1477 77.4503C30.0737 77.0156 29.8926 76.957 29.6786 76.9905C29.5469 77.0072 29.4152 77.0908 29.3 77.1995L29.1683 79.6995C29.3576 79.7998 29.5305 79.7747 29.6374 79.758C29.9914 79.6995 30.1066 79.365 30.1642 78.1861C30.1807 77.86 30.1642 77.6092 30.1477 77.442V77.4503ZM27.1683 78.6627C26.9708 78.7129 26.8474 78.5707 26.8144 78.4035C26.7733 78.1945 26.8474 77.952 27.0202 77.8349C26.9461 77.6092 26.8474 77.4921 26.6498 77.5339C25.9996 77.6677 26.0161 79.1894 26.1395 79.758C26.2301 80.1844 26.4358 80.2596 26.7157 80.2011C27.1436 80.1091 27.2342 79.3734 27.1683 78.6627ZM27.1683 78.6627C26.9708 78.7129 26.8474 78.5707 26.8144 78.4035C26.7733 78.1945 26.8474 77.952 27.0202 77.8349C26.9461 77.6092 26.8474 77.4921 26.6498 77.5339C25.9996 77.6677 26.0161 79.1894 26.1395 79.758C26.2301 80.1844 26.4358 80.2596 26.7157 80.2011C27.1436 80.1091 27.2342 79.3734 27.1683 78.6627ZM30.1477 77.4503C30.0737 77.0156 29.8926 76.957 29.6786 76.9905C29.5469 77.0072 29.4152 77.0908 29.3 77.1995L29.1683 79.6995C29.3576 79.7998 29.5305 79.7747 29.6374 79.758C29.9914 79.6995 30.1066 79.365 30.1642 78.1861C30.1807 77.86 30.1642 77.6092 30.1477 77.442V77.4503ZM35.0119 76.3467C34.6086 76.3718 34.3534 77.2162 34.2547 77.9186C34.8966 77.86 35.3164 77.258 35.2835 76.7313C35.267 76.5808 35.2176 76.33 35.0119 76.3467ZM39.2752 76.2714C38.7402 76.2714 38.3205 77.442 38.3287 78.4286C38.3287 78.8717 38.5756 78.947 38.7485 78.947C38.9131 78.947 39.0694 78.7797 39.2011 78.5707C39.2011 78.4955 39.2258 78.4202 39.2505 78.3282L39.6291 76.3885C39.5221 76.2965 39.374 76.2631 39.2834 76.2631L39.2752 76.2714ZM39.2752 76.2714C38.7402 76.2714 38.3205 77.442 38.3287 78.4286C38.3287 78.8717 38.5756 78.947 38.7485 78.947C38.9131 78.947 39.0694 78.7797 39.2011 78.5707C39.2011 78.4955 39.2258 78.4202 39.2505 78.3282L39.6291 76.3885C39.5221 76.2965 39.374 76.2631 39.2834 76.2631L39.2752 76.2714ZM35.0119 76.3467C34.6086 76.3718 34.3534 77.2162 34.2547 77.9186C34.8966 77.86 35.3164 77.258 35.2835 76.7313C35.267 76.5808 35.2176 76.33 35.0119 76.3467ZM30.1477 77.4503C30.0737 77.0156 29.8926 76.957 29.6786 76.9905C29.5469 77.0072 29.4152 77.0908 29.3 77.1995L29.1683 79.6995C29.3576 79.7998 29.5305 79.7747 29.6374 79.758C29.9914 79.6995 30.1066 79.365 30.1642 78.1861C30.1807 77.86 30.1642 77.6092 30.1477 77.442V77.4503ZM27.1683 78.6627C26.9708 78.7129 26.8474 78.5707 26.8144 78.4035C26.7733 78.1945 26.8474 77.952 27.0202 77.8349C26.9461 77.6092 26.8474 77.4921 26.6498 77.5339C25.9996 77.6677 26.0161 79.1894 26.1395 79.758C26.2301 80.1844 26.4358 80.2596 26.7157 80.2011C27.1436 80.1091 27.2342 79.3734 27.1683 78.6627ZM27.1683 78.6627C26.9708 78.7129 26.8474 78.5707 26.8144 78.4035C26.7733 78.1945 26.8474 77.952 27.0202 77.8349C26.9461 77.6092 26.8474 77.4921 26.6498 77.5339C25.9996 77.6677 26.0161 79.1894 26.1395 79.758C26.2301 80.1844 26.4358 80.2596 26.7157 80.2011C27.1436 80.1091 27.2342 79.3734 27.1683 78.6627ZM30.1477 77.4503C30.0737 77.0156 29.8926 76.957 29.6786 76.9905C29.5469 77.0072 29.4152 77.0908 29.3 77.1995L29.1683 79.6995C29.3576 79.7998 29.5305 79.7747 29.6374 79.758C29.9914 79.6995 30.1066 79.365 30.1642 78.1861C30.1807 77.86 30.1642 77.6092 30.1477 77.442V77.4503ZM35.0119 76.3467C34.6086 76.3718 34.3534 77.2162 34.2547 77.9186C34.8966 77.86 35.3164 77.258 35.2835 76.7313C35.267 76.5808 35.2176 76.33 35.0119 76.3467ZM39.2752 76.2714C38.7402 76.2714 38.3205 77.442 38.3287 78.4286C38.3287 78.8717 38.5756 78.947 38.7485 78.947C38.9131 78.947 39.0694 78.7797 39.2011 78.5707C39.2011 78.4955 39.2258 78.4202 39.2505 78.3282L39.6291 76.3885C39.5221 76.2965 39.374 76.2631 39.2834 76.2631L39.2752 76.2714ZM46.592 76.6059C46.057 76.5473 45.5303 77.6594 45.4233 78.6543C45.3821 79.0891 45.6126 79.1894 45.7854 79.2062C45.95 79.2229 46.1146 79.0807 46.2628 78.8968C46.2792 78.8132 46.3039 78.7463 46.3368 78.6543L46.9212 76.7647C46.8224 76.656 46.6825 76.6142 46.592 76.6059ZM46.592 76.6059C46.057 76.5473 45.5303 77.6594 45.4233 78.6543C45.3821 79.0891 45.6126 79.1894 45.7854 79.2062C45.95 79.2229 46.1146 79.0807 46.2628 78.8968C46.2792 78.8132 46.3039 78.7463 46.3368 78.6543L46.9212 76.7647C46.8224 76.656 46.6825 76.6142 46.592 76.6059ZM39.2752 76.2714C38.7402 76.2714 38.3205 77.442 38.3287 78.4286C38.3287 78.8717 38.5756 78.947 38.7485 78.947C38.9131 78.947 39.0694 78.7797 39.2011 78.5707C39.2011 78.4955 39.2258 78.4202 39.2505 78.3282L39.6291 76.3885C39.5221 76.2965 39.374 76.2631 39.2834 76.2631L39.2752 76.2714ZM35.0119 76.3467C34.6086 76.3718 34.3534 77.2162 34.2547 77.9186C34.8966 77.86 35.3164 77.258 35.2835 76.7313C35.267 76.5808 35.2176 76.33 35.0119 76.3467ZM30.1477 77.4503C30.0737 77.0156 29.8926 76.957 29.6786 76.9905C29.5469 77.0072 29.4152 77.0908 29.3 77.1995L29.1683 79.6995C29.3576 79.7998 29.5305 79.7747 29.6374 79.758C29.9914 79.6995 30.1066 79.365 30.1642 78.1861C30.1807 77.86 30.1642 77.6092 30.1477 77.442V77.4503ZM27.1683 78.6627C26.9708 78.7129 26.8474 78.5707 26.8144 78.4035C26.7733 78.1945 26.8474 77.952 27.0202 77.8349C26.9461 77.6092 26.8474 77.4921 26.6498 77.5339C25.9996 77.6677 26.0161 79.1894 26.1395 79.758C26.2301 80.1844 26.4358 80.2596 26.7157 80.2011C27.1436 80.1091 27.2342 79.3734 27.1683 78.6627ZM27.1683 78.6627C26.9708 78.7129 26.8474 78.5707 26.8144 78.4035C26.7733 78.1945 26.8474 77.952 27.0202 77.8349C26.9461 77.6092 26.8474 77.4921 26.6498 77.5339C25.9996 77.6677 26.0161 79.1894 26.1395 79.758C26.2301 80.1844 26.4358 80.2596 26.7157 80.2011C27.1436 80.1091 27.2342 79.3734 27.1683 78.6627ZM30.1477 77.4503C30.0737 77.0156 29.8926 76.957 29.6786 76.9905C29.5469 77.0072 29.4152 77.0908 29.3 77.1995L29.1683 79.6995C29.3576 79.7998 29.5305 79.7747 29.6374 79.758C29.9914 79.6995 30.1066 79.365 30.1642 78.1861C30.1807 77.86 30.1642 77.6092 30.1477 77.442V77.4503ZM35.0119 76.3467C34.6086 76.3718 34.3534 77.2162 34.2547 77.9186C34.8966 77.86 35.3164 77.258 35.2835 76.7313C35.267 76.5808 35.2176 76.33 35.0119 76.3467ZM39.2752 76.2714C38.7402 76.2714 38.3205 77.442 38.3287 78.4286C38.3287 78.8717 38.5756 78.947 38.7485 78.947C38.9131 78.947 39.0694 78.7797 39.2011 78.5707C39.2011 78.4955 39.2258 78.4202 39.2505 78.3282L39.6291 76.3885C39.5221 76.2965 39.374 76.2631 39.2834 76.2631L39.2752 76.2714ZM46.592 76.6059C46.057 76.5473 45.5303 77.6594 45.4233 78.6543C45.3821 79.0891 45.6126 79.1894 45.7854 79.2062C45.95 79.2229 46.1146 79.0807 46.2628 78.8968C46.2792 78.8132 46.3039 78.7463 46.3368 78.6543L46.9212 76.7647C46.8224 76.656 46.6825 76.6142 46.592 76.6059ZM54.3615 77.8684C53.8429 77.7597 53.1763 78.7881 52.9623 79.758C52.8718 80.1844 53.0775 80.3098 53.2504 80.3516C53.4067 80.3934 53.596 80.268 53.7689 80.1008C53.7936 80.0255 53.8265 79.9586 53.8676 79.8667L54.6742 78.0774C54.5837 77.9604 54.4602 77.8935 54.3697 77.8684H54.3615ZM54.3615 77.8684C53.8429 77.7597 53.1763 78.7881 52.9623 79.758C52.8718 80.1844 53.0775 80.3098 53.2504 80.3516C53.4067 80.3934 53.596 80.268 53.7689 80.1008C53.7936 80.0255 53.8265 79.9586 53.8676 79.8667L54.6742 78.0774C54.5837 77.9604 54.4602 77.8935 54.3697 77.8684H54.3615ZM46.592 76.6059C46.057 76.5473 45.5303 77.6594 45.4233 78.6543C45.3821 79.0891 45.6126 79.1894 45.7854 79.2062C45.95 79.2229 46.1146 79.0807 46.2628 78.8968C46.2792 78.8132 46.3039 78.7463 46.3368 78.6543L46.9212 76.7647C46.8224 76.656 46.6825 76.6142 46.592 76.6059ZM38.3287 78.4286C38.3287 78.8717 38.5756 78.947 38.7485 78.947C38.9131 78.947 39.0694 78.7797 39.2011 78.5707C39.2011 78.4955 39.2258 78.4202 39.2505 78.3282L39.6291 76.3885C39.5221 76.2965 39.374 76.2631 39.2834 76.2631C38.7485 76.2631 38.3287 77.4336 38.3369 78.4202L38.3287 78.4286ZM35.0119 76.3467C34.6086 76.3718 34.3534 77.2162 34.2547 77.9186C34.8966 77.86 35.3164 77.258 35.2835 76.7313C35.267 76.5808 35.2176 76.33 35.0119 76.3467ZM30.1477 77.4503C30.0737 77.0156 29.8926 76.957 29.6786 76.9905C29.5469 77.0072 29.4152 77.0908 29.3 77.1995L29.1683 79.6995C29.3576 79.7998 29.5305 79.7747 29.6374 79.758C29.9914 79.6995 30.1066 79.365 30.1642 78.1861C30.1807 77.86 30.1642 77.6092 30.1477 77.442V77.4503ZM26.8144 78.4035C26.7733 78.1945 26.8474 77.952 27.0202 77.8349C26.9461 77.6092 26.8474 77.4921 26.6498 77.5339C25.9996 77.6677 26.0161 79.1894 26.1395 79.758C26.2301 80.1844 26.4358 80.2596 26.7157 80.2011C27.1436 80.1091 27.2342 79.3734 27.1683 78.6627C26.9708 78.7129 26.8474 78.5707 26.8144 78.4035ZM65.7111 77.7095C57.8676 73.9638 49.1269 71.8735 39.9089 71.8735C30.6909 71.8735 21.9503 73.9638 14.1068 77.7179C12.7076 78.3784 11.3249 79.1058 9.99158 79.875L10.6253 82.5589L12.2796 89.44C13.3907 88.8213 14.5347 88.2444 15.687 87.7093C23.0038 84.298 31.2177 82.4001 39.9089 82.4001C46.8883 82.4001 53.5631 83.6291 59.7112 85.8782C61.2173 86.4217 62.6906 87.0404 64.1309 87.7093C65.2914 88.2444 66.4272 88.8213 67.5383 89.44L69.8345 79.875C68.4848 79.1058 67.1103 78.3868 65.7111 77.7179V77.7095ZM20.6417 80.3767H20.6087L20.8392 82.5004L19.8598 82.8265L19.3577 78.1025L20.3207 77.6343L20.5841 80.1091C21.2425 79.8249 21.4565 78.7379 21.2178 78.0105C21.0532 77.4921 20.6664 77.1493 20.0738 77.35C18.9791 77.7095 18.5265 78.554 18.8721 79.6158C18.9791 79.967 19.0944 79.9921 19.119 80.059C18.6581 80.2095 18.3372 80.1259 18.1808 79.6242C17.8845 78.6961 18.8392 77.4085 19.9668 77.0323C21.0696 76.6644 21.7692 77.1493 21.9997 77.8684C22.2795 78.7463 21.8598 79.9754 20.6417 80.3767ZM29.8267 80.2847C29.5963 80.3182 29.3741 80.268 29.1354 80.1677L29.0449 81.9904L28.0325 82.4168L28.2547 78.044C28.1066 78.2196 27.9008 78.3701 27.6786 78.4955C27.835 79.9586 27.226 80.8198 26.5346 80.9787C25.8515 81.1125 25.4647 80.9202 25.2836 80.2346C25.012 80.8533 24.584 81.3967 23.9091 81.5807C23.2507 81.7479 22.7569 81.3299 22.6005 80.7279C22.37 79.8332 22.3371 78.161 23.5881 77.8349C24.156 77.6844 24.5346 77.8433 24.6581 78.3282C24.8803 79.1894 24.1066 79.9168 23.4729 80.1844C23.4894 80.2931 23.5141 80.4101 23.5305 80.4854C23.6457 80.9452 23.9914 81.0121 24.2548 80.9452C24.5922 80.8533 25.0531 80.2931 25.1684 79.7162C24.9544 78.161 25.6375 77.3333 26.5346 77.141C27.193 76.9988 27.4729 77.4921 27.5963 78.0105C27.6457 78.044 27.7115 78.0523 27.8103 78.0272C28.0325 77.9771 28.1478 77.8349 28.2712 77.7012L28.3124 76.8651L29.3165 76.7062V76.8483C29.4481 76.748 29.6045 76.6728 29.7774 76.6393C30.5099 76.5306 30.8967 76.748 31.0037 77.4838C31.0284 77.6343 31.0448 77.8015 31.0448 77.9938C31.0613 79.574 30.5428 80.1928 29.8267 80.3098V80.2847ZM34.7814 79.1727C35.1106 79.1476 35.3822 78.9219 35.6456 78.6376C35.7115 79.4235 35.1106 79.6744 34.4028 79.7329C33.9172 79.7663 33.5633 79.5071 33.3905 79.1309C33.0777 79.5155 32.7074 79.8918 32.3864 79.9336C31.8514 80.0004 31.4893 79.7914 31.4234 79.248C31.4234 79.1393 31.4234 79.0138 31.4234 78.8717L31.7938 75.0173L32.8226 74.7414L32.444 78.7463C32.444 78.855 32.4275 78.9302 32.444 78.9888C32.4605 79.1476 32.551 79.248 32.8308 79.2145C32.9872 79.1978 33.1518 79.0557 33.3164 78.8801C33.3 78.8048 33.2917 78.7379 33.2835 78.6543C33.2094 77.7346 33.4728 76.0791 34.7567 75.9788C35.3411 75.9286 35.6868 76.1544 35.7279 76.656C35.7938 77.5423 34.9049 78.1276 34.2382 78.2614C34.2382 78.3784 34.2382 78.4955 34.2382 78.5791C34.2794 79.0557 34.5181 79.1894 34.7979 79.1643L34.7814 79.1727ZM47.522 79.2898C47.5796 79.2898 47.6537 79.2898 47.7113 79.2898C47.448 79.9001 47.1517 79.9085 46.9047 79.8834C46.4932 79.8416 46.2957 79.6075 46.2545 79.273C46.0159 79.5406 45.6702 79.8081 45.2504 79.7663C44.806 79.7162 44.592 79.4904 44.5015 79.2062C44.2463 79.4319 43.9665 79.6242 43.6784 79.6075C43.127 79.5824 42.8143 79.3232 42.8389 78.7714C42.8389 78.6543 42.8636 78.5373 42.8966 78.4035L43.2258 77.0992C43.2422 77.0323 43.2505 76.9738 43.2505 76.9152C43.2669 76.6477 43.1435 76.4721 42.9459 76.4637C42.7813 76.4637 42.6496 76.5055 42.5015 76.5975L41.769 79.5072L40.7567 79.4653L40.8472 79.1142C40.5921 79.3232 40.3287 79.4821 40.1065 79.4821C39.6456 79.4821 39.3328 79.3148 39.2423 78.9386C39.0283 79.2312 38.7155 79.5406 38.2793 79.549C37.5962 79.549 37.3904 79.064 37.3904 78.6292C37.374 77.3751 37.8102 75.8701 39.2258 75.8534C39.3987 75.8534 39.5715 75.9286 39.7032 76.0373L39.7443 75.845H40.7649L40.2793 78.3199C40.2628 78.3951 40.2464 78.4787 40.2464 78.554C40.2464 78.7129 40.3205 78.8299 40.6003 78.8299C40.7073 78.8299 40.839 78.763 40.9624 78.6794L41.662 75.8701L42.6826 75.9119L42.5838 76.3049C42.8801 76.0959 43.2175 75.937 43.5303 75.9537C43.9089 75.9704 44.3286 76.4052 44.304 76.9069C44.304 76.9654 44.304 77.0156 44.2793 77.0741L43.9336 78.4537C43.9089 78.5373 43.8924 78.6125 43.8842 78.6878C43.8842 78.8466 43.9583 78.972 44.2299 78.972C44.3286 78.972 44.3945 78.9553 44.4686 78.9135C44.4686 78.8634 44.4686 78.8132 44.4686 78.763C44.5838 77.5172 45.1681 76.0624 46.5755 76.1962C46.7484 76.2129 46.913 76.3132 47.0282 76.4303L47.4809 74.9671L48.5344 74.9169L47.3492 78.7547C47.3163 78.8383 47.2916 78.9219 47.2833 79.0055C47.2669 79.156 47.3163 79.2814 47.5138 79.2981L47.522 79.2898ZM52.8553 82.6509C51.8594 82.4753 51.2504 80.6944 50.0158 80.477C49.9582 80.477 49.9088 80.4603 49.8512 80.4519L51.736 75.6527C51.0858 75.8032 50.6249 76.2882 50.4932 77.049C50.4273 77.4169 50.5179 77.4921 50.5096 77.5507C50.0323 77.4671 49.7936 77.2413 49.8759 76.7229C50.0405 75.7614 51.4808 75.0758 52.6495 75.2765C52.7401 75.3016 52.8388 75.3266 52.9211 75.3434L50.9788 80.3182C51.6784 80.6108 52.2792 81.5054 53.1763 81.6559C53.3656 81.6894 53.5631 81.6977 53.7853 81.6559C53.596 82.3248 53.2421 82.7178 52.8635 82.6593L52.8553 82.6509ZM60.6741 79.7663C60.3449 80.8449 59.2338 82.5924 57.8594 82.166C57.3985 82.0238 57.1515 81.7479 57.2092 81.3299C56.7894 81.5305 56.345 81.6894 56.0569 81.6058C55.6536 81.4887 55.4067 81.2546 55.3902 80.9285C55.0446 81.1208 54.6907 81.263 54.4273 81.2044C53.9829 81.1041 53.7113 80.8616 53.703 80.477C53.4314 80.7195 53.0611 80.9369 52.6331 80.8365C51.9746 80.6861 51.8841 80.1677 51.9746 79.7413C52.2545 78.5205 53.0034 77.1493 54.3944 77.4671C54.559 77.5089 54.7154 77.6176 54.8223 77.7597L54.9129 77.5841L55.9005 77.8099L54.8717 80.1091C54.8388 80.1844 54.8059 80.2596 54.7894 80.3265C54.7483 80.477 54.7894 80.6024 55.0693 80.6693C55.168 80.6944 55.2997 80.6693 55.4314 80.6024C55.4314 80.6024 55.4314 80.5969 55.4314 80.5857C55.4643 80.4854 55.5137 80.3683 55.5795 80.2429L56.7812 78.0272L57.7606 78.3282L56.559 80.5439C56.526 80.6192 56.4849 80.6861 56.4767 80.7529C56.4273 80.9034 56.4602 81.0372 56.74 81.1292C56.8799 81.171 57.0775 81.1292 57.2832 81.0289C57.3079 80.9536 57.3491 80.8784 57.3902 80.7947L58.5836 78.5791L59.5713 78.8801L58.3696 81.0957C58.3203 81.1961 58.2873 81.2713 58.2626 81.3466C58.2215 81.4803 58.2626 81.589 58.4519 81.6476C59.1104 81.8566 60.0322 80.4687 60.2626 79.7078C60.2132 79.7078 60.1556 79.6995 60.1145 79.6911C59.9169 79.6242 59.884 79.4068 59.9416 79.2145C59.991 79.0724 60.2132 78.9302 60.4272 78.9888C60.7235 79.0807 60.7894 79.3901 60.6824 79.758L60.6741 79.7663ZM52.9623 79.758C52.8718 80.1844 53.0775 80.3098 53.2504 80.3516C53.4067 80.3934 53.596 80.268 53.7689 80.1008C53.7936 80.0255 53.8265 79.9586 53.8676 79.8667L54.6742 78.0774C54.5837 77.9604 54.4602 77.8935 54.3697 77.8684C53.8512 77.7597 53.1845 78.7881 52.9705 79.758H52.9623ZM45.4315 78.6543C45.3904 79.0891 45.6208 79.1894 45.7936 79.2062C45.9583 79.2229 46.1229 79.0807 46.271 78.8968C46.2875 78.8132 46.3122 78.7463 46.3451 78.6543L46.9294 76.7647C46.8307 76.656 46.6908 76.6142 46.6002 76.6059C46.0652 76.5473 45.5385 77.6594 45.4315 78.6543ZM38.3287 78.4286C38.3287 78.8717 38.5756 78.947 38.7485 78.947C38.9131 78.947 39.0694 78.7797 39.2011 78.5707C39.2011 78.4955 39.2258 78.4202 39.2505 78.3282L39.6291 76.3885C39.5221 76.2965 39.374 76.2631 39.2834 76.2631C38.7485 76.2631 38.3287 77.4336 38.3369 78.4202L38.3287 78.4286ZM35.2917 76.7313C35.2752 76.5808 35.2259 76.33 35.0201 76.3467C34.6168 76.3718 34.3617 77.2162 34.2629 77.9186C34.9049 77.86 35.3246 77.258 35.2917 76.7313ZM29.6704 76.9988C29.5387 77.0156 29.407 77.0992 29.2918 77.2079L29.1601 79.7078C29.3494 79.8081 29.5222 79.7831 29.6292 79.7663C29.9831 79.7078 30.0983 79.3734 30.156 78.1945C30.1724 77.8684 30.156 77.6176 30.1395 77.4503C30.0654 77.0156 29.8844 76.957 29.6704 76.9905V76.9988ZM26.8144 78.4035C26.7733 78.1945 26.8474 77.952 27.0202 77.8349C26.9461 77.6092 26.8474 77.4921 26.6498 77.5339C25.9996 77.6677 26.0161 79.1894 26.1395 79.758C26.2301 80.1844 26.4358 80.2596 26.7157 80.2011C27.1436 80.1091 27.2342 79.3734 27.1683 78.6627C26.9708 78.7129 26.8474 78.5707 26.8144 78.4035ZM27.1683 78.6627C26.9708 78.7129 26.8474 78.5707 26.8144 78.4035C26.7733 78.1945 26.8474 77.952 27.0202 77.8349C26.9461 77.6092 26.8474 77.4921 26.6498 77.5339C25.9996 77.6677 26.0161 79.1894 26.1395 79.758C26.2301 80.1844 26.4358 80.2596 26.7157 80.2011C27.1436 80.1091 27.2342 79.3734 27.1683 78.6627ZM30.1477 77.4503C30.0737 77.0156 29.8926 76.957 29.6786 76.9905C29.5469 77.0072 29.4152 77.0908 29.3 77.1995L29.1683 79.6995C29.3576 79.7998 29.5305 79.7747 29.6374 79.758C29.9914 79.6995 30.1066 79.365 30.1642 78.1861C30.1807 77.86 30.1642 77.6092 30.1477 77.442V77.4503ZM35.0119 76.3467C34.6086 76.3718 34.3534 77.2162 34.2547 77.9186C34.8966 77.86 35.3164 77.258 35.2835 76.7313C35.267 76.5808 35.2176 76.33 35.0119 76.3467ZM39.2752 76.2714C38.7402 76.2714 38.3205 77.442 38.3287 78.4286C38.3287 78.8717 38.5756 78.947 38.7485 78.947C38.9131 78.947 39.0694 78.7797 39.2011 78.5707C39.2011 78.4955 39.2258 78.4202 39.2505 78.3282L39.6291 76.3885C39.5221 76.2965 39.374 76.2631 39.2834 76.2631L39.2752 76.2714ZM46.592 76.6059C46.057 76.5473 45.5303 77.6594 45.4233 78.6543C45.3821 79.0891 45.6126 79.1894 45.7854 79.2062C45.95 79.2229 46.1146 79.0807 46.2628 78.8968C46.2792 78.8132 46.3039 78.7463 46.3368 78.6543L46.9212 76.7647C46.8224 76.656 46.6825 76.6142 46.592 76.6059ZM46.592 76.6059C46.057 76.5473 45.5303 77.6594 45.4233 78.6543C45.3821 79.0891 45.6126 79.1894 45.7854 79.2062C45.95 79.2229 46.1146 79.0807 46.2628 78.8968C46.2792 78.8132 46.3039 78.7463 46.3368 78.6543L46.9212 76.7647C46.8224 76.656 46.6825 76.6142 46.592 76.6059ZM39.2752 76.2714C38.7402 76.2714 38.3205 77.442 38.3287 78.4286C38.3287 78.8717 38.5756 78.947 38.7485 78.947C38.9131 78.947 39.0694 78.7797 39.2011 78.5707C39.2011 78.4955 39.2258 78.4202 39.2505 78.3282L39.6291 76.3885C39.5221 76.2965 39.374 76.2631 39.2834 76.2631L39.2752 76.2714ZM35.0119 76.3467C34.6086 76.3718 34.3534 77.2162 34.2547 77.9186C34.8966 77.86 35.3164 77.258 35.2835 76.7313C35.267 76.5808 35.2176 76.33 35.0119 76.3467ZM30.1477 77.4503C30.0737 77.0156 29.8926 76.957 29.6786 76.9905C29.5469 77.0072 29.4152 77.0908 29.3 77.1995L29.1683 79.6995C29.3576 79.7998 29.5305 79.7747 29.6374 79.758C29.9914 79.6995 30.1066 79.365 30.1642 78.1861C30.1807 77.86 30.1642 77.6092 30.1477 77.442V77.4503ZM27.1683 78.6627C26.9708 78.7129 26.8474 78.5707 26.8144 78.4035C26.7733 78.1945 26.8474 77.952 27.0202 77.8349C26.9461 77.6092 26.8474 77.4921 26.6498 77.5339C25.9996 77.6677 26.0161 79.1894 26.1395 79.758C26.2301 80.1844 26.4358 80.2596 26.7157 80.2011C27.1436 80.1091 27.2342 79.3734 27.1683 78.6627ZM27.1683 78.6627C26.9708 78.7129 26.8474 78.5707 26.8144 78.4035C26.7733 78.1945 26.8474 77.952 27.0202 77.8349C26.9461 77.6092 26.8474 77.4921 26.6498 77.5339C25.9996 77.6677 26.0161 79.1894 26.1395 79.758C26.2301 80.1844 26.4358 80.2596 26.7157 80.2011C27.1436 80.1091 27.2342 79.3734 27.1683 78.6627ZM30.1477 77.4503C30.0737 77.0156 29.8926 76.957 29.6786 76.9905C29.5469 77.0072 29.4152 77.0908 29.3 77.1995L29.1683 79.6995C29.3576 79.7998 29.5305 79.7747 29.6374 79.758C29.9914 79.6995 30.1066 79.365 30.1642 78.1861C30.1807 77.86 30.1642 77.6092 30.1477 77.442V77.4503ZM35.0119 76.3467C34.6086 76.3718 34.3534 77.2162 34.2547 77.9186C34.8966 77.86 35.3164 77.258 35.2835 76.7313C35.267 76.5808 35.2176 76.33 35.0119 76.3467ZM39.2752 76.2714C38.7402 76.2714 38.3205 77.442 38.3287 78.4286C38.3287 78.8717 38.5756 78.947 38.7485 78.947C38.9131 78.947 39.0694 78.7797 39.2011 78.5707C39.2011 78.4955 39.2258 78.4202 39.2505 78.3282L39.6291 76.3885C39.5221 76.2965 39.374 76.2631 39.2834 76.2631L39.2752 76.2714ZM39.2752 76.2714C38.7402 76.2714 38.3205 77.442 38.3287 78.4286C38.3287 78.8717 38.5756 78.947 38.7485 78.947C38.9131 78.947 39.0694 78.7797 39.2011 78.5707C39.2011 78.4955 39.2258 78.4202 39.2505 78.3282L39.6291 76.3885C39.5221 76.2965 39.374 76.2631 39.2834 76.2631L39.2752 76.2714ZM35.0119 76.3467C34.6086 76.3718 34.3534 77.2162 34.2547 77.9186C34.8966 77.86 35.3164 77.258 35.2835 76.7313C35.267 76.5808 35.2176 76.33 35.0119 76.3467ZM30.1477 77.4503C30.0737 77.0156 29.8926 76.957 29.6786 76.9905C29.5469 77.0072 29.4152 77.0908 29.3 77.1995L29.1683 79.6995C29.3576 79.7998 29.5305 79.7747 29.6374 79.758C29.9914 79.6995 30.1066 79.365 30.1642 78.1861C30.1807 77.86 30.1642 77.6092 30.1477 77.442V77.4503ZM27.1683 78.6627C26.9708 78.7129 26.8474 78.5707 26.8144 78.4035C26.7733 78.1945 26.8474 77.952 27.0202 77.8349C26.9461 77.6092 26.8474 77.4921 26.6498 77.5339C25.9996 77.6677 26.0161 79.1894 26.1395 79.758C26.2301 80.1844 26.4358 80.2596 26.7157 80.2011C27.1436 80.1091 27.2342 79.3734 27.1683 78.6627ZM27.1683 78.6627C26.9708 78.7129 26.8474 78.5707 26.8144 78.4035C26.7733 78.1945 26.8474 77.952 27.0202 77.8349C26.9461 77.6092 26.8474 77.4921 26.6498 77.5339C25.9996 77.6677 26.0161 79.1894 26.1395 79.758C26.2301 80.1844 26.4358 80.2596 26.7157 80.2011C27.1436 80.1091 27.2342 79.3734 27.1683 78.6627ZM30.1477 77.4503C30.0737 77.0156 29.8926 76.957 29.6786 76.9905C29.5469 77.0072 29.4152 77.0908 29.3 77.1995L29.1683 79.6995C29.3576 79.7998 29.5305 79.7747 29.6374 79.758C29.9914 79.6995 30.1066 79.365 30.1642 78.1861C30.1807 77.86 30.1642 77.6092 30.1477 77.442V77.4503ZM35.0119 76.3467C34.6086 76.3718 34.3534 77.2162 34.2547 77.9186C34.8966 77.86 35.3164 77.258 35.2835 76.7313C35.267 76.5808 35.2176 76.33 35.0119 76.3467ZM35.0119 76.3467C34.6086 76.3718 34.3534 77.2162 34.2547 77.9186C34.8966 77.86 35.3164 77.258 35.2835 76.7313C35.267 76.5808 35.2176 76.33 35.0119 76.3467ZM30.1477 77.4503C30.0737 77.0156 29.8926 76.957 29.6786 76.9905C29.5469 77.0072 29.4152 77.0908 29.3 77.1995L29.1683 79.6995C29.3576 79.7998 29.5305 79.7747 29.6374 79.758C29.9914 79.6995 30.1066 79.365 30.1642 78.1861C30.1807 77.86 30.1642 77.6092 30.1477 77.442V77.4503ZM27.1683 78.6627C26.9708 78.7129 26.8474 78.5707 26.8144 78.4035C26.7733 78.1945 26.8474 77.952 27.0202 77.8349C26.9461 77.6092 26.8474 77.4921 26.6498 77.5339C25.9996 77.6677 26.0161 79.1894 26.1395 79.758C26.2301 80.1844 26.4358 80.2596 26.7157 80.2011C27.1436 80.1091 27.2342 79.3734 27.1683 78.6627ZM27.1683 78.6627C26.9708 78.7129 26.8474 78.5707 26.8144 78.4035C26.7733 78.1945 26.8474 77.952 27.0202 77.8349C26.9461 77.6092 26.8474 77.4921 26.6498 77.5339C25.9996 77.6677 26.0161 79.1894 26.1395 79.758C26.2301 80.1844 26.4358 80.2596 26.7157 80.2011C27.1436 80.1091 27.2342 79.3734 27.1683 78.6627ZM30.1477 77.4503C30.0737 77.0156 29.8926 76.957 29.6786 76.9905C29.5469 77.0072 29.4152 77.0908 29.3 77.1995L29.1683 79.6995C29.3576 79.7998 29.5305 79.7747 29.6374 79.758C29.9914 79.6995 30.1066 79.365 30.1642 78.1861C30.1807 77.86 30.1642 77.6092 30.1477 77.442V77.4503ZM30.1477 77.4503C30.0737 77.0156 29.8926 76.957 29.6786 76.9905C29.5469 77.0072 29.4152 77.0908 29.3 77.1995L29.1683 79.6995C29.3576 79.7998 29.5305 79.7747 29.6374 79.758C29.9914 79.6995 30.1066 79.365 30.1642 78.1861C30.1807 77.86 30.1642 77.6092 30.1477 77.442V77.4503ZM27.1683 78.6627C26.9708 78.7129 26.8474 78.5707 26.8144 78.4035C26.7733 78.1945 26.8474 77.952 27.0202 77.8349C26.9461 77.6092 26.8474 77.4921 26.6498 77.5339C25.9996 77.6677 26.0161 79.1894 26.1395 79.758C26.2301 80.1844 26.4358 80.2596 26.7157 80.2011C27.1436 80.1091 27.2342 79.3734 27.1683 78.6627Z" fill="#808080"/>
<path d="M81.3981 35.7879C81.3981 35.7879 81.3981 35.7377 81.3734 35.7294L78.1471 29.4586C78.1471 29.4586 78.2211 29.4084 78.2623 29.3833C78.3611 29.4419 78.4845 29.4837 78.6162 29.4837C79.003 29.4837 79.3158 29.166 79.3158 28.7646C79.3158 28.3633 79.003 28.0539 78.6162 28.0539C78.2294 28.0539 77.9084 28.3717 77.9084 28.7646C77.9084 28.8064 77.9084 28.8399 77.9249 28.8733C77.2664 29.2161 76.6245 29.4168 75.8343 29.4586C74.8879 29.5004 74.1307 29.0155 73.3652 28.5389C72.6574 28.0957 71.7932 27.661 70.9455 27.4101C70.8056 27.1008 70.5669 26.8332 70.2706 26.666V25.1443H70.3118C71.6533 24.9604 72.5834 23.7229 72.4187 22.3601C72.2624 21.2146 71.357 20.3367 70.2706 20.228V19.5675H68.8468V20.3284L58.7975 21.6661L51.1268 18.2632L50.5671 22.4353L51.028 23.631L57.1185 26.3232V26.3399L57.456 26.4821C57.8592 26.6576 58.279 26.7162 58.6987 26.6744L58.7975 26.6576L68.8385 25.3282V26.6576C68.534 26.8249 68.2953 27.0924 68.1554 27.4018C67.3077 27.6526 66.4435 28.0874 65.7357 28.5305C64.9538 29.0071 64.1966 29.492 63.2584 29.4502C62.4929 29.4084 61.8839 29.2328 61.2419 28.8984C61.2584 28.8482 61.2584 28.7981 61.2584 28.7563C61.2584 28.3633 60.9374 28.0456 60.5506 28.0456C60.1637 28.0456 59.8428 28.3633 59.8428 28.7563C59.8428 29.1492 60.1555 29.4753 60.5506 29.4753C60.6658 29.4753 60.7728 29.4502 60.8633 29.3917C60.9127 29.4251 60.9621 29.4502 61.0032 29.4753L57.7852 35.721C57.7852 35.721 57.7605 35.7544 57.7605 35.7795H57.4148V36.3815H57.8922C58.4107 37.7611 59.7193 38.7226 61.2584 38.7226C62.7975 38.7226 64.1061 37.7527 64.6328 36.3815H65.102V35.7795H64.7481C64.7481 35.7795 64.7398 35.7294 64.7398 35.721L61.711 29.8516C62.2378 30.1024 62.781 30.2863 63.3242 30.3365C63.9662 30.395 64.9291 30.2362 65.7439 29.7847C66.4764 29.375 67.3242 28.9402 68.1801 28.6727C68.4106 29.191 68.9455 29.5673 69.5546 29.5673C70.1636 29.5673 70.6986 29.191 70.929 28.6727C71.7768 28.9402 72.6327 29.375 73.3652 29.7847C74.18 30.2445 75.143 30.395 75.785 30.3365C76.3611 30.278 76.929 30.0689 77.4969 29.8014L74.4434 35.721C74.4434 35.721 74.427 35.7544 74.427 35.7795H74.073V36.3815H74.5422C75.0772 37.7611 76.3858 38.7226 77.9166 38.7226C79.4475 38.7226 80.7561 37.7527 81.2746 36.3815H81.752V35.7795H81.3981V35.7879ZM61.1349 35.7879H58.0156L61.1349 29.7596V35.7879ZM64.4764 35.7879H61.3654V29.7596L64.4764 35.7879ZM77.7849 35.7879H74.6656L77.7849 29.7596V35.7879ZM78.0236 35.7879V29.7596L81.1347 35.7879H78.0236Z" fill="#4D4D4D"/>
<path d="M46.7812 84.4073L46.9211 85.929H33.0035L33.3821 84.3654C35.522 84.1146 37.6948 83.9976 39.8924 83.9976C42.2051 83.9976 44.5096 84.1313 46.7729 84.4073H46.7812Z" fill="#4D4D4D"/>
<path d="M42.3285 70.3353L43.6289 65.1598L47.5548 57.8188L46.5672 64.6164L44.6001 67.9022L44.1804 70.4273C43.5631 70.3771 42.9458 70.352 42.3203 70.3353H42.3285Z" fill="#4D4D4D"/>
<path d="M45.7441 69.0979L47.884 68.0527L47.4314 70.7366C46.7482 70.6363 46.0569 70.5694 45.3573 70.5109L45.7359 69.0979H45.7441Z" fill="#4D4D4D"/>
<path d="M39.9006 70.2767C37.4561 70.2767 35.0447 70.4188 32.6578 70.7031L31.2916 62.0745L33.5385 64.6163L39.201 69.4071L36.3697 61.807L30.6332 52.7018L31.4151 43.2957L34.2628 37.5015H47.0034L49.1021 42.3425L49.5548 47.7354L47.6453 52.2252L41.7359 63.9056L40.9623 70.3018C40.6084 70.285 40.2462 70.285 39.8923 70.285L39.9006 70.2767Z" fill="#4D4D4D"/>
<path d="M35.8266 62.5179L22.2876 41.9665L24.5757 40.3612L23.9584 39.4499L21.3988 41.2308L20.5017 39.9097L27.9666 31.6909C27.9666 31.6909 28.0324 31.624 28.0407 31.5905C28.2711 31.4233 28.4686 31.1892 28.625 30.93L29.8349 28.8732L29.2423 26.7746L28.5592 21.3984L24.5839 28.1123V28.1291C24.5016 28.1876 24.4522 28.2545 24.3864 28.3214L17.6786 35.7125L17.0367 34.7761L15.3165 35.9801L16.2466 37.3513C15.9585 37.7693 15.8021 38.2626 15.8021 38.7476C15.8021 39.4164 16.0737 40.077 16.5922 40.5703C17.2177 41.1555 18.0572 41.3478 18.8227 41.1555L19.6951 42.4264L17.2342 44.1488L17.8515 45.0601L20.0572 43.5133L34.1558 63.7052L37.6373 67.0412L35.8348 62.5179H35.8266ZM21.3905 43.0535L22.1148 42.5518L35.4068 62.7437L36.3698 65.16L36.3369 65.1433L21.3905 43.0535Z" fill="#4D4D4D"/>
<path d="M49.1268 24.8598L48.8305 28.3547L46.4931 30.0018L41.7524 30.3028L46.4684 30.9968L47.6947 30.4533L47.8429 34.5753L47.67 35.1271L46.9951 35.6037H34.2545L32.5673 34.4749V31.9917L30.9953 26.4066L29.876 17.5773C30.3863 17.0255 30.913 16.4987 31.5385 16.0807C31.6949 16.2312 31.8595 16.3817 32.0241 16.5322C34.6414 18.89 37.9829 20.7211 41.382 19.7512C43.1022 19.283 44.847 18.3632 46.098 17.0673C46.3202 16.8248 46.5918 16.5573 46.8388 16.2646C47.061 16.0138 47.275 15.7379 47.4478 15.4536C47.5959 15.5456 47.7852 15.6208 47.9416 15.6794C48.4848 15.9636 49.028 16.2312 49.5712 16.5071L48.7482 22.6525L49.1268 24.8598Z" fill="#4D4D4D"/>
<path d="M46.4931 10.3868L45.3491 12.3433L43.1186 13.3549H42.3944C42.3614 13.0623 42.3368 12.7864 42.3368 12.5523C43.2586 11.7914 43.9417 10.6125 44.2462 9.23295L43.8841 6.32332L42.3285 5.74641L40.1639 3.48057L40.559 0.361911L41.1845 0.0776367L42.8059 0.328467L46.098 4.20798L46.5013 10.3951L46.4931 10.3868Z" fill="#4D4D4D"/>
<path d="M35.2011 9.22471C35.2176 9.31668 35.2423 9.4003 35.267 9.4839C35.2917 9.56752 35.3081 9.65113 35.341 9.73474C35.3657 9.81835 35.3904 9.90196 35.4234 9.97721C35.4727 10.1277 35.5303 10.2782 35.5962 10.4287C35.7361 10.7464 35.8925 11.0391 36.0653 11.3233C36.1065 11.3902 36.1476 11.4571 36.197 11.524C36.4686 11.917 36.7814 12.2598 37.127 12.5524C37.127 12.6444 37.1188 12.728 37.1188 12.8283C37.1106 12.9872 37.0941 13.1711 37.0694 13.3467H36.3534L34.123 12.3434L32.9707 10.3869L33.374 4.2081L36.6497 0.320227L38.2628 0.0610352L39.7196 0.729917V2.99575L37.1188 5.73817L35.5633 6.30672L35.2011 9.22471Z" fill="#4D4D4D"/>
<path d="M56.098 92.0489V99.1223H24.3947V92.0489H26.1313V87.7681H53.5466V92.0489H56.098Z" fill="#4D4D4D"/>
</svg>
