<svg width="21" height="20" viewBox="0 0 21 20" fill="none" xmlns="http://www.w3.org/2000/svg">
<g clip-path="url(#clip0_1_1423)">
<path d="M10.3956 19.1544C7.19516 19.1545 3.99473 19.1548 0.7943 19.1531C0.692565 19.1531 0.582616 19.1529 0.490945 19.1163C0.334259 19.0538 0.300301 18.9126 0.300584 18.7498C0.303651 16.9867 0.302345 15.2235 0.302369 13.4603C0.30239 11.8198 0.306798 10.1793 0.297865 8.53887C0.296611 8.3085 0.380004 8.17031 0.565358 8.04935C1.33132 7.54949 2.08886 7.03667 2.85416 6.53578C2.97483 6.4568 3.02288 6.37593 3.02238 6.22731C3.01638 4.43185 3.01841 2.63636 3.01857 0.840875C3.0186 0.445711 3.11916 0.343491 3.50682 0.343506C8.09174 0.343677 12.6767 0.343882 17.2616 0.344173C17.6787 0.3442 17.7723 0.438435 17.7724 0.857234C17.7725 2.64626 17.7743 4.43529 17.769 6.2243C17.7685 6.3711 17.8121 6.45535 17.9352 6.53568C18.7067 7.039 19.47 7.55475 20.2413 8.05826C20.4227 8.17671 20.4924 8.31862 20.492 8.53775C20.4862 11.9285 20.4883 15.3192 20.4882 18.71C20.4882 19.0574 20.3909 19.154 20.0355 19.154C16.8222 19.1545 13.6089 19.1543 10.3956 19.1544ZM3.71068 1.03772C3.70663 1.09817 3.70035 1.14839 3.70034 1.1986C3.6999 3.96871 3.70081 6.73882 3.69724 9.50893C3.69709 9.63074 3.74022 9.69242 3.84345 9.74719C5.61141 10.6852 7.3781 11.6257 9.14297 12.5696C9.25587 12.63 9.33688 12.623 9.4398 12.5495C9.67563 12.3812 9.92192 12.2277 10.162 12.0653C10.3189 11.9592 10.471 11.9586 10.6281 12.0649C10.8627 12.2239 11.1035 12.3739 11.3339 12.5387C11.4469 12.6195 11.5343 12.6289 11.6634 12.5597C13.4219 11.6176 15.1836 10.6812 16.9468 9.74792C17.0612 9.68735 17.0938 9.61642 17.0936 9.49089C17.0899 6.74016 17.0908 3.98942 17.0903 1.23868C17.0903 1.17105 17.0845 1.10342 17.0815 1.03772L3.71068 1.03772ZM19.0071 18.4607C18.9206 18.3999 18.8697 18.3625 18.8172 18.3275C16.0614 16.4941 13.3049 14.662 10.552 12.8243C10.4279 12.7414 10.3508 12.7487 10.2325 12.8277C7.78482 14.4614 5.33414 16.0907 2.8841 17.7209C2.52749 17.9582 2.17114 18.1959 1.77369 18.4607H19.0071ZM8.65325 13.0704C6.07413 11.6973 3.53296 10.3443 0.980554 8.98538V18.1752C3.54337 16.4701 6.08202 14.7811 8.65325 13.0704ZM12.1373 13.0707C14.7077 14.7808 17.25 16.4721 19.8132 18.1773V8.98356C17.2509 10.3479 14.7099 11.7009 12.1373 13.0707ZM17.7835 8.06818H19.0255C18.5899 7.77862 18.1981 7.51821 17.7835 7.24268V8.06818ZM3.00927 7.24041C2.5897 7.51985 2.19889 7.78013 1.76463 8.06936H3.00927V7.24041ZM17.7781 9.30057C18.1149 9.12068 18.4256 8.95472 18.7838 8.76338H17.7781V9.30057ZM3.00958 8.76035H2.06323C2.06049 8.77042 2.05774 8.78049 2.055 8.79055C2.36727 8.95648 2.67953 9.12241 3.00958 9.29778V8.76035Z" fill="white"/>
<path d="M11.2173 6.95359C10.8029 7.26953 10.353 7.38472 9.85168 7.23416C9.13874 7.02007 8.71475 6.30558 8.85244 5.55164C8.98295 4.83697 9.66808 4.33872 10.4336 4.40172C11.1354 4.45947 11.7043 5.08821 11.7133 5.81709C11.7152 5.97205 11.7104 6.12715 11.7147 6.28202C11.7235 6.60325 11.9343 6.81979 12.2294 6.81571C12.5168 6.81173 12.7124 6.59866 12.7184 6.283C12.7398 5.15846 12.2311 4.31386 11.2902 3.91187C9.79663 3.27368 8.12108 4.37768 8.0657 6.00403C8.02138 7.30551 8.90839 8.24252 9.89679 8.44787C10.0719 8.48425 10.2535 8.50398 10.4323 8.5052C11.295 8.5111 12.1578 8.50683 13.0206 8.50881C13.308 8.50947 13.4773 8.74619 13.3634 8.98496C13.2942 9.12998 13.1719 9.17572 13.0147 9.17504C12.1455 9.1713 11.2763 9.17482 10.407 9.17317C8.99538 9.17049 7.82361 8.25095 7.4787 6.87766C7.07075 5.25338 8.02281 3.58535 9.5994 3.16214C11.5427 2.64049 13.38 4.07142 13.4035 6.12191C13.4075 6.46665 13.3561 6.79082 13.1298 7.06572C12.6698 7.62444 11.8337 7.64199 11.3462 7.1035C11.3038 7.05665 11.2637 7.00766 11.2173 6.95359ZM10.2626 6.61501C10.6951 6.61778 11.0422 6.28223 11.0493 5.85439C11.0562 5.43812 10.6953 5.06747 10.2814 5.06569C9.85486 5.06387 9.50553 5.40894 9.50192 5.83564C9.49823 6.27234 9.82995 6.61223 10.2626 6.61501Z" fill="white"/>
</g>
<defs>
<clipPath id="clip0_1_1423">
<rect width="20.1942" height="18.811" fill="white" transform="translate(0.297852 0.343506)"/>
</clipPath>
</defs>
</svg>
