<svg width="21" height="21" viewBox="0 0 21 21" fill="none" xmlns="http://www.w3.org/2000/svg">
<g clip-path="url(#clip0_1_1427)">
<path d="M20.4889 5.74161C20.4886 4.90537 20.4846 4.06914 20.4823 3.23289C20.4854 3.03031 20.492 2.82771 20.491 2.62514C20.4841 1.14118 19.3959 0.039975 17.9304 0.0360947C16.981 0.0335795 16.0316 0.0358257 15.0822 0.0360371C11.2679 0.036881 7.45366 0.0361361 3.63939 0.0395907C2.4339 0.0406826 1.42368 0.842395 1.16551 1.99917C1.039 2.56603 1.11223 3.14376 1.10341 3.71653C1.10077 3.88838 1.06319 3.95063 0.882785 3.94814C0.513699 3.94304 0.293506 4.14862 0.300144 4.458C0.306635 4.76006 0.51926 4.95243 0.877655 4.94835C1.0508 4.94639 1.10329 4.99547 1.10243 5.17468C1.09537 6.6365 1.09601 8.09837 1.10077 9.5602C1.10129 9.71935 1.06559 9.78017 0.89509 9.77925C0.514342 9.77717 0.301938 9.96616 0.299213 10.276C0.29649 10.5863 0.513624 10.7834 0.886755 10.7823C1.04551 10.7819 1.10176 10.8212 1.10099 10.9924C1.09445 12.4627 1.09501 13.933 1.09914 15.4033C1.09954 15.551 1.06906 15.6094 0.907705 15.6101C0.509343 15.6119 0.293823 15.8028 0.297909 16.1187C0.301904 16.4284 0.514937 16.6178 0.894543 16.6152C1.0659 16.614 1.10278 16.6756 1.09941 16.8344C1.09065 17.2482 1.0908 17.6625 1.09887 18.0764C1.12592 19.4621 2.33189 20.5922 3.69752 20.5166C3.73906 20.5187 3.7806 20.5226 3.82214 20.5226C8.54292 20.5242 13.2637 20.5257 17.9845 20.5261C18.1007 20.5261 18.2186 20.5234 18.3327 20.504C19.6411 20.2808 20.4916 19.2602 20.4919 17.9064C20.4926 13.8514 20.4907 9.79653 20.4889 5.74161ZM19.4922 6.70635C19.4905 10.4167 19.4901 14.1271 19.4887 17.8374C19.4884 18.8812 18.8702 19.5083 17.8415 19.5086C13.485 19.5102 9.12843 19.5112 4.77188 19.5128C4.66369 19.5129 4.55549 19.5168 4.4473 19.5189C4.05851 19.4772 3.66477 19.558 3.27771 19.4679C2.58173 19.306 2.10613 18.7169 2.09754 17.9966C2.0931 17.6248 2.10894 17.2523 2.09158 16.8813C2.08171 16.6703 2.14292 16.5978 2.35235 16.616C2.5685 16.6347 2.73918 16.5373 2.84096 16.3337C2.92867 16.1582 2.90987 15.99 2.80526 15.83C2.69924 15.6678 2.54046 15.5857 2.3568 15.6101C2.11507 15.6422 2.09115 15.5282 2.0922 15.3233C2.09949 13.9035 2.10016 12.4837 2.09033 11.0639C2.08883 10.8482 2.12994 10.7571 2.36086 10.7816C2.56592 10.8033 2.7316 10.7052 2.83302 10.5145C2.93001 10.332 2.91178 10.1552 2.79793 9.98892C2.68886 9.82959 2.52922 9.75996 2.34399 9.77698C2.15451 9.79438 2.08866 9.73867 2.08998 9.53062C2.09918 8.08552 2.09725 6.64032 2.09041 5.19519C2.08956 5.01568 2.12177 4.94201 2.31986 4.94744C2.67357 4.95712 2.88922 4.75524 2.89281 4.45335C2.89648 4.14428 2.67797 3.94609 2.30542 3.94698C2.14712 3.94736 2.08115 3.90932 2.09126 3.73682C2.12081 3.23207 2.03298 2.72125 2.14179 2.22131C2.29215 1.53049 2.8846 1.04912 3.58383 1.04888C8.38152 1.0473 13.1792 1.04802 17.9769 1.05186C18.8349 1.05254 19.4821 1.72312 19.4895 2.59976C19.4936 3.08126 19.4958 3.56278 19.4989 4.04428C19.4965 4.93164 19.4926 5.81899 19.4922 6.70635Z" fill="white"/>
<path d="M16.4535 14.0122C15.9978 12.819 15.2226 11.913 14.1711 11.2308C13.8646 11.032 13.5302 10.8878 13.175 10.7157C13.7803 10.3185 14.2045 9.8009 14.494 9.16815C14.8957 8.36327 14.9255 7.52211 14.7095 6.66566C14.2363 4.78943 12.3569 3.56769 10.4723 3.96302C8.94149 4.28415 7.9263 5.24291 7.57935 6.79794C7.24126 8.31324 7.71338 9.59619 8.90776 10.5827C9.09542 10.7377 9.03742 10.7726 8.86026 10.847C8.28622 11.0881 7.77374 11.4317 7.31738 11.8584C6.26705 12.8403 5.65451 14.0497 5.47213 15.4897C5.39722 16.0811 5.81167 16.6397 6.39895 16.664C6.78078 16.6798 7.16402 16.6608 7.54661 16.6574C7.62138 16.66 7.69614 16.665 7.77091 16.665C10.4258 16.6662 13.0807 16.6672 15.7356 16.6673C16.5173 16.6674 16.9541 16.1474 16.8249 15.3664C16.7481 14.9022 16.6228 14.4554 16.4535 14.0122ZM8.48434 7.59126C8.49184 6.1053 9.6991 4.90187 11.177 4.90717C12.6434 4.91242 13.8466 6.15438 13.8392 7.65516C13.8319 9.14228 12.6263 10.3468 11.1505 10.3413C9.63895 10.3357 8.47654 9.13676 8.48434 7.59126ZM15.6143 15.6564C13.2829 15.6515 10.9514 15.6542 8.61993 15.6553C8.51179 15.6554 8.40364 15.6596 8.2955 15.6619C7.77957 15.6586 7.26323 15.6421 6.74787 15.658C6.51481 15.6652 6.45534 15.5917 6.4981 15.3712C6.82899 13.6654 7.76404 12.4475 9.33676 11.7443C10.2596 11.3317 11.2197 11.3146 12.1953 11.4798C13.5582 11.8223 14.5943 12.6059 15.2893 13.8462C15.5634 14.3353 15.7212 14.8656 15.825 15.4168C15.8631 15.6191 15.8019 15.6568 15.6143 15.6564Z" fill="white"/>
</g>
<defs>
<clipPath id="clip0_1_1427">
<rect width="20.1942" height="20.4911" fill="white" transform="translate(0.297852 0.0349121)"/>
</clipPath>
</defs>
</svg>
