<svg width="1898" height="434" viewBox="0 0 1898 434" fill="none" xmlns="http://www.w3.org/2000/svg">
<path d="M1840.86 117.201C1829.87 129.523 1818.49 141.626 1807.28 153.068C1733.51 227.222 1647.2 289.625 1552.9 336.186C1549.67 337.726 1545 339.883 1540.25 342.127C1539.8 342.347 1539.53 342.435 1539.53 342.479C1534.47 344.856 1529.35 347.232 1525.86 348.86C1519.36 351.721 1504.78 357.75 1498.37 360.522C1488.64 364.043 1476.31 369.324 1466.44 372.537C1402.28 395.245 1334.88 409.724 1266.81 412.892C1141.26 416.237 1015.22 397.313 895.088 361.887C807.56 336.098 722.901 300.935 642.816 257.807C562.103 214.019 484.35 162.001 398.75 126.487C343.91 103.646 284.856 87.4954 224.77 86.3952C163.428 85.383 101.189 100.214 48.3675 131.328C34.3774 139.645 20.9701 149.151 8.50447 159.889C-2.07786 168.999 -1.94334 185.238 8.63899 194.347C17.9209 202.357 31.8215 201.829 40.655 193.379C65.1827 169.879 95.988 151.791 129.304 140.129C327.723 72.0045 507.174 225.197 676.76 304.192C854.597 388.688 1052.25 436.217 1250.22 433.268C1454.79 428.339 1649.39 325.624 1795.84 189.991C1813.15 173.84 1830.14 156.764 1846.33 139.117L1840.82 117.113L1840.86 117.201Z" fill="#36110D"/>
<path d="M1896.92 3.31055C1896.94 5.35047 1896.95 8.35429 1896.88 12.2041C1896.75 19.9038 1896.34 30.9889 1895.2 44.5244C1892.92 71.5969 1887.74 108.464 1876.16 147.648C1853.18 225.413 1805.01 312.221 1704.25 349.798L1701.87 350.676C1663.25 364.654 1626.49 363.417 1599.36 358.68C1585.8 356.311 1574.66 353.069 1566.91 350.42C1563.03 349.095 1560.01 347.918 1557.95 347.074C1556.92 346.652 1556.13 346.313 1555.61 346.08C1555.42 345.996 1555.26 345.925 1555.14 345.869L1556.4 335.098L1556.4 335.068V334.685C1603.78 310.413 1740.53 234.1 1812.44 127.732L1811.63 127.15L1812.03 127.452C1811.63 127.15 1811.63 127.151 1811.63 127.151C1811.63 127.152 1811.63 127.153 1811.63 127.154C1811.63 127.157 1811.62 127.162 1811.62 127.168C1811.61 127.181 1811.59 127.2 1811.57 127.226C1811.53 127.276 1811.48 127.352 1811.4 127.453C1811.24 127.655 1811 127.956 1810.69 128.353C1810.06 129.146 1809.11 130.32 1807.84 131.842C1805.3 134.886 1801.48 139.32 1796.36 144.873C1786.11 155.98 1770.64 171.565 1749.77 189.471C1708.18 225.168 1645.13 270.082 1559.22 307.112C1567.51 251.214 1599.86 127.796 1724.88 86.2559L1726.36 85.7686V85.7676C1808.21 59.1362 1851.06 37.8426 1873.45 23.1865C1884.65 15.8578 1890.75 10.1812 1894.05 6.31641C1895.44 4.6929 1896.33 3.38601 1896.91 2.41113C1896.91 2.68629 1896.92 2.98621 1896.92 3.31055Z" fill="#36110D" stroke="#36110D"/>
</svg>
