<svg width="1898" height="434" viewBox="0 0 1898 434" fill="none" xmlns="http://www.w3.org/2000/svg">
<path d="M1840.86 117.201C1829.87 129.523 1818.49 141.626 1807.28 153.068C1733.51 227.222 1647.2 289.625 1552.9 336.186C1549.67 337.726 1545 339.883 1540.25 342.127C1539.8 342.347 1539.53 342.435 1539.53 342.479C1534.47 344.855 1529.35 347.232 1525.86 348.86C1519.36 351.721 1504.78 357.75 1498.37 360.522C1488.64 364.043 1476.31 369.324 1466.44 372.537C1402.28 395.245 1334.88 409.724 1266.81 412.892C1141.26 416.237 1015.22 397.313 895.088 361.887C807.56 336.098 722.901 300.935 642.816 257.807C562.103 214.019 484.35 162.001 398.75 126.487C343.91 103.646 284.856 87.4954 224.77 86.3952C163.428 85.383 101.189 100.214 48.3675 131.328C34.3774 139.645 20.9701 149.151 8.50447 159.889C-2.07786 168.999 -1.94334 185.238 8.63899 194.347C17.9209 202.357 31.8215 201.829 40.655 193.379C65.1827 169.879 95.988 151.791 129.304 140.129C327.723 72.0045 507.174 225.197 676.76 304.192C854.597 388.688 1052.25 436.217 1250.22 433.268C1454.79 428.339 1649.39 325.624 1795.84 189.991C1813.15 173.84 1830.14 156.764 1846.33 139.117L1840.82 117.113L1840.86 117.201Z" fill="#C53527"/>
<path d="M1897.4 0.180664C1897.4 0.180664 1889.87 32.0426 1726.2 85.2926C1598.99 126.66 1566.71 252.216 1558.59 307.93C1731.36 233.688 1812.03 127.452 1812.03 127.452C1740.06 233.908 1603.03 310.263 1555.9 334.379C1555.9 334.819 1555.9 335.039 1555.9 335.039L1554.6 346.173C1554.6 346.173 1624.6 379.18 1702.04 351.146C1907.23 276.816 1897.36 0.180664 1897.36 0.180664H1897.4Z" fill="#C53527"/>
</svg>
