<svg width="22" height="22" viewBox="0 0 22 22" fill="none" xmlns="http://www.w3.org/2000/svg">
<g clip-path="url(#clip0_1_1527)">
<path d="M21.147 12.0397C20.6775 11.2541 20.0609 10.6495 19.2845 10.2066C19.3063 10.1905 19.3134 10.1806 19.3208 10.1805C19.6476 10.1736 19.6517 10.1731 19.601 9.80524C19.3854 8.23908 18.8054 6.82778 17.8462 5.57904C17.6278 5.29472 17.6271 5.2962 17.3463 5.52091C16.6772 6.05619 15.9545 6.50257 15.1742 6.8499C15.0434 6.90812 14.9952 6.96188 15.0139 7.12396C15.1123 7.97819 15.1884 8.83503 15.2781 9.69034C15.2939 9.84095 15.2495 9.91435 15.1051 9.97388C14.275 10.3162 13.5932 10.8594 13.0616 11.5904C12.9752 11.7092 12.8861 11.7474 12.7453 11.7469C11.3564 11.7418 9.96748 11.7438 8.57858 11.7439C8.34947 11.7439 8.33734 11.7453 8.35597 11.9806C8.4166 12.7464 8.48412 13.5118 8.55536 14.2766C8.5744 14.481 8.59615 14.4878 8.78648 14.445C9.87378 14.2005 10.9713 14.1304 12.054 14.2416C12.1282 14.7767 12.201 15.3022 12.275 15.8356C12.141 15.823 11.9831 15.8073 11.825 15.7933C10.8926 15.7105 9.97038 15.7707 9.05792 15.9874C8.93107 16.0176 8.89065 16.0606 8.92647 16.1974C9.15982 17.089 9.44377 17.9611 9.9244 18.7508C10.0743 18.9971 10.2548 19.2325 10.4575 19.4358C10.8332 19.8125 11.2624 19.8197 11.6302 19.4381C11.8733 19.1859 12.0897 18.8935 12.2598 18.5859C12.496 18.1588 12.6775 17.7006 12.8844 17.2516C12.8967 17.2725 12.9199 17.3105 12.942 17.3492C13.2174 17.8311 13.49 18.3147 13.7702 18.7937C13.8187 18.8765 13.8386 18.9382 13.7881 19.0279C13.7581 19.0812 13.7638 19.1552 13.7535 19.2199C13.8181 19.2164 13.8829 19.2142 13.9474 19.2085C13.9677 19.2067 13.9871 19.1954 14.0096 19.1875C14.3251 19.6173 14.6392 20.0453 14.9537 20.4738C11.7558 21.9168 6.90736 21.634 3.51703 17.9022C0.276412 14.3352 -0.0118759 8.83344 2.84243 4.86469C5.70332 0.886777 10.9747 -0.488462 15.3888 1.63787C19.9329 3.82685 21.5843 8.4731 21.147 12.0397ZM4.63376 11.7439C3.97133 11.7439 3.30891 11.7448 2.64649 11.743C2.53003 11.7427 2.44797 11.7566 2.46587 11.9119C2.6629 13.6216 3.28856 15.1481 4.35395 16.4891C4.42891 16.5835 4.48682 16.6277 4.59921 16.5332C5.32231 15.9252 6.11638 15.4325 6.97769 15.0523C7.0692 15.0119 7.09515 14.964 7.0842 14.8544C6.98746 13.8856 6.89728 12.9162 6.81526 11.946C6.80238 11.7936 6.75893 11.7393 6.60497 11.7409C5.94796 11.7478 5.29084 11.7438 4.63376 11.7439ZM4.62788 10.1793C5.29029 10.1793 5.95273 10.1754 6.61507 10.1823C6.7625 10.1839 6.80269 10.1332 6.81495 9.98785C6.89632 9.0231 6.98364 8.05879 7.08199 7.09569C7.09554 6.96292 7.05963 6.91105 6.95269 6.86407C6.12549 6.50064 5.36515 6.02494 4.66315 5.45216C4.53374 5.34658 4.41572 5.36219 4.30907 5.49901C3.27977 6.81628 2.66469 8.30781 2.47445 9.97884C2.45346 10.1632 2.46053 10.1788 2.64066 10.179C3.30307 10.1797 3.96547 10.1793 4.62788 10.1793ZM11.0434 10.1793C11.8819 10.1793 12.7205 10.1769 13.5589 10.1817C13.6945 10.1824 13.7558 10.1485 13.7424 9.99929C13.6715 9.21278 13.6048 8.42587 13.5389 7.6389C13.5261 7.486 13.4659 7.44008 13.3101 7.47643C11.8041 7.82801 10.2966 7.82738 8.78925 7.48049C8.60211 7.43742 8.57404 7.45026 8.55576 7.64857C8.48424 8.42419 8.42203 9.20068 8.3517 9.97642C8.33771 10.1307 8.38493 10.184 8.54394 10.1826C9.37705 10.1755 10.2103 10.1793 11.0434 10.1793ZM11.0419 6.17598C11.7165 6.17535 12.3819 6.09299 13.0395 5.94254C13.1308 5.92164 13.2093 5.90139 13.1733 5.76118C12.9418 4.85841 12.656 3.976 12.1683 3.17903C12.0046 2.91137 11.8016 2.65726 11.5741 2.44342C11.2305 2.12046 10.8573 2.1202 10.515 2.44778C10.278 2.67458 10.0681 2.94396 9.89762 3.2263C9.42897 4.00231 9.15434 4.86059 8.92516 5.73559C8.88746 5.87956 8.94375 5.9189 9.05983 5.94501C9.71268 6.09186 10.3726 6.17418 11.0419 6.17598ZM8.36296 2.78349C8.34361 2.63409 8.24995 2.6844 8.17351 2.71186C7.28807 3.03 6.47497 3.48264 5.73494 4.06954C5.59236 4.18261 5.58589 4.21861 5.73928 4.3198C6.22499 4.64025 6.71419 4.95563 7.20923 5.26098C7.40709 5.38303 7.42779 5.36353 7.48728 5.14145C7.6956 4.3638 7.95374 3.60504 8.31761 2.8863C8.33454 2.85286 8.348 2.81762 8.36296 2.78349ZM13.8228 2.68017C13.6963 2.70758 13.7254 2.7845 13.7651 2.86254C14.1421 3.60513 14.4084 4.38981 14.6199 5.19451C14.6565 5.33396 14.7191 5.36427 14.8349 5.29079C15.3397 4.97053 15.8468 4.65379 16.3466 4.32567C16.5123 4.2169 16.5039 4.18307 16.3414 4.05542C15.6118 3.48225 14.8145 3.034 13.9439 2.7215C13.9038 2.70713 13.8634 2.69398 13.8228 2.68017ZM8.38346 19.2C8.3532 19.1281 8.34247 19.0978 8.3282 19.0694C7.95738 18.3303 7.68875 17.5528 7.47818 16.7532C7.43264 16.5803 7.39533 16.5561 7.24647 16.6486C6.73877 16.9638 6.23472 17.2853 5.73446 17.6126C5.58675 17.7092 5.59513 17.7499 5.73856 17.8633C6.26141 18.2769 6.82206 18.6288 7.42544 18.9073C7.68162 19.0255 7.94561 19.1271 8.20952 19.2267C8.25369 19.2434 8.3156 19.2117 8.38346 19.2Z" fill="#301712"/>
<path d="M12.8203 14.5899C12.8809 12.3871 14.3077 10.7267 16.3264 10.3792C18.4129 10.02 20.5379 11.5043 20.9887 13.6126C21.182 14.5166 21.0328 15.3652 20.6821 16.192C19.9596 17.895 18.952 19.4083 17.6894 20.7461C17.5248 20.9204 17.3258 21.0626 17.1352 21.2097C17.0131 21.3039 16.8714 21.3055 16.7483 21.2108C16.566 21.0706 16.3782 20.933 16.2178 20.7691C15.294 19.825 14.5505 18.743 13.8999 17.5936C13.485 16.8605 13.1182 16.1033 12.9281 15.2736C12.8669 15.0064 12.8419 14.7307 12.8203 14.5899ZM16.9681 11.4729C15.331 11.4697 14.0058 12.8023 14.003 14.4547C14.0001 16.0939 15.3259 17.4437 16.9453 17.4504C18.563 17.4571 19.8936 16.1131 19.8966 14.4695C19.8996 12.814 18.5921 11.476 16.9681 11.4729Z" fill="#301712"/>
</g>
<defs>
<clipPath id="clip0_1_1527">
<rect width="20.3349" height="20.6384" fill="white" transform="translate(0.879883 0.6427)"/>
</clipPath>
</defs>
</svg>
