<svg width="1915" height="222" viewBox="0 0 1915 222" fill="none" xmlns="http://www.w3.org/2000/svg">
<g clip-path="url(#clip0_1_143)">
<path d="M1922.77 210.802C1907.34 218.28 1890.39 222 1873.27 222C1858.38 222 1843.61 219.188 1829.85 213.489C1822.47 210.437 1815.22 207.074 1808.2 203.021C1788.54 191.652 1751.24 155.069 1730.66 155.061C1708.28 155.053 1694.9 181.417 1677.29 182.295C1657.64 183.273 1654.58 158.322 1625.43 164.31C1603.29 168.852 1599.44 198.369 1574.6 199.961C1554.09 201.273 1553.41 184.539 1537.58 178.404C1528.58 174.917 1520.78 174.319 1513.71 175.593C1496.3 188.491 1478.77 201.444 1459.46 210.802C1444.03 218.28 1427.08 222 1409.96 222C1409.7 222 1409.44 222 1409.19 221.992C1409.01 221.992 1408.82 222 1408.65 222C1400.08 222 1391.56 220.943 1383.26 218.886C1379.22 217.923 1375.24 216.742 1371.33 215.337L1361.59 212.223C1331.39 202.446 1307.74 175.818 1281.64 161.374C1273.37 156.8 1266.71 155.309 1261.05 155.76C1253.16 157.523 1246.39 162.368 1240 167.447C1232.63 174.405 1225.57 182.054 1215 183.079C1197.14 184.818 1185.69 161.382 1164.28 165.575C1155.45 167.307 1147.35 174.568 1139.02 181.681C1131.78 190.371 1124.51 199.107 1111.3 199.953C1094.05 201.056 1090.82 189.4 1080.82 182.015C1076.02 179.305 1070.8 177.317 1064.87 177.294C1046.64 177.239 1029.17 193.539 1014.62 196.474C1008.65 201.258 1002.54 205.972 995.827 209.59C987.976 213.815 980.974 216.098 973.593 218.148C964.385 220.703 954.884 222 945.329 222C934.424 222 923.573 220.307 913.177 216.991L898.27 212.231C868.062 202.454 844.417 175.826 818.319 161.382C781.987 141.277 776.659 180.656 751.679 183.087C733.826 184.826 722.373 161.39 700.965 165.583C682.394 169.217 667.032 197.336 646.04 197.111C631.741 196.956 620.243 177.363 601.541 177.309C601.232 177.309 600.916 177.325 600.608 177.332C583.973 189.648 567.153 201.864 548.698 210.809C533.266 218.288 516.315 222.007 499.194 222.007C484.31 222.007 469.542 219.196 455.775 213.496C448.395 210.444 441.146 207.082 434.128 203.028C414.462 191.66 377.167 155.076 356.591 155.069C334.21 155.061 320.83 181.425 303.223 182.302C283.565 183.281 280.512 158.33 251.36 164.317C229.219 168.86 225.37 198.377 200.53 199.969C180.016 201.281 179.337 184.547 163.512 178.412C128.191 164.721 111.232 195.504 85.0573 209.598C77.2065 213.822 70.2039 216.106 62.8235 218.156C53.6153 220.71 44.114 222.007 34.5588 222.007C23.6539 222.007 12.8031 220.314 2.40725 216.999L-12.5001 212.238C-42.7082 202.462 -66.3534 175.834 -92.4509 161.39C-128.782 141.285 -134.111 180.664 -159.091 183.094C-176.944 184.834 -188.397 161.398 -209.805 165.591C-228.376 169.225 -243.738 197.344 -264.73 197.119C-279.029 196.964 -290.527 177.371 -309.229 177.317C-329.735 177.255 -349.278 197.903 -364.787 196.925C-388.27 195.434 -403.617 146.767 -436.007 169.233V-101.985H1979.99V173.388C1961.61 187.008 1943.18 200.908 1922.76 210.802H1922.77Z" fill="#FFFCED"/>
</g>
<defs>
<clipPath id="clip0_1_143">
<rect width="1920" height="222" fill="white" transform="matrix(1 0 0 -1 -5 222)"/>
</clipPath>
</defs>
</svg>
