<svg width="1918" height="1074" viewBox="0 0 1918 1074" fill="none" xmlns="http://www.w3.org/2000/svg">
<g opacity="0.25" clip-path="url(#clip0_1_208)">
<path d="M0.5 676.625C96.5765 646.291 186.476 695.96 273.389 729.219C315.665 745.391 362.655 761.377 408.393 762.796C541.582 766.929 639.641 647.128 781.535 708.395C899.974 759.535 950.163 885.09 941.898 1008.16C940.417 1030.27 936.144 1052.29 932.064 1073.99H837.31C839.433 1066.08 845.011 1059.12 848.606 1051.45C882.81 978.338 881.066 880.076 829.9 815.064C757.736 723.385 649.219 800.162 566.579 824.864C474.468 852.404 381.167 842.102 295.382 800.726C202.724 756.045 119.529 694.532 19.0915 772.093C12.7034 777.028 7.41673 783.47 0.508811 787.348V676.625H0.5Z" fill="#E1E1E1"/>
<path d="M0.5 460.104C216.972 398.759 389.361 219.076 441.056 0H498.892C494.663 33.0566 486.53 66.1308 477.076 98.1299C407.036 335.184 230.664 530.571 0.5 621.263V460.104Z" fill="#E1E1E1"/>
<path d="M0.5 918.975C3.39886 919.231 3.62795 916.895 4.94962 915.424C27.5942 890.254 47.0491 868.416 78.822 853.946C162.351 815.893 227.941 878.049 300.792 907.272C374.946 937.015 453.841 943.536 532.145 926.986C588.704 915.036 641.773 889.646 699.451 914.71C760.124 941.077 792.963 1011.23 767.79 1073.98H713.029C719.575 1035.89 700.931 1003.79 668.63 984.886C593.065 940.681 503.509 990.843 424.438 995.232C345.165 999.629 307.506 975.482 240.074 945.819C144.65 903.835 74.3636 957.972 37.2071 1044.86C35.1277 1049.72 28.581 1070.85 26.9862 1072.78C26.3078 1073.59 25.5941 1073.98 24.5191 1074L0.508811 1073.98V918.975H0.5Z" fill="#E1E1E1"/>
<path d="M0.5 227.589C7.28456 227.483 13.7872 225.174 20.184 223.28C121.961 193.158 209.077 130.208 269.777 43.4468C279.663 29.32 288.201 14.3736 297.69 0H361.069C318 173.726 174.238 311.134 0.5 351.84V227.589Z" fill="#E1E1E1"/>
<path d="M0.5 46.7516C41.7801 46.875 80.7076 28.9851 109.405 0H167.858C138.35 57.556 82.0205 102.633 20.8537 123.07C14.5449 125.176 7.0731 127.617 0.5 127.943V46.7516Z" fill="#E1E1E1"/>
<path d="M671.185 2.36798e-05C672.982 1.78901 661.528 32.4574 659.801 37.2162C628.424 123.563 577.708 209.391 516.761 278.051C472.741 327.64 392.41 384.13 376.673 449.247C359.016 522.314 403.547 577.34 479.472 565.54C514.955 560.023 547.063 537.022 575.073 515.951C678.375 438.222 773.605 342.287 907.235 319.012C1050.47 294.072 1190 381.292 1331.06 341.652C1472.74 301.836 1509.56 128.322 1490.77 2.36798e-05H1606.45C1613.35 99.1963 1591 201.636 1533.62 283.339C1483.61 354.537 1404.71 412.154 1317.52 426.528C1186.22 448.172 1056.36 379.212 925.694 403.897C773.711 432.609 677.643 584.77 530.894 626.789C374.444 671.593 265.917 560.147 361.306 414.199C380.814 384.35 405.688 358.361 427.478 330.258C502.558 233.423 554.966 120.638 578.897 -0.00878906H671.194L671.185 2.36798e-05Z" fill="#E1E1E1"/>
<path d="M1916.56 569.594C1893.53 542.098 1866.4 519.82 1832.83 506.274C1663.06 437.764 1572.93 600.368 1440.75 657.995C1368.21 689.615 1320.87 671.557 1247.71 665.565C1182.02 660.18 1106.59 673.902 1088.71 747.726C1059.85 866.874 1188.53 955.478 1172.03 1073.99H1035.43L1039.17 1037.75C1039.81 902.689 912.222 695.369 1055.97 593.203C1190.41 497.647 1371.69 616.548 1517.79 556.648C1581.59 530.492 1624.65 470.574 1688.06 442.682C1762.22 410.048 1851.58 418.032 1916.55 466.881V569.603L1916.56 569.594Z" fill="#E1E1E1"/>
<path d="M874.237 0C875.832 1.42766 854.817 33.3386 852.597 36.802C788.646 136.862 711.082 229.563 626.301 312.509C616.018 322.573 583.673 348.112 580.051 359.763C578.342 365.253 578.289 368.954 583.179 372.77C591.709 379.433 604.273 369.175 610.908 363.543C623.737 352.651 635.94 337.775 648.39 325.975C723.726 254.6 807.044 179.454 912.345 158.039C1026.11 134.897 1132.25 195.176 1234.15 111.913C1267.84 84.3908 1292.49 42.9709 1300.03 0H1388.63C1389.94 101.611 1339.56 206.668 1235.07 233.388C1092 269.978 937.395 162.807 801.255 243.813C727.743 287.551 682.816 369.298 614.45 417.521C586.757 437.05 536.674 451.944 520.462 410.876C499.377 357.462 565.91 313.046 597.392 279.91C673.07 200.234 731.735 103.682 768.398 0H874.228H874.237Z" fill="#E1E1E1"/>
<path d="M1916.56 809.486L1898.74 770.093C1859.06 690.522 1768.58 625.652 1677.49 662.154C1589.47 697.423 1529.09 815.602 1432.15 824.097C1390.02 827.79 1330.88 809.397 1300.6 848.834C1270.23 888.386 1323.23 929.982 1344.82 958.456C1369.67 991.24 1387.79 1033.01 1392.3 1073.99H1295.08C1295.99 1037.11 1290.17 1000.03 1275.61 966.132C1252.04 911.255 1164.9 834.064 1233.54 776.878C1283.06 735.626 1353.89 761.438 1411.42 757.878C1514.04 751.524 1591.12 653.43 1680.66 612.441C1758.73 576.697 1831.52 586.585 1888.86 652.011C1893.27 657.043 1916.53 689.059 1916.53 693.237V809.494L1916.56 809.486Z" fill="#E1E1E1"/>
<path d="M1916.56 1073.98H1898.1C1901.25 1010.47 1884.43 948.004 1847.42 896.441C1822.91 862.309 1776.21 817.77 1730.41 834.382C1698.32 846.023 1687.06 888.025 1656.5 903.2C1613.64 924.465 1529.88 893.718 1507.77 947.669C1489.58 992.059 1531.04 1035.22 1546.15 1073.98H1492.62C1475.31 1030.41 1429.53 978.091 1461.46 930.89C1487.09 893.022 1543.53 892.228 1582.48 877.176C1647.79 851.937 1660.45 774.931 1736.43 764.118C1814.07 753.058 1875.58 806.163 1905.31 873.017C1907.11 877.062 1916.57 900.028 1916.57 902.363V1073.98H1916.56Z" fill="#E1E1E1"/>
<path d="M1761.5 0C1762.64 80.337 1734.44 161.291 1679.68 220.23C1660.66 240.702 1630.53 259.994 1624.21 289.04C1619.89 308.948 1626.24 330.698 1647.08 337.669C1684.11 350.06 1719 314.915 1750.81 299.959C1797.08 278.218 1862.86 266.4 1913.46 275.583C1914.49 275.768 1916.55 276.526 1916.55 277.416V365.376C1862.88 339.097 1801.91 331.059 1743.49 345.53C1699.23 356.493 1616.27 415.441 1581.31 360.353C1551.42 313.275 1599.22 265.175 1623.44 229.211C1668.29 162.604 1689.05 80.2488 1681.5 0H1761.49H1761.5Z" fill="#E1E1E1"/>
<path d="M955.176 469.058C999.029 464.114 1031.45 484.745 1026.68 531.928C1022.73 571.013 986.394 600.183 965.529 630.728C942.717 664.119 923.562 719.931 870.598 703.028C845.698 695.079 844.614 681.481 830.569 664.313C807.519 636.157 756.115 616.954 773.623 570.51C787.818 532.862 834.975 524.006 867.294 509.147C894.238 496.757 925.703 472.389 955.185 469.067L955.176 469.058ZM825.441 609.762C834.931 619.871 845.081 628.798 855.143 639.735C866.052 651.588 875.012 652.169 888.414 643.445C903.552 633.592 934.082 599.152 947.475 584.382C963.159 567.082 998.227 532.554 982.332 507.676C964.833 480.294 923.059 512.426 904.618 524.314C881.973 538.926 855.866 556.146 834.472 572.291C819.643 583.474 809.555 592.842 825.45 609.771L825.441 609.762Z" fill="#E1E1E1"/>
<path d="M1916.56 0C1920.27 3.71016 1908.1 32.2723 1905.69 37.7362C1892.71 67.3029 1875.16 94.8163 1854.99 119.915C1845.16 132.147 1825.18 149.323 1822.36 164.789C1816.74 195.564 1839.39 206.192 1865.71 195.828C1871.54 193.528 1913.94 169.302 1916.55 172.236C1916.74 179.815 1916.34 187.456 1916.5 195.044C1916.56 198.075 1919.16 201.671 1915.71 202.764C1909.93 204.597 1900.93 205.125 1894.13 207.029C1858.9 216.873 1806.66 259.782 1773.22 233.714C1733.14 202.473 1780.28 146.327 1796.59 115.667C1815.78 79.6407 1828.62 40.2919 1835.33 0H1916.55H1916.56Z" fill="#E1E1E1"/>
<path d="M1506.47 390.299C1547.26 384.791 1560.04 422.58 1530.16 449.661C1451.63 520.842 1304.48 523.732 1204.67 515.448C1183.79 513.712 1171.65 497.999 1197.61 494.897C1213.1 493.046 1230.76 495.382 1246.54 494.606C1320.94 490.949 1391.33 463.33 1452.27 422.245C1468.31 411.432 1486.68 392.978 1506.47 390.308V390.299Z" fill="#E1E1E1"/>
<path d="M1788.58 1073.98V1056.15C1788.58 1038.59 1769.32 1015.99 1751.73 1013.02C1729.46 1009.26 1673.8 1027.22 1650.75 1035.23C1630.53 1042.27 1619.1 1049.9 1624.9 1073.98H1586.75C1581.12 1048.27 1592.16 1020.39 1613.41 1005.3C1637 988.543 1665.31 991.425 1691.29 982.277C1726.4 969.913 1734.7 938.989 1780.88 951.873C1824.9 964.149 1842.52 1013.36 1843.99 1054.87C1844.09 1057.91 1844.8 1073.98 1842.09 1073.98H1788.57H1788.58Z" fill="#E1E1E1"/>
<path d="M992.368 0C990.967 4.21249 987.654 7.03257 985.988 11.4566C975.591 39.1374 1002.59 50.8055 1025.13 53.978C1072.51 60.6493 1123.33 39.2608 1150.5 0H1220.03C1217.84 11.2274 1210.26 23.8297 1203.31 33.1095C1179.54 64.8353 1145.56 80.3546 1106.25 82.4873C1061.86 80.8393 1014.91 84.0471 970.772 81.2535C964.375 80.8481 955.714 79.4997 949.484 77.9311C912.944 68.6953 909.191 27.8659 927.747 0.00881274H992.35L992.368 0Z" fill="#E1E1E1"/>
<path d="M336.459 1073.98H145.716L151.972 1067.32C206.671 1025.28 285.593 1027.42 336.459 1073.98Z" fill="#E1E1E1"/>
<path d="M639.183 1073.98H502.584C528.841 1044.44 586.061 1029.35 621.094 1050.85C629.112 1055.77 637.87 1064.42 639.183 1073.98Z" fill="#E1E1E1"/>
<path d="M825.441 609.762C809.555 592.833 819.635 583.474 834.464 572.282C855.866 556.137 881.964 538.917 904.609 524.305C923.051 512.408 964.824 480.277 982.323 507.667C998.218 532.545 963.15 567.074 947.466 584.373C934.082 599.143 903.552 633.583 888.405 643.436C875.004 652.161 866.051 651.588 855.135 639.726C845.072 628.789 834.913 619.862 825.432 609.754L825.441 609.762Z" fill="#E1E1E1"/>
</g>
<defs>
<clipPath id="clip0_1_208">
<rect width="1917" height="1074" fill="white" transform="translate(0.5)"/>
</clipPath>
</defs>
</svg>
