<svg width="119" height="96" viewBox="0 0 119 96" fill="none" xmlns="http://www.w3.org/2000/svg">
<g clip-path="url(#clip0_1_1055)">
<path d="M59.4341 95.0215H57.1736L49.4303 93.9413C37.473 90.4232 25.3417 85.853 13.9955 80.7026C7.79122 77.8859 5.6722 76.1353 5.33412 68.9343C4.87864 59.1983 5.90702 49.1834 5.60714 39.4121C3.55319 36.6968 1.58553 34.1828 0.741039 30.7563C0.535927 29.9211 0.507636 29.0437 0.247356 28.224C0.311012 27.2199 0.159653 26.1214 0.247356 25.1299C0.879666 17.943 6.89014 11.9644 12.6899 8.33649C33.9323 -4.94864 64.8123 0.0299405 87.5103 7.09149C94.006 9.1125 102.25 11.9785 108.013 15.5079C118.802 22.1174 122.384 33.1083 112.122 42.3584C111.736 42.7063 110.804 43.1429 110.712 43.6259C110.538 53.6521 110.667 63.705 110.279 73.7115C110.104 78.2239 110.548 83.1208 105.259 84.7446C98.9457 86.684 91.3933 87.9966 84.8608 89.4683C76.3989 91.3752 67.9031 93.1512 59.4341 95.0215ZM75.9604 9.3815C58.2374 5.10429 38.4957 2.42135 21.1999 9.77725C13.1482 13.201 2.09053 21.0808 6.48416 31.2267C7.70776 34.0533 8.95682 34.7617 11.5455 36.1715C15.0069 38.0573 18.9946 39.8656 22.6116 41.4669C29.12 44.3484 35.9806 47.1046 43.0464 48.1919C43.3463 47.906 41.3984 46.2483 41.1381 45.9441C36.2947 40.2938 37.0246 32.5759 40.7279 26.5481C46.413 17.2937 57.8484 12.6912 68.1634 10.8307C70.3856 10.4293 72.6786 10.3012 74.8571 9.90119C75.0042 9.87443 76.2943 9.70965 75.959 9.3815H75.9604ZM78.3326 14.9051C66.6696 15.4333 50.7614 19.2443 44.7198 30.238C41.3093 36.4433 42.9389 42.8612 49.6906 45.5878C50.6157 45.961 52.7093 46.3413 53.3557 46.861C54.0022 47.3807 54.1648 48.882 54.2158 49.6608C54.9641 61.1545 53.4477 73.3862 54.0701 84.9629C54.1719 86.7065 55.0786 89.3486 57.0265 89.7542C58.2996 90.019 61.8091 89.0838 63.2775 88.7895C74.1809 86.6009 85.3432 84.1559 96.1646 81.5927C98.4011 81.0632 101.519 80.5195 103.581 79.6956C104.147 79.4689 104.556 79.3774 104.718 78.7182C104.982 77.6563 105.025 75.5874 105.068 74.4255C105.243 69.5765 105.274 64.6486 105.351 59.801C105.437 54.3577 105.045 48.6003 105.504 43.2175C105.846 39.2051 108.137 39.3445 110.361 36.8024C114.777 31.7548 113.05 25.9833 108.237 22.0385C100.531 15.722 87.9842 14.4671 78.3355 14.9037L78.3326 14.9051ZM11.3404 42.0049L11.1253 42.357C10.7717 48.3989 10.7774 54.4436 10.7066 60.5038C10.6684 63.8304 10.1592 68.3414 10.8778 71.5722C11.4436 74.1115 14.2855 74.9382 16.396 75.9212C25.1083 79.9787 35.5237 84.2081 44.666 87.1529C45.3663 87.3783 48.6933 88.5148 49.1304 88.2106C49.5152 87.943 48.7895 86.0263 48.7117 85.5164C48.4175 83.5898 48.6891 81.9054 48.7032 80.052C48.7499 74.1439 48.9239 68.2273 48.9861 62.3333C49.0144 59.5884 49.0045 56.8336 48.9182 54.0915C47.6989 53.8803 46.3664 53.9479 45.0961 53.8183C39.848 53.2803 34.1261 51.61 29.1681 49.8467C23.0317 47.6651 17.2023 44.7991 11.3389 42.0063L11.3404 42.0049Z" fill="#F04231"/>
<path d="M64.9073 55.8168C66.4336 55.5323 67.578 56.8506 67.752 58.2632C67.9854 60.1588 67.9288 62.3756 67.9147 64.3008C67.8934 67.1725 67.7011 70.1357 67.6204 73.0088C67.5964 73.8848 67.7958 77.0494 67.5525 77.5817C67.3361 78.0564 66.1153 78.9 65.5651 78.9788C64.0388 79.1985 62.7444 78.8084 62.4615 77.1705C62.0485 74.7636 62.504 71.5384 62.545 69.0822C62.6016 65.7669 62.3922 61.9418 62.8392 58.6871C63.0288 57.3041 63.347 56.107 64.9059 55.8168H64.9073Z" fill="#F04231"/>
<path d="M58.1258 23.3357C61.0624 22.8752 62.0512 26.2313 60.0666 27.9396C59.1019 28.7706 57.6137 28.9241 56.4213 29.7945C54.6233 31.1071 53.6685 32.7323 53.9401 35.0294C54.2131 37.332 57.3379 40.1136 54.2513 41.8374C52.3813 42.8824 51.5849 42.1853 50.5621 40.6431C47.5435 36.0913 48.1135 29.6339 52.4449 26.1186C53.5737 25.2032 56.7226 23.5568 58.1258 23.3371V23.3357Z" fill="#F04231"/>
</g>
<defs>
<clipPath id="clip0_1_1055">
<rect width="118" height="95" fill="white" transform="translate(0.220703 0.0214844)"/>
</clipPath>
</defs>
</svg>
