<svg width="795" height="188" viewBox="0 0 795 188" fill="none" xmlns="http://www.w3.org/2000/svg">
<g opacity="0.1">
<path d="M769.652 50.8144C764.903 56.1406 759.98 61.3718 755.135 66.3176C723.251 98.3703 685.941 125.344 645.18 145.47C643.785 146.135 641.769 147.067 639.714 148.038C639.521 148.133 639.404 148.171 639.404 148.19C637.214 149.217 635.005 150.244 633.493 150.948C630.682 152.185 624.383 154.791 621.612 155.989C617.406 157.511 612.076 159.793 607.812 161.182C580.076 170.998 550.945 177.256 521.523 178.626C467.253 180.071 412.77 171.892 360.846 156.579C323.012 145.432 286.419 130.233 251.802 111.591C216.915 92.6636 183.306 70.1791 146.306 54.8281C122.602 44.9555 97.0757 37.9743 71.1038 37.4987C44.5891 37.0612 17.6869 43.4718 -5.14515 56.9206C-11.1923 60.5158 -16.9876 64.6246 -22.3758 69.2661C-26.9499 73.2037 -26.8918 80.2229 -22.3176 84.1606C-18.3056 87.6226 -12.2971 87.3944 -8.47886 83.7421C2.12311 73.5841 15.4386 65.766 29.8394 60.725C115.605 31.2784 193.172 97.4952 266.475 131.64C343.344 168.163 428.78 188.707 514.352 187.433C602.772 185.302 686.89 140.904 750.192 82.2774C757.674 75.2962 765.019 67.9155 772.016 60.2875L769.632 50.7763L769.652 50.8144Z" fill="#C53527"/>
<path d="M794.093 0.23291C794.093 0.23291 790.837 14.0051 720.092 37.0221C665.105 54.9032 651.15 109.174 647.642 133.256C722.321 101.165 757.189 55.2456 757.189 55.2456C726.081 101.261 666.85 134.264 646.479 144.689C646.479 144.879 646.479 144.974 646.479 144.974L645.917 149.787C645.917 149.787 676.173 164.053 709.645 151.936C798.338 119.807 794.074 0.23291 794.074 0.23291H794.093Z" fill="#C53527"/>
</g>
</svg>
