<svg width="196" height="67" viewBox="0 0 196 67" fill="none" xmlns="http://www.w3.org/2000/svg">
<g clip-path="url(#clip0_1_21)">
<path d="M27.1635 26.0654C28.5819 26.4808 30.0225 27.0019 31.4928 27.6214L27.6388 37.8027L25.4333 43.5019L25.4073 43.5529C24.2526 45.8669 22.4556 46.3552 21.1561 46.3552H16.4518V43.8663L17.6734 43.6659C19.0286 43.3088 20.0162 42.682 20.6957 41.7492C21.4791 40.6742 22.2291 39.151 22.9197 37.216L27.1635 26.0654Z" fill="white"/>
<path d="M54.3345 30.2012C50.8704 28.4339 47.3988 26.5098 43.879 24.4546L38.2094 9.87135L34.5188 19.6154C33.0708 19.0178 31.6302 18.5003 30.2044 18.063L34.775 6.05609C34.9532 5.49127 34.994 5.13416 34.994 4.9301C34.994 4.54748 34.8567 4.21223 34.5671 3.8697C34.2812 3.53445 33.7094 3.2648 32.9111 3.08624L31.6116 2.90404V0.396973H37.2106C38.8443 0.396973 40.3703 0.867048 41.7441 1.78898C43.1179 2.71455 44.1203 3.9608 44.7255 5.49492L54.3345 30.2012Z" fill="white"/>
<path d="M146.192 15.8147C144.885 16.3066 143.403 16.8241 141.721 17.3707C140.752 17.6841 139.85 18.0594 139.007 18.4858L135.658 9.87136L125.288 37.2705C123.328 38.167 121.352 38.9541 119.377 39.6282C119.719 38.914 120.049 38.105 120.368 37.2122L132.227 6.05609C132.406 5.49127 132.446 5.13416 132.446 4.9301C132.446 4.54748 132.309 4.21223 132.019 3.8697C131.734 3.53445 131.162 3.2648 130.363 3.08624L129.064 2.90404V0.396973H134.663C136.297 0.396973 137.823 0.867048 139.196 1.78898C140.57 2.71455 141.573 3.9608 142.178 5.49492L146.192 15.8147Z" fill="white"/>
<path d="M114.469 0.396973V2.88582L113.228 3.08624C112.185 3.33039 111.424 3.66199 110.967 4.07012C110.548 4.44545 110.288 4.95561 110.169 5.63339C110.017 6.50795 109.943 7.68496 109.943 9.13162V37.6131C109.943 39.0597 110.017 40.2368 110.169 41.1113C110.221 41.4138 110.303 41.6834 110.414 41.9203C107.73 42.3721 105.075 42.6017 102.472 42.6017H102.342C102.305 42.3721 102.287 42.1353 102.287 41.8911V11.9557L87.2307 41.4356C86.6255 41.3409 86.024 41.2388 85.4263 41.1332C84.3161 40.9364 83.347 40.2586 82.8272 39.2747C82.8235 39.2674 82.8198 39.2602 82.8161 39.2529L82.7938 39.2091L72.6056 15.0859V37.7005C72.6056 37.7734 72.6056 37.8463 72.6056 37.9155C71.1019 37.4272 69.6093 36.9061 68.1279 36.3486V8.41376C68.1279 6.06703 67.7269 4.96654 67.389 4.45274C66.9583 3.80046 66.0932 3.34132 64.8234 3.08624L63.561 2.88218V0.396973H70.0178C71.3061 0.396973 72.5128 0.735864 73.6081 1.39907C74.6997 2.06592 75.55 2.98785 76.144 4.15029L76.1663 4.19037L87.2233 30.9154L101.499 3.09717C102.35 1.4428 104.08 0.396973 105.97 0.396973H114.472H114.469Z" fill="white"/>
<path d="M193.212 34.8801L192.837 35.802C192.339 36.7968 191.682 37.788 190.887 38.75C190.126 39.6719 189.131 40.4554 187.928 41.0822C186.755 41.6907 185.21 42.0004 183.332 42.0004H176.036C175.096 42.0004 173.875 41.862 173.392 41.2024C173.121 40.838 172.668 39.7995 172.668 36.9754V4.77341C172.668 3.58911 172.223 2.55422 171.346 1.69423C170.47 0.834252 169.401 0.396973 168.168 0.396973H160.49V2.88218L161.734 3.08624C163.059 3.38869 163.698 3.78224 164.002 4.06283C164.418 4.44181 164.682 4.9629 164.812 5.65161C164.975 6.52253 165.057 7.69589 165.057 9.13162V37.6167C165.057 39.0561 164.975 40.2258 164.812 41.0967C164.682 41.7854 164.418 42.3065 164.002 42.6892C163.698 42.9697 163.055 43.3633 161.734 43.6657L160.49 43.8698V46.355H193.108L196.004 34.8801H193.215H193.212Z" fill="white"/>
<path d="M159.836 43.6693C158.437 43.2867 157.393 42.5688 156.643 41.4792C155.782 40.2257 154.965 38.5349 154.215 36.4542L152.214 31.3125C150.777 33.7248 148.913 35.9841 146.5 37.8243L146.864 38.7608L146.886 38.8191L148.015 41.7307L148.029 41.7671C148.609 43.1263 149.522 44.2414 150.747 45.0759C151.987 45.9249 153.376 46.3549 154.88 46.3549H161.051V43.8661L159.833 43.6693H159.836Z" fill="white"/>
<path d="M152.37 21.507C151.46 22.5273 150.517 23.5294 149.589 24.4768C143.481 30.6169 136.334 35.7841 128.526 39.6395C128.258 39.767 127.872 39.9456 127.479 40.1314C127.441 40.1496 127.419 40.1569 127.419 40.1606C127 40.3573 126.576 40.5541 126.287 40.6889C125.748 40.9258 124.542 41.425 124.011 41.6546C123.205 41.9461 122.184 42.3834 121.367 42.6494C116.054 44.5297 110.473 45.7286 104.837 45.9909C94.4412 46.2679 84.0042 44.701 74.0574 41.7676C66.8098 39.6322 59.7999 36.7206 53.1686 33.1495C46.4854 29.5237 40.0473 25.2165 32.9593 22.2758C28.4185 20.3846 23.5286 19.0473 18.5533 18.9562C13.4741 18.8724 8.32058 20.1004 3.94679 22.6767C2.78836 23.3654 1.67821 24.1525 0.646024 25.0416C-0.230219 25.7959 -0.21908 27.1406 0.657163 27.8949C1.42573 28.5581 2.57673 28.5144 3.30817 27.8147C5.33912 25.8688 7.88988 24.3711 10.6486 23.4055C27.0781 17.7646 41.9371 30.4493 55.9793 36.9903C70.7046 43.9868 87.0711 47.9223 103.464 47.6781C120.402 47.27 136.516 38.7649 148.642 27.5341C150.075 26.1968 151.482 24.7829 152.823 23.3217L152.366 21.4997L152.37 21.507Z" fill="#C53527"/>
<path d="M157.052 11.8174C157.052 11.8174 156.428 14.4556 142.876 18.8649C132.342 22.2902 129.669 32.6865 128.997 37.2998C143.303 31.1524 149.982 22.3558 149.982 22.3558C144.023 31.1706 132.677 37.493 128.774 39.4899C128.774 39.5263 128.774 39.5445 128.774 39.5445L128.667 40.4665C128.667 40.4665 134.463 43.1994 140.875 40.8782C157.865 34.7235 157.048 11.8174 157.048 11.8174H157.052Z" fill="#C53527"/>
<path d="M56.9113 63.5879H59.2281V64.4479H56.9113V63.5879Z" fill="white"/>
<path d="M69.1527 61.4303V63.1904H71.9968V64.0977H69.1527V66.3133H68.0574V60.5303H72.3606V61.4303H69.1527Z" fill="white"/>
<path d="M80.5104 63.4237C80.5104 61.7147 81.8582 60.4502 83.685 60.4502C85.5117 60.4502 86.8595 61.7074 86.8595 63.4237C86.8595 65.14 85.5117 66.3972 83.685 66.3972C81.8582 66.3972 80.5104 65.1327 80.5104 63.4237ZM85.7568 63.4237C85.7568 62.243 84.8731 61.3903 83.685 61.3903C82.4968 61.3903 81.6132 62.2394 81.6132 63.4237C81.6132 64.608 82.4968 65.457 83.685 65.457C84.8731 65.457 85.7568 64.608 85.7568 63.4237Z" fill="white"/>
<path d="M95.1801 63.4237C95.1801 61.7147 96.5278 60.4502 98.3546 60.4502C100.181 60.4502 101.529 61.7074 101.529 63.4237C101.529 65.14 100.181 66.3972 98.3546 66.3972C96.5278 66.3972 95.1801 65.1327 95.1801 63.4237ZM100.426 63.4237C100.426 62.243 99.5427 61.3903 98.3546 61.3903C97.1664 61.3903 96.2828 62.2394 96.2828 63.4237C96.2828 64.608 97.1664 65.457 98.3546 65.457C99.5427 65.457 100.426 64.608 100.426 63.4237Z" fill="white"/>
<path d="M110.269 60.5303H112.846C114.758 60.5303 116.061 61.6854 116.061 63.4236C116.061 65.1618 114.758 66.3169 112.846 66.3169H110.269V60.5339V60.5303ZM112.794 65.4059C114.108 65.4059 114.959 64.6225 114.959 63.4236C114.959 62.2247 114.108 61.4413 112.794 61.4413H111.365V65.4059H112.794Z" fill="white"/>
<path d="M124.308 65.7048L124.686 64.8704C125.158 65.242 125.908 65.5081 126.632 65.5081C127.549 65.5081 127.935 65.1874 127.935 64.7574C127.935 63.5111 124.434 64.3274 124.434 62.1774C124.434 61.2446 125.191 60.4502 126.806 60.4502C127.512 60.4502 128.255 60.6324 128.767 60.964L128.422 61.7985C127.891 61.4924 127.311 61.343 126.795 61.343C125.886 61.343 125.514 61.6891 125.514 62.1264C125.514 63.3581 129.008 62.5564 129.008 64.6809C129.008 65.6064 128.243 66.4008 126.625 66.4008C125.707 66.4008 124.79 66.1202 124.3 65.7085L124.308 65.7048Z" fill="white"/>
<path d="M137.474 63.5879H139.79V64.4479H137.474V63.5879Z" fill="white"/>
</g>
<defs>
<clipPath id="clip0_1_21">
<rect width="196" height="66" fill="white" transform="translate(0 0.396973)"/>
</clipPath>
</defs>
</svg>
