<svg width="196" height="67" viewBox="0 0 196 67" fill="none" xmlns="http://www.w3.org/2000/svg">
<g clip-path="url(#clip0_1_245)">
<path d="M27.1635 26.1683C28.5819 26.5837 30.0225 27.1048 31.4928 27.7243L27.6388 37.9056L25.4333 43.6048L25.4073 43.6558C24.2526 45.9697 22.4556 46.458 21.1561 46.458H16.4518V43.9692L17.6734 43.7688C19.0286 43.4117 20.0162 42.7849 20.6957 41.852C21.4791 40.7771 22.2291 39.2539 22.9197 37.3189L27.1635 26.1683Z" fill="#301712"/>
<path d="M54.3345 30.3042C50.8704 28.5369 47.3988 26.6129 43.879 24.5576L38.2094 9.97438L34.5188 19.7184C33.0708 19.1208 31.6302 18.6034 30.2044 18.1661L34.775 6.15912C34.9532 5.5943 34.994 5.23719 34.994 5.03313C34.994 4.65051 34.8567 4.31526 34.5671 3.97273C34.2812 3.63748 33.7094 3.36782 32.9111 3.18927L31.6116 3.00707V0.5H37.2106C38.8443 0.5 40.3703 0.970075 41.7441 1.89201C43.1179 2.81758 44.1203 4.06382 44.7255 5.59795L54.3345 30.3042Z" fill="#301712"/>
<path d="M146.192 15.9177C144.885 16.4097 143.403 16.9271 141.721 17.4737C140.752 17.7871 139.85 18.1624 139.007 18.5888L135.658 9.97438L125.288 37.3736C123.328 38.27 121.352 39.0571 119.377 39.7312C119.719 39.017 120.049 38.208 120.368 37.3153L132.227 6.15912C132.406 5.5943 132.446 5.23719 132.446 5.03313C132.446 4.65051 132.309 4.31526 132.019 3.97273C131.734 3.63748 131.162 3.36782 130.363 3.18927L129.064 3.00707V0.5H134.663C136.297 0.5 137.823 0.970075 139.196 1.89201C140.57 2.81758 141.573 4.06383 142.178 5.59795L146.192 15.9177Z" fill="#301712"/>
<path d="M114.469 0.5V2.98885L113.228 3.18927C112.185 3.43341 111.424 3.76502 110.967 4.17315C110.548 4.54848 110.288 5.05864 110.169 5.73642C110.017 6.61098 109.943 7.78799 109.943 9.23465V37.7161C109.943 39.1628 110.017 40.3398 110.169 41.2143C110.221 41.5168 110.303 41.7864 110.414 42.0233C107.73 42.4752 105.075 42.7047 102.472 42.7047H102.342C102.305 42.4752 102.287 42.2383 102.287 41.9942V12.0587L87.2307 41.5387C86.6255 41.4439 86.024 41.3419 85.4263 41.2362C84.3161 41.0394 83.347 40.3616 82.8272 39.3778C82.8235 39.3705 82.8198 39.3632 82.8161 39.3559L82.7938 39.3122L72.6056 15.1889V37.8036C72.6056 37.8764 72.6056 37.9493 72.6056 38.0186C71.1019 37.5303 69.6093 37.0092 68.1279 36.4516V8.51678C68.1279 6.17005 67.7269 5.06957 67.389 4.55576C66.9583 3.90349 66.0932 3.44435 64.8234 3.18927L63.561 2.9852V0.5H70.0178C71.3061 0.5 72.5128 0.838891 73.6081 1.5021C74.6997 2.16895 75.55 3.09088 76.144 4.25331L76.1663 4.2934L87.2233 31.0184L101.499 3.2002C102.35 1.54583 104.08 0.5 105.97 0.5H114.472H114.469Z" fill="#301712"/>
<path d="M193.212 34.9831L192.837 35.905C192.339 36.8998 191.682 37.891 190.887 38.853C190.126 39.775 189.131 40.5584 187.928 41.1852C186.755 41.7937 185.21 42.1035 183.332 42.1035H176.036C175.096 42.1035 173.875 41.965 173.392 41.3054C173.121 40.941 172.668 39.9025 172.668 37.0784V4.87644C172.668 3.69214 172.223 2.65724 171.346 1.79726C170.47 0.937279 169.401 0.5 168.168 0.5H160.49V2.9852L161.734 3.18927C163.059 3.49172 163.698 3.88527 164.002 4.16586C164.418 4.54483 164.682 5.06592 164.812 5.75464C164.975 6.62555 165.057 7.79892 165.057 9.23465V37.7197C165.057 39.1591 164.975 40.3288 164.812 41.1998C164.682 41.8885 164.418 42.4096 164.002 42.7922C163.698 43.0728 163.055 43.4663 161.734 43.7688L160.49 43.9728V46.458H193.108L196.004 34.9831H193.215H193.212Z" fill="#301712"/>
<path d="M159.836 43.7724C158.437 43.3898 157.393 42.6719 156.643 41.5824C155.782 40.3288 154.965 38.638 154.215 36.5573L152.214 31.4156C150.777 33.828 148.913 36.0872 146.5 37.9275L146.864 38.864L146.886 38.9223L148.015 41.8338L148.029 41.8703C148.609 43.2295 149.522 44.3445 150.747 45.179C151.987 46.028 153.376 46.458 154.88 46.458H161.051V43.9692L159.833 43.7724H159.836Z" fill="#301712"/>
<path d="M152.37 21.6097C151.46 22.63 150.517 23.6321 149.589 24.5795C143.481 30.7196 136.334 35.8868 128.526 39.7422C128.258 39.8697 127.872 40.0483 127.479 40.2341C127.441 40.2523 127.419 40.2596 127.419 40.2633C127 40.46 126.576 40.6568 126.287 40.7916C125.748 41.0285 124.542 41.5277 124.011 41.7573C123.205 42.0488 122.184 42.4861 121.367 42.7521C116.054 44.6324 110.473 45.8313 104.837 46.0936C94.4412 46.3706 84.0042 44.8037 74.0574 41.8703C66.8098 39.7349 59.7999 36.8233 53.1686 33.2522C46.4854 29.6264 40.0473 25.3192 32.9593 22.3785C28.4185 20.4873 23.5286 19.15 18.5533 19.0589C13.4741 18.975 8.32058 20.2031 3.94679 22.7794C2.78836 23.4681 1.67821 24.2552 0.646024 25.1443C-0.230219 25.8986 -0.21908 27.2433 0.657163 27.9976C1.42573 28.6608 2.57673 28.617 3.30817 27.9174C5.33912 25.9715 7.88988 24.4738 10.6486 23.5082C27.0781 17.8673 41.9371 30.552 55.9793 37.093C70.7046 44.0894 87.0711 48.025 103.464 47.7808C120.402 47.3727 136.516 38.8676 148.642 27.6368C150.075 26.2995 151.482 24.8856 152.823 23.4244L152.366 21.6024L152.37 21.6097Z" fill="#C53527"/>
<path d="M157.052 11.9203C157.052 11.9203 156.428 14.5585 142.876 18.9678C132.342 22.3931 129.669 32.7894 128.997 37.4027C143.303 31.2553 149.982 22.4587 149.982 22.4587C144.023 31.2735 132.677 37.5958 128.774 39.5928C128.774 39.6292 128.774 39.6474 128.774 39.6474L128.667 40.5693C128.667 40.5693 134.463 43.3023 140.875 40.9811C157.865 34.8264 157.048 11.9203 157.048 11.9203H157.052Z" fill="#C53527"/>
<path d="M56.9113 63.6905H59.2281V64.5505H56.9113V63.6905Z" fill="#454545"/>
<path d="M69.1527 61.5332V63.2933H71.9968V64.2006H69.1527V66.4162H68.0574V60.6332H72.3606V61.5332H69.1527Z" fill="#454545"/>
<path d="M80.5104 63.5265C80.5104 61.8175 81.8582 60.553 83.685 60.553C85.5117 60.553 86.8595 61.8102 86.8595 63.5265C86.8595 65.2428 85.5117 66.5 83.685 66.5C81.8582 66.5 80.5104 65.2355 80.5104 63.5265ZM85.7568 63.5265C85.7568 62.3458 84.8731 61.4932 83.685 61.4932C82.4968 61.4932 81.6132 62.3422 81.6132 63.5265C81.6132 64.7108 82.4968 65.5598 83.685 65.5598C84.8731 65.5598 85.7568 64.7108 85.7568 63.5265Z" fill="#454545"/>
<path d="M95.1801 63.5265C95.1801 61.8175 96.5278 60.553 98.3546 60.553C100.181 60.553 101.529 61.8102 101.529 63.5265C101.529 65.2428 100.181 66.5 98.3546 66.5C96.5278 66.5 95.1801 65.2355 95.1801 63.5265ZM100.426 63.5265C100.426 62.3458 99.5427 61.4932 98.3546 61.4932C97.1664 61.4932 96.2828 62.3422 96.2828 63.5265C96.2828 64.7108 97.1664 65.5598 98.3546 65.5598C99.5427 65.5598 100.426 64.7108 100.426 63.5265Z" fill="#454545"/>
<path d="M110.269 60.6332H112.846C114.758 60.6332 116.061 61.7883 116.061 63.5265C116.061 65.2647 114.758 66.4198 112.846 66.4198H110.269V60.6368V60.6332ZM112.794 65.5088C114.108 65.5088 114.959 64.7254 114.959 63.5265C114.959 62.3276 114.108 61.5442 112.794 61.5442H111.365V65.5088H112.794Z" fill="#454545"/>
<path d="M124.308 65.8076L124.686 64.9732C125.158 65.3448 125.908 65.6109 126.632 65.6109C127.549 65.6109 127.935 65.2902 127.935 64.8602C127.935 63.614 124.434 64.4302 124.434 62.2803C124.434 61.3474 125.191 60.553 126.806 60.553C127.512 60.553 128.255 60.7352 128.767 61.0668L128.422 61.9013C127.891 61.5952 127.311 61.4458 126.795 61.4458C125.886 61.4458 125.514 61.792 125.514 62.2292C125.514 63.4609 129.008 62.6592 129.008 64.7837C129.008 65.7093 128.243 66.5036 126.625 66.5036C125.707 66.5036 124.79 66.2231 124.3 65.8113L124.308 65.8076Z" fill="#454545"/>
<path d="M137.474 63.6905H139.79V64.5505H137.474V63.6905Z" fill="#454545"/>
</g>
<defs>
<clipPath id="clip0_1_245">
<rect width="196" height="66" fill="white" transform="translate(0 0.5)"/>
</clipPath>
</defs>
</svg>
