<svg width="21" height="20" viewBox="0 0 21 20" fill="none" xmlns="http://www.w3.org/2000/svg">
<g clip-path="url(#clip0_1_1533)">
<path d="M10.8209 19.2267C7.62045 19.2268 4.42002 19.2271 1.21959 19.2254C1.11786 19.2253 1.00791 19.2251 0.916238 19.1886C0.759552 19.1261 0.725594 18.9849 0.725877 18.8221C0.728944 17.0589 0.727638 15.2957 0.727662 13.5325C0.727683 11.8921 0.732091 10.2516 0.723158 8.61114C0.721904 8.38077 0.805297 8.24258 0.990651 8.12161C1.75661 7.62176 2.51415 7.10893 3.27945 6.60804C3.40012 6.52907 3.44817 6.4482 3.44767 6.29958C3.44168 4.50412 3.4437 2.70863 3.44386 0.913141C3.44389 0.517977 3.54445 0.415757 3.93211 0.415771C8.51703 0.415942 13.102 0.416147 17.6869 0.416439C18.104 0.416465 18.1976 0.510701 18.1977 0.9295C18.1978 2.71853 18.1996 4.50756 18.1943 6.29657C18.1938 6.44337 18.2374 6.52761 18.3605 6.60795C19.132 7.11126 19.8953 7.62701 20.6666 8.13053C20.848 8.24897 20.9177 8.39088 20.9173 8.61002C20.9115 12.0008 20.9135 15.3915 20.9135 18.7823C20.9135 19.1297 20.8162 19.2262 20.4608 19.2263C17.2475 19.2268 14.0342 19.2266 10.8209 19.2267ZM4.13597 1.10999C4.13193 1.17043 4.12564 1.22065 4.12563 1.27087C4.12519 4.04098 4.1261 6.81109 4.12254 9.58119C4.12238 9.703 4.16551 9.76468 4.26875 9.81946C6.0367 10.7575 7.80339 11.698 9.56826 12.6419C9.68116 12.7022 9.76218 12.6952 9.86509 12.6218C10.1009 12.4535 10.3472 12.3 10.5873 12.1376C10.7442 12.0315 10.8963 12.0308 11.0534 12.1372C11.288 12.2962 11.5288 12.4461 11.7592 12.6109C11.8722 12.6918 11.9596 12.7012 12.0887 12.632C13.8472 11.6899 15.6089 10.7535 17.3721 9.82019C17.4865 9.75961 17.5191 9.68869 17.5189 9.56316C17.5152 6.81242 17.5161 4.06169 17.5156 1.31095C17.5156 1.24332 17.5098 1.17569 17.5068 1.10999L4.13597 1.10999ZM19.4324 18.5329C19.3459 18.4722 19.295 18.4347 19.2425 18.3998C16.4867 16.5664 13.7302 14.7343 10.9773 12.8965C10.8532 12.8137 10.7761 12.821 10.6578 12.8999C8.21011 14.5337 5.75943 16.163 3.30939 17.7932C2.95278 18.0305 2.59643 18.2681 2.19898 18.5329H19.4324ZM9.07854 13.1427C6.49942 11.7695 3.95825 10.4166 1.40585 9.05764V18.2474C3.96867 16.5424 6.50731 14.8534 9.07854 13.1427ZM12.5626 13.143C15.133 14.8531 17.6753 16.5444 20.2385 18.2496V9.05582C17.6762 10.4202 15.1352 11.7732 12.5626 13.143ZM18.2088 8.14044H19.4508C19.0152 7.85089 18.6233 7.59047 18.2088 7.31494V8.14044ZM3.43456 7.31267C3.01499 7.59212 2.62418 7.8524 2.18992 8.14162H3.43456V7.31267ZM18.2034 9.37283C18.5402 9.19295 18.8509 9.02698 19.2091 8.83564H18.2034V9.37283ZM3.43487 8.83261H2.48852C2.48578 8.84268 2.48303 8.85275 2.48029 8.86282C2.79256 9.02875 3.10483 9.19468 3.43487 9.37005V8.83261Z" fill="#301712"/>
<path d="M11.6426 7.02586C11.2282 7.34179 10.7783 7.45699 10.277 7.30643C9.56404 7.09233 9.14004 6.37785 9.27773 5.6239C9.40825 4.90923 10.0934 4.41099 10.8589 4.47399C11.5607 4.53174 12.1296 5.16048 12.1386 5.88936C12.1405 6.04432 12.1357 6.19942 12.14 6.35429C12.1488 6.67552 12.3596 6.89205 12.6547 6.88797C12.9421 6.884 13.1377 6.67093 13.1437 6.35526C13.1651 5.23073 12.6563 4.38613 11.7155 3.98413C10.2219 3.34594 8.54637 4.44995 8.49099 6.07629C8.44667 7.37777 9.33368 8.31478 10.3221 8.52013C10.4972 8.55652 10.6788 8.57625 10.8576 8.57747C11.7203 8.58336 12.5831 8.5791 13.4459 8.58108C13.7333 8.58173 13.9026 8.81846 13.7886 9.05723C13.7194 9.20224 13.5972 9.24798 13.44 9.24731C12.5708 9.24357 11.7015 9.24708 10.8323 9.24543C9.42067 9.24276 8.24891 8.32321 7.90399 6.94993C7.49604 5.32564 8.4481 3.65761 10.0247 3.2344C11.968 2.71275 13.8053 4.14369 13.8288 6.19417C13.8328 6.53892 13.7814 6.86309 13.5551 7.13799C13.0951 7.6967 12.259 7.71426 11.7715 7.17577C11.7291 7.12891 11.689 7.07992 11.6426 7.02586ZM10.6879 6.68727C11.1204 6.69005 11.4675 6.35449 11.4746 5.92665C11.4814 5.51039 11.1206 5.13973 10.7067 5.13796C10.2802 5.13613 9.93082 5.48121 9.92721 5.9079C9.92353 6.3446 10.2552 6.6845 10.6879 6.68727Z" fill="#301712"/>
</g>
<defs>
<clipPath id="clip0_1_1533">
<rect width="20.1942" height="18.811" fill="white" transform="translate(0.723145 0.415771)"/>
</clipPath>
</defs>
</svg>
