<svg width="1920" height="195" viewBox="0 0 1920 195" fill="none" xmlns="http://www.w3.org/2000/svg">
<g clip-path="url(#clip0_88_33)">
<path d="M1927.77 183.222C1912.34 190.7 1895.39 194.42 1878.27 194.42C1863.38 194.42 1848.61 191.609 1834.85 185.909C1827.47 182.857 1820.22 179.495 1813.2 175.441C1793.54 164.072 1756.24 127.489 1735.66 127.481C1713.28 127.473 1699.9 153.837 1682.29 154.715C1662.64 155.693 1659.58 130.743 1630.43 136.73C1608.29 141.273 1604.44 170.789 1579.6 172.381C1559.09 173.694 1558.41 156.959 1542.58 150.824C1533.58 147.338 1525.78 146.74 1518.71 148.013C1501.3 160.912 1483.77 173.865 1464.46 183.222C1449.03 190.7 1432.08 194.42 1414.96 194.42C1414.7 194.42 1414.44 194.42 1414.19 194.412C1414.01 194.412 1413.82 194.42 1413.65 194.42C1405.08 194.42 1396.56 193.364 1388.26 191.306C1384.22 190.343 1380.24 189.163 1376.33 187.757L1366.59 184.643C1336.39 174.866 1312.74 148.238 1286.64 133.795C1278.37 129.221 1271.71 127.73 1266.05 128.18C1258.16 129.943 1251.39 134.789 1245 139.867C1237.63 146.825 1230.57 154.474 1220 155.499C1202.14 157.239 1190.69 133.802 1169.28 137.996C1160.45 139.727 1152.35 146.988 1144.02 154.101C1136.78 162.791 1129.51 171.527 1116.3 172.374C1099.05 173.476 1095.82 161.82 1085.82 154.435C1081.02 151.725 1075.8 149.737 1069.87 149.714C1051.64 149.66 1034.17 165.959 1019.62 168.895C1013.65 173.678 1007.54 178.392 1000.83 182.011C992.976 186.235 985.974 188.518 978.593 190.568C969.385 193.123 959.884 194.42 950.329 194.42C939.424 194.42 928.573 192.727 918.177 189.411L903.27 184.651C873.062 174.874 849.417 148.246 823.319 133.802C786.987 113.697 781.659 153.076 756.679 155.507C738.826 157.246 727.373 133.81 705.965 138.004C687.394 141.638 672.032 169.757 651.04 169.531C636.741 169.376 625.243 149.784 606.541 149.729C606.232 149.729 605.916 149.745 605.608 149.753C588.973 162.069 572.153 174.284 553.698 183.23C538.266 190.708 521.315 194.428 504.194 194.428C489.31 194.428 474.542 191.617 460.775 185.917C453.395 182.865 446.146 179.502 439.128 175.449C419.462 164.08 382.167 127.497 361.591 127.489C339.21 127.481 325.83 153.845 308.223 154.723C288.565 155.701 285.512 130.751 256.36 136.738C234.219 141.281 230.37 170.797 205.53 172.389C185.016 173.702 184.337 156.967 168.512 150.832C133.191 137.142 116.232 167.924 90.0573 182.018C82.2065 186.243 75.2039 188.526 67.8235 190.576C58.6153 193.131 49.114 194.428 39.5588 194.428C28.6539 194.428 17.8031 192.735 7.40725 189.419L-7.50011 184.659C-37.7082 174.882 -61.3534 148.254 -87.4509 133.81C-123.782 113.705 -129.111 153.084 -154.091 155.515C-171.944 157.254 -183.397 133.818 -204.805 138.011C-223.376 141.646 -238.738 169.764 -259.73 169.539C-274.029 169.384 -285.527 149.792 -304.229 149.737C-324.735 149.675 -344.278 170.324 -359.787 169.345C-383.27 167.854 -398.617 119.188 -431.007 141.653V-129.565H1984.99V145.808C1966.61 159.429 1948.18 173.329 1927.76 183.222H1927.77Z" fill="#DCDCDC"/>
<path d="M302.65 88.24C302.65 87.5573 302.767 86.88 303.002 86.208C303.247 85.5253 303.599 84.9173 304.058 84.384C304.527 83.84 305.098 83.4027 305.77 83.072C306.442 82.7413 307.204 82.576 308.058 82.576C309.071 82.576 309.94 82.8053 310.666 83.264C311.391 83.7227 311.93 84.32 312.282 85.056L311.146 85.792C310.975 85.4293 310.767 85.1253 310.522 84.88C310.287 84.6347 310.026 84.4373 309.738 84.288C309.46 84.1387 309.172 84.032 308.874 83.968C308.575 83.904 308.282 83.872 307.994 83.872C307.364 83.872 306.804 84.0053 306.314 84.272C305.834 84.528 305.428 84.8693 305.098 85.296C304.767 85.712 304.516 86.1867 304.346 86.72C304.186 87.2427 304.106 87.7707 304.106 88.304C304.106 88.9013 304.202 89.472 304.394 90.016C304.596 90.5493 304.874 91.024 305.226 91.44C305.578 91.856 305.994 92.1867 306.474 92.432C306.954 92.6773 307.476 92.8 308.042 92.8C308.34 92.8 308.644 92.7627 308.954 92.688C309.274 92.6133 309.578 92.496 309.866 92.336C310.154 92.1653 310.42 91.9573 310.666 91.712C310.922 91.456 311.13 91.152 311.29 90.8L312.49 91.456C312.308 91.8827 312.052 92.2613 311.722 92.592C311.402 92.912 311.034 93.184 310.618 93.408C310.212 93.632 309.78 93.8027 309.322 93.92C308.863 94.0373 308.415 94.096 307.978 94.096C307.199 94.096 306.484 93.9253 305.834 93.584C305.183 93.2427 304.618 92.8 304.138 92.256C303.668 91.7013 303.3 91.0773 303.034 90.384C302.778 89.68 302.65 88.9653 302.65 88.24ZM316.291 94.16C315.875 94.16 315.491 94.096 315.139 93.968C314.787 93.8293 314.483 93.648 314.227 93.424C313.971 93.1893 313.769 92.9173 313.619 92.608C313.481 92.288 313.411 91.952 313.411 91.6C313.411 91.2053 313.497 90.848 313.667 90.528C313.838 90.1973 314.078 89.92 314.387 89.696C314.707 89.4613 315.081 89.2853 315.507 89.168C315.945 89.04 316.419 88.976 316.931 88.976C317.337 88.976 317.747 89.0133 318.163 89.088C318.579 89.1627 318.947 89.264 319.267 89.392V88.72C319.267 88.0373 319.075 87.504 318.691 87.12C318.307 86.7253 317.763 86.528 317.059 86.528C316.217 86.528 315.331 86.8533 314.403 87.504L313.939 86.592C314.483 86.2293 315.022 85.9573 315.555 85.776C316.089 85.5947 316.643 85.504 317.219 85.504C318.286 85.504 319.129 85.7973 319.747 86.384C320.366 86.9707 320.675 87.7973 320.675 88.864V92.272C320.675 92.6027 320.825 92.7733 321.123 92.784V94C321.017 94.0213 320.915 94.0373 320.819 94.048C320.723 94.0587 320.633 94.064 320.547 94.064C320.313 94.064 320.083 94 319.859 93.872C319.635 93.744 319.513 93.5253 319.491 93.216L319.459 92.624C319.267 92.88 319.049 93.104 318.803 93.296C318.558 93.488 318.297 93.648 318.019 93.776C317.742 93.904 317.454 94 317.155 94.064C316.867 94.128 316.579 94.16 316.291 94.16ZM316.643 93.104C317.091 93.104 317.529 93.008 317.955 92.816C318.382 92.624 318.718 92.3893 318.963 92.112C319.166 91.8773 319.267 91.6587 319.267 91.456V90.224C318.937 90.096 318.585 90 318.211 89.936C317.849 89.8613 317.497 89.824 317.155 89.824C316.43 89.824 315.849 89.9733 315.411 90.272C314.974 90.56 314.755 90.96 314.755 91.472C314.755 91.6853 314.798 91.8933 314.883 92.096C314.969 92.288 315.091 92.4587 315.251 92.608C315.411 92.7573 315.609 92.88 315.843 92.976C316.078 93.0613 316.345 93.104 316.643 93.104ZM322.974 82.32H324.382V91.84C324.382 92.1493 324.462 92.3947 324.622 92.576C324.792 92.7467 325.027 92.832 325.326 92.832C325.443 92.832 325.582 92.816 325.742 92.784C325.902 92.7413 326.051 92.6933 326.19 92.64L326.414 93.776C326.179 93.872 325.902 93.952 325.582 94.016C325.262 94.08 324.979 94.112 324.734 94.112C324.19 94.112 323.758 93.9573 323.438 93.648C323.128 93.3387 322.974 92.9067 322.974 92.352V82.32ZM327.458 82.32H328.866V91.84C328.866 92.1493 328.946 92.3947 329.106 92.576C329.277 92.7467 329.511 92.832 329.81 92.832C329.927 92.832 330.066 92.816 330.226 92.784C330.386 92.7413 330.535 92.6933 330.674 92.64L330.898 93.776C330.663 93.872 330.386 93.952 330.066 94.016C329.746 94.08 329.463 94.112 329.218 94.112C328.674 94.112 328.242 93.9573 327.922 93.648C327.613 93.3387 327.458 92.9067 327.458 92.352V82.32ZM337.185 85.328V94H335.745V82.64H336.865L343.905 91.488V82.656H345.345V94H344.129L337.185 85.328ZM351.481 94.16C350.852 94.16 350.276 94.0427 349.753 93.808C349.241 93.5733 348.798 93.2587 348.425 92.864C348.062 92.4693 347.78 92.0107 347.577 91.488C347.374 90.9653 347.273 90.416 347.273 89.84C347.273 89.2533 347.374 88.6987 347.577 88.176C347.79 87.6533 348.078 87.1947 348.441 86.8C348.814 86.4053 349.257 86.0907 349.769 85.856C350.292 85.6213 350.862 85.504 351.481 85.504C352.1 85.504 352.67 85.6213 353.193 85.856C353.716 86.0907 354.158 86.4053 354.521 86.8C354.894 87.1947 355.182 87.6533 355.385 88.176C355.598 88.6987 355.705 89.2533 355.705 89.84C355.705 90.416 355.604 90.9653 355.401 91.488C355.198 92.0107 354.91 92.4693 354.537 92.864C354.164 93.2587 353.716 93.5733 353.193 93.808C352.681 94.0427 352.11 94.16 351.481 94.16ZM348.713 89.856C348.713 90.2933 348.782 90.6987 348.921 91.072C349.07 91.4453 349.268 91.7707 349.513 92.048C349.769 92.3253 350.062 92.544 350.393 92.704C350.734 92.864 351.097 92.944 351.481 92.944C351.865 92.944 352.222 92.864 352.553 92.704C352.894 92.544 353.193 92.3253 353.449 92.048C353.705 91.76 353.902 91.4293 354.041 91.056C354.19 90.672 354.265 90.2613 354.265 89.824C354.265 89.3973 354.19 88.9973 354.041 88.624C353.902 88.24 353.705 87.9093 353.449 87.632C353.193 87.344 352.894 87.12 352.553 86.96C352.222 86.8 351.865 86.72 351.481 86.72C351.097 86.72 350.734 86.8053 350.393 86.976C350.062 87.136 349.769 87.36 349.513 87.648C349.268 87.9253 349.07 88.256 348.921 88.64C348.782 89.0133 348.713 89.4187 348.713 89.856ZM367.579 85.648H368.939L365.387 94H364.219L362.539 89.92L360.875 94H359.707L356.155 85.648H357.499L360.379 92.608L361.787 89.136L360.347 85.664H361.515L362.539 88.336L363.563 85.664H364.731L363.307 89.136L364.715 92.608L367.579 85.648ZM378.585 87.744V88.896H376.697V90.944H375.417V88.896H373.529V87.744H375.417V85.696H376.697V87.744H378.585ZM379.992 88.784C379.992 88.24 380.093 87.7333 380.296 87.264C380.509 86.784 380.797 86.368 381.16 86.016C381.533 85.6533 381.965 85.3707 382.456 85.168C382.947 84.9653 383.48 84.864 384.056 84.864C384.664 84.864 385.219 84.976 385.72 85.2C386.232 85.424 386.669 85.7493 387.032 86.176C387.395 86.592 387.672 87.104 387.864 87.712C388.067 88.3093 388.168 88.992 388.168 89.76C388.168 90.88 388.067 91.8613 387.864 92.704C387.661 93.536 387.373 94.2293 387 94.784C386.627 95.3493 386.179 95.7707 385.656 96.048C385.133 96.3253 384.552 96.464 383.912 96.464C383.176 96.464 382.504 96.288 381.896 95.936C381.299 95.584 380.829 95.088 380.488 94.448L381.352 93.6C381.587 94.1013 381.933 94.496 382.392 94.784C382.851 95.0827 383.363 95.232 383.928 95.232C384.803 95.232 385.501 94.8427 386.024 94.064C386.547 93.2853 386.819 92.192 386.84 90.784C386.605 91.3387 386.227 91.7813 385.704 92.112C385.181 92.4427 384.584 92.608 383.912 92.608C383.368 92.608 382.856 92.512 382.376 92.32C381.896 92.1173 381.48 91.8453 381.128 91.504C380.776 91.1627 380.499 90.7573 380.296 90.288C380.093 89.8187 379.992 89.3173 379.992 88.784ZM384.04 86.08C383.667 86.08 383.315 86.1547 382.984 86.304C382.664 86.4427 382.381 86.6347 382.136 86.88C381.891 87.1253 381.693 87.4133 381.544 87.744C381.405 88.064 381.336 88.4107 381.336 88.784C381.336 89.1573 381.405 89.5093 381.544 89.84C381.693 90.16 381.891 90.4427 382.136 90.688C382.381 90.9227 382.664 91.1147 382.984 91.264C383.315 91.4027 383.667 91.472 384.04 91.472C384.413 91.472 384.76 91.4027 385.08 91.264C385.411 91.1147 385.699 90.9227 385.944 90.688C386.189 90.4427 386.381 90.16 386.52 89.84C386.669 89.5093 386.744 89.1573 386.744 88.784C386.744 88.4213 386.669 88.0747 386.52 87.744C386.381 87.4133 386.189 87.1253 385.944 86.88C385.699 86.6347 385.411 86.4427 385.08 86.304C384.749 86.1547 384.403 86.08 384.04 86.08ZM395.638 92.72V94H389.894V92.72H392.166V86.48C392.07 86.608 391.92 86.7467 391.718 86.896C391.515 87.0347 391.286 87.168 391.03 87.296C390.784 87.4133 390.528 87.5147 390.262 87.6C389.995 87.6853 389.76 87.728 389.558 87.728V86.384C389.792 86.384 390.054 86.32 390.342 86.192C390.63 86.0533 390.902 85.8987 391.158 85.728C391.424 85.5467 391.648 85.376 391.83 85.216C392.022 85.0453 392.134 84.928 392.166 84.864H393.606V92.72H395.638ZM400.586 88.784C400.586 88.24 400.687 87.7333 400.89 87.264C401.103 86.784 401.391 86.368 401.754 86.016C402.127 85.6533 402.559 85.3707 403.05 85.168C403.54 84.9653 404.074 84.864 404.65 84.864C405.258 84.864 405.812 84.976 406.314 85.2C406.826 85.424 407.263 85.7493 407.626 86.176C407.988 86.592 408.266 87.104 408.458 87.712C408.66 88.3093 408.762 88.992 408.762 89.76C408.762 90.88 408.66 91.8613 408.458 92.704C408.255 93.536 407.967 94.2293 407.594 94.784C407.22 95.3493 406.772 95.7707 406.25 96.048C405.727 96.3253 405.146 96.464 404.506 96.464C403.77 96.464 403.098 96.288 402.49 95.936C401.892 95.584 401.423 95.088 401.082 94.448L401.946 93.6C402.18 94.1013 402.527 94.496 402.986 94.784C403.444 95.0827 403.956 95.232 404.522 95.232C405.396 95.232 406.095 94.8427 406.618 94.064C407.14 93.2853 407.412 92.192 407.434 90.784C407.199 91.3387 406.82 91.7813 406.298 92.112C405.775 92.4427 405.178 92.608 404.506 92.608C403.962 92.608 403.45 92.512 402.97 92.32C402.49 92.1173 402.074 91.8453 401.722 91.504C401.37 91.1627 401.092 90.7573 400.89 90.288C400.687 89.8187 400.586 89.3173 400.586 88.784ZM404.634 86.08C404.26 86.08 403.908 86.1547 403.578 86.304C403.258 86.4427 402.975 86.6347 402.73 86.88C402.484 87.1253 402.287 87.4133 402.138 87.744C401.999 88.064 401.93 88.4107 401.93 88.784C401.93 89.1573 401.999 89.5093 402.138 89.84C402.287 90.16 402.484 90.4427 402.73 90.688C402.975 90.9227 403.258 91.1147 403.578 91.264C403.908 91.4027 404.26 91.472 404.634 91.472C405.007 91.472 405.354 91.4027 405.674 91.264C406.004 91.1147 406.292 90.9227 406.538 90.688C406.783 90.4427 406.975 90.16 407.114 89.84C407.263 89.5093 407.338 89.1573 407.338 88.784C407.338 88.4213 407.263 88.0747 407.114 87.744C406.975 87.4133 406.783 87.1253 406.538 86.88C406.292 86.6347 406.004 86.4427 405.674 86.304C405.343 86.1547 404.996 86.08 404.634 86.08ZM418.215 90.784C418.215 91.296 418.103 91.76 417.879 92.176C417.666 92.5813 417.373 92.928 416.999 93.216C416.637 93.504 416.21 93.728 415.719 93.888C415.239 94.048 414.727 94.128 414.183 94.128C413.618 94.128 413.09 94.0427 412.599 93.872C412.119 93.6907 411.703 93.4507 411.351 93.152C410.999 92.8427 410.722 92.48 410.519 92.064C410.317 91.648 410.215 91.2 410.215 90.72C410.215 90.368 410.279 90.0427 410.407 89.744C410.535 89.4453 410.695 89.1787 410.887 88.944C411.09 88.7093 411.319 88.5067 411.575 88.336C411.831 88.1547 412.087 88.016 412.343 87.92C412.109 87.824 411.885 87.7013 411.671 87.552C411.458 87.392 411.271 87.216 411.111 87.024C410.951 86.8213 410.823 86.6027 410.727 86.368C410.642 86.1333 410.599 85.8827 410.599 85.616C410.599 85.136 410.706 84.7147 410.919 84.352C411.143 83.9787 411.426 83.664 411.767 83.408C412.119 83.152 412.509 82.96 412.935 82.832C413.362 82.704 413.789 82.64 414.215 82.64C414.642 82.64 415.069 82.704 415.495 82.832C415.933 82.96 416.322 83.152 416.663 83.408C417.015 83.6533 417.298 83.9627 417.511 84.336C417.735 84.6987 417.847 85.12 417.847 85.6C417.847 86.1333 417.671 86.6027 417.319 87.008C416.967 87.4133 416.551 87.7173 416.071 87.92C416.359 88.0373 416.631 88.1867 416.887 88.368C417.154 88.5493 417.383 88.7627 417.575 89.008C417.767 89.2427 417.922 89.5093 418.039 89.808C418.157 90.1067 418.215 90.432 418.215 90.784ZM416.791 90.688C416.791 90.3467 416.711 90.0427 416.551 89.776C416.402 89.4987 416.205 89.2693 415.959 89.088C415.714 88.896 415.437 88.752 415.127 88.656C414.818 88.56 414.509 88.512 414.199 88.512C413.879 88.512 413.565 88.5653 413.255 88.672C412.957 88.768 412.685 88.912 412.439 89.104C412.205 89.296 412.013 89.5307 411.863 89.808C411.725 90.0747 411.655 90.3733 411.655 90.704C411.655 91.0453 411.73 91.3493 411.879 91.616C412.039 91.8827 412.242 92.1067 412.487 92.288C412.733 92.4693 413.005 92.6133 413.303 92.72C413.613 92.816 413.922 92.864 414.231 92.864C414.551 92.864 414.861 92.8107 415.159 92.704C415.469 92.5973 415.741 92.448 415.975 92.256C416.221 92.064 416.418 91.8347 416.567 91.568C416.717 91.3013 416.791 91.008 416.791 90.688ZM412.023 85.664C412.023 85.952 412.087 86.208 412.215 86.432C412.354 86.6453 412.53 86.8267 412.743 86.976C412.957 87.1253 413.191 87.2373 413.447 87.312C413.703 87.3867 413.959 87.424 414.215 87.424C414.471 87.424 414.727 87.3867 414.983 87.312C415.239 87.2267 415.474 87.1093 415.687 86.96C415.901 86.8107 416.071 86.624 416.199 86.4C416.338 86.176 416.407 85.92 416.407 85.632C416.407 85.3653 416.343 85.1253 416.215 84.912C416.098 84.6987 415.938 84.5173 415.735 84.368C415.533 84.2187 415.298 84.1067 415.031 84.032C414.765 83.9467 414.487 83.904 414.199 83.904C413.911 83.904 413.634 83.9467 413.367 84.032C413.111 84.1067 412.882 84.224 412.679 84.384C412.487 84.5333 412.327 84.72 412.199 84.944C412.082 85.1573 412.023 85.3973 412.023 85.664ZM419.586 88.784C419.586 88.24 419.687 87.7333 419.89 87.264C420.103 86.784 420.391 86.368 420.754 86.016C421.127 85.6533 421.559 85.3707 422.05 85.168C422.54 84.9653 423.074 84.864 423.65 84.864C424.258 84.864 424.812 84.976 425.314 85.2C425.826 85.424 426.263 85.7493 426.626 86.176C426.988 86.592 427.266 87.104 427.458 87.712C427.66 88.3093 427.762 88.992 427.762 89.76C427.762 90.88 427.66 91.8613 427.458 92.704C427.255 93.536 426.967 94.2293 426.594 94.784C426.22 95.3493 425.772 95.7707 425.25 96.048C424.727 96.3253 424.146 96.464 423.506 96.464C422.77 96.464 422.098 96.288 421.49 95.936C420.892 95.584 420.423 95.088 420.082 94.448L420.946 93.6C421.18 94.1013 421.527 94.496 421.986 94.784C422.444 95.0827 422.956 95.232 423.522 95.232C424.396 95.232 425.095 94.8427 425.618 94.064C426.14 93.2853 426.412 92.192 426.434 90.784C426.199 91.3387 425.82 91.7813 425.298 92.112C424.775 92.4427 424.178 92.608 423.506 92.608C422.962 92.608 422.45 92.512 421.97 92.32C421.49 92.1173 421.074 91.8453 420.722 91.504C420.37 91.1627 420.092 90.7573 419.89 90.288C419.687 89.8187 419.586 89.3173 419.586 88.784ZM423.634 86.08C423.26 86.08 422.908 86.1547 422.578 86.304C422.258 86.4427 421.975 86.6347 421.73 86.88C421.484 87.1253 421.287 87.4133 421.138 87.744C420.999 88.064 420.93 88.4107 420.93 88.784C420.93 89.1573 420.999 89.5093 421.138 89.84C421.287 90.16 421.484 90.4427 421.73 90.688C421.975 90.9227 422.258 91.1147 422.578 91.264C422.908 91.4027 423.26 91.472 423.634 91.472C424.007 91.472 424.354 91.4027 424.674 91.264C425.004 91.1147 425.292 90.9227 425.538 90.688C425.783 90.4427 425.975 90.16 426.114 89.84C426.263 89.5093 426.338 89.1573 426.338 88.784C426.338 88.4213 426.263 88.0747 426.114 87.744C425.975 87.4133 425.783 87.1253 425.538 86.88C425.292 86.6347 425.004 86.4427 424.674 86.304C424.343 86.1547 423.996 86.08 423.634 86.08ZM432.959 88.976C433.482 88.976 433.967 89.0667 434.415 89.248C434.874 89.4187 435.269 89.664 435.599 89.984C435.93 90.304 436.191 90.688 436.383 91.136C436.575 91.584 436.671 92.0747 436.671 92.608C436.671 93.1733 436.565 93.6853 436.351 94.144C436.149 94.6133 435.866 95.0133 435.503 95.344C435.141 95.6747 434.714 95.9307 434.223 96.112C433.733 96.2933 433.21 96.384 432.655 96.384C431.845 96.384 431.114 96.192 430.463 95.808C429.813 95.424 429.322 94.912 428.991 94.272L429.871 93.504C430.17 93.9947 430.565 94.3893 431.055 94.688C431.557 94.9867 432.095 95.136 432.671 95.136C433.034 95.136 433.37 95.072 433.679 94.944C433.999 94.8267 434.271 94.656 434.495 94.432C434.73 94.2187 434.911 93.9573 435.039 93.648C435.167 93.3387 435.231 92.9973 435.231 92.624C435.231 92.272 435.167 91.9467 435.039 91.648C434.911 91.3493 434.735 91.0933 434.511 90.88C434.298 90.6667 434.042 90.5013 433.743 90.384C433.445 90.2667 433.125 90.208 432.783 90.208C432.325 90.208 431.893 90.3093 431.487 90.512C431.093 90.7147 430.767 91.0027 430.511 91.376H429.247C429.258 91.3227 429.285 91.1893 429.327 90.976C429.37 90.752 429.423 90.4853 429.487 90.176C429.551 89.856 429.621 89.504 429.695 89.12C429.77 88.736 429.845 88.3467 429.919 87.952C430.101 87.0347 430.303 86.0053 430.527 84.864H436.047V86.16H431.567L430.879 89.776C431.114 89.5307 431.407 89.3387 431.759 89.2C432.111 89.0507 432.511 88.976 432.959 88.976ZM437.836 88.784C437.836 88.24 437.937 87.7333 438.14 87.264C438.353 86.784 438.641 86.368 439.004 86.016C439.377 85.6533 439.809 85.3707 440.3 85.168C440.79 84.9653 441.324 84.864 441.9 84.864C442.508 84.864 443.062 84.976 443.564 85.2C444.076 85.424 444.513 85.7493 444.876 86.176C445.238 86.592 445.516 87.104 445.708 87.712C445.91 88.3093 446.012 88.992 446.012 89.76C446.012 90.88 445.91 91.8613 445.708 92.704C445.505 93.536 445.217 94.2293 444.844 94.784C444.47 95.3493 444.022 95.7707 443.5 96.048C442.977 96.3253 442.396 96.464 441.756 96.464C441.02 96.464 440.348 96.288 439.74 95.936C439.142 95.584 438.673 95.088 438.332 94.448L439.196 93.6C439.43 94.1013 439.777 94.496 440.236 94.784C440.694 95.0827 441.206 95.232 441.772 95.232C442.646 95.232 443.345 94.8427 443.868 94.064C444.39 93.2853 444.662 92.192 444.684 90.784C444.449 91.3387 444.07 91.7813 443.548 92.112C443.025 92.4427 442.428 92.608 441.756 92.608C441.212 92.608 440.7 92.512 440.22 92.32C439.74 92.1173 439.324 91.8453 438.972 91.504C438.62 91.1627 438.342 90.7573 438.14 90.288C437.937 89.8187 437.836 89.3173 437.836 88.784ZM441.884 86.08C441.51 86.08 441.158 86.1547 440.828 86.304C440.508 86.4427 440.225 86.6347 439.98 86.88C439.734 87.1253 439.537 87.4133 439.388 87.744C439.249 88.064 439.18 88.4107 439.18 88.784C439.18 89.1573 439.249 89.5093 439.388 89.84C439.537 90.16 439.734 90.4427 439.98 90.688C440.225 90.9227 440.508 91.1147 440.828 91.264C441.158 91.4027 441.51 91.472 441.884 91.472C442.257 91.472 442.604 91.4027 442.924 91.264C443.254 91.1147 443.542 90.9227 443.788 90.688C444.033 90.4427 444.225 90.16 444.364 89.84C444.513 89.5093 444.588 89.1573 444.588 88.784C444.588 88.4213 444.513 88.0747 444.364 87.744C444.225 87.4133 444.033 87.1253 443.788 86.88C443.542 86.6347 443.254 86.4427 442.924 86.304C442.593 86.1547 442.246 86.08 441.884 86.08ZM451.273 88.784C451.273 88.24 451.374 87.7333 451.577 87.264C451.79 86.784 452.078 86.368 452.441 86.016C452.814 85.6533 453.246 85.3707 453.737 85.168C454.228 84.9653 454.761 84.864 455.337 84.864C455.945 84.864 456.5 84.976 457.001 85.2C457.513 85.424 457.95 85.7493 458.313 86.176C458.676 86.592 458.953 87.104 459.145 87.712C459.348 88.3093 459.449 88.992 459.449 89.76C459.449 90.88 459.348 91.8613 459.145 92.704C458.942 93.536 458.654 94.2293 458.281 94.784C457.908 95.3493 457.46 95.7707 456.937 96.048C456.414 96.3253 455.833 96.464 455.193 96.464C454.457 96.464 453.785 96.288 453.177 95.936C452.58 95.584 452.11 95.088 451.769 94.448L452.633 93.6C452.868 94.1013 453.214 94.496 453.673 94.784C454.132 95.0827 454.644 95.232 455.209 95.232C456.084 95.232 456.782 94.8427 457.305 94.064C457.828 93.2853 458.1 92.192 458.121 90.784C457.886 91.3387 457.508 91.7813 456.985 92.112C456.462 92.4427 455.865 92.608 455.193 92.608C454.649 92.608 454.137 92.512 453.657 92.32C453.177 92.1173 452.761 91.8453 452.409 91.504C452.057 91.1627 451.78 90.7573 451.577 90.288C451.374 89.8187 451.273 89.3173 451.273 88.784ZM455.321 86.08C454.948 86.08 454.596 86.1547 454.265 86.304C453.945 86.4427 453.662 86.6347 453.417 86.88C453.172 87.1253 452.974 87.4133 452.825 87.744C452.686 88.064 452.617 88.4107 452.617 88.784C452.617 89.1573 452.686 89.5093 452.825 89.84C452.974 90.16 453.172 90.4427 453.417 90.688C453.662 90.9227 453.945 91.1147 454.265 91.264C454.596 91.4027 454.948 91.472 455.321 91.472C455.694 91.472 456.041 91.4027 456.361 91.264C456.692 91.1147 456.98 90.9227 457.225 90.688C457.47 90.4427 457.662 90.16 457.801 89.84C457.95 89.5093 458.025 89.1573 458.025 88.784C458.025 88.4213 457.95 88.0747 457.801 87.744C457.662 87.4133 457.47 87.1253 457.225 86.88C456.98 86.6347 456.692 86.4427 456.361 86.304C456.03 86.1547 455.684 86.08 455.321 86.08ZM460.695 88.784C460.695 88.24 460.796 87.7333 460.999 87.264C461.212 86.784 461.5 86.368 461.863 86.016C462.236 85.6533 462.668 85.3707 463.159 85.168C463.65 84.9653 464.183 84.864 464.759 84.864C465.367 84.864 465.922 84.976 466.423 85.2C466.935 85.424 467.372 85.7493 467.735 86.176C468.098 86.592 468.375 87.104 468.567 87.712C468.77 88.3093 468.871 88.992 468.871 89.76C468.871 90.88 468.77 91.8613 468.567 92.704C468.364 93.536 468.076 94.2293 467.703 94.784C467.33 95.3493 466.882 95.7707 466.359 96.048C465.836 96.3253 465.255 96.464 464.615 96.464C463.879 96.464 463.207 96.288 462.599 95.936C462.002 95.584 461.532 95.088 461.191 94.448L462.055 93.6C462.29 94.1013 462.636 94.496 463.095 94.784C463.554 95.0827 464.066 95.232 464.631 95.232C465.506 95.232 466.204 94.8427 466.727 94.064C467.25 93.2853 467.522 92.192 467.543 90.784C467.308 91.3387 466.93 91.7813 466.407 92.112C465.884 92.4427 465.287 92.608 464.615 92.608C464.071 92.608 463.559 92.512 463.079 92.32C462.599 92.1173 462.183 91.8453 461.831 91.504C461.479 91.1627 461.202 90.7573 460.999 90.288C460.796 89.8187 460.695 89.3173 460.695 88.784ZM464.743 86.08C464.37 86.08 464.018 86.1547 463.687 86.304C463.367 86.4427 463.084 86.6347 462.839 86.88C462.594 87.1253 462.396 87.4133 462.247 87.744C462.108 88.064 462.039 88.4107 462.039 88.784C462.039 89.1573 462.108 89.5093 462.247 89.84C462.396 90.16 462.594 90.4427 462.839 90.688C463.084 90.9227 463.367 91.1147 463.687 91.264C464.018 91.4027 464.37 91.472 464.743 91.472C465.116 91.472 465.463 91.4027 465.783 91.264C466.114 91.1147 466.402 90.9227 466.647 90.688C466.892 90.4427 467.084 90.16 467.223 89.84C467.372 89.5093 467.447 89.1573 467.447 88.784C467.447 88.4213 467.372 88.0747 467.223 87.744C467.084 87.4133 466.892 87.1253 466.647 86.88C466.402 86.6347 466.114 86.4427 465.783 86.304C465.452 86.1547 465.106 86.08 464.743 86.08ZM470.117 88.784C470.117 88.24 470.218 87.7333 470.421 87.264C470.634 86.784 470.922 86.368 471.285 86.016C471.658 85.6533 472.09 85.3707 472.581 85.168C473.072 84.9653 473.605 84.864 474.181 84.864C474.789 84.864 475.344 84.976 475.845 85.2C476.357 85.424 476.794 85.7493 477.157 86.176C477.52 86.592 477.797 87.104 477.989 87.712C478.192 88.3093 478.293 88.992 478.293 89.76C478.293 90.88 478.192 91.8613 477.989 92.704C477.786 93.536 477.498 94.2293 477.125 94.784C476.752 95.3493 476.304 95.7707 475.781 96.048C475.258 96.3253 474.677 96.464 474.037 96.464C473.301 96.464 472.629 96.288 472.021 95.936C471.424 95.584 470.954 95.088 470.613 94.448L471.477 93.6C471.712 94.1013 472.058 94.496 472.517 94.784C472.976 95.0827 473.488 95.232 474.053 95.232C474.928 95.232 475.626 94.8427 476.149 94.064C476.672 93.2853 476.944 92.192 476.965 90.784C476.73 91.3387 476.352 91.7813 475.829 92.112C475.306 92.4427 474.709 92.608 474.037 92.608C473.493 92.608 472.981 92.512 472.501 92.32C472.021 92.1173 471.605 91.8453 471.253 91.504C470.901 91.1627 470.624 90.7573 470.421 90.288C470.218 89.8187 470.117 89.3173 470.117 88.784ZM474.165 86.08C473.792 86.08 473.44 86.1547 473.109 86.304C472.789 86.4427 472.506 86.6347 472.261 86.88C472.016 87.1253 471.818 87.4133 471.669 87.744C471.53 88.064 471.461 88.4107 471.461 88.784C471.461 89.1573 471.53 89.5093 471.669 89.84C471.818 90.16 472.016 90.4427 472.261 90.688C472.506 90.9227 472.789 91.1147 473.109 91.264C473.44 91.4027 473.792 91.472 474.165 91.472C474.538 91.472 474.885 91.4027 475.205 91.264C475.536 91.1147 475.824 90.9227 476.069 90.688C476.314 90.4427 476.506 90.16 476.645 89.84C476.794 89.5093 476.869 89.1573 476.869 88.784C476.869 88.4213 476.794 88.0747 476.645 87.744C476.506 87.4133 476.314 87.1253 476.069 86.88C475.824 86.6347 475.536 86.4427 475.205 86.304C474.874 86.1547 474.528 86.08 474.165 86.08ZM483.491 88.976C484.013 88.976 484.499 89.0667 484.947 89.248C485.405 89.4187 485.8 89.664 486.131 89.984C486.461 90.304 486.723 90.688 486.915 91.136C487.107 91.584 487.203 92.0747 487.203 92.608C487.203 93.1733 487.096 93.6853 486.883 94.144C486.68 94.6133 486.397 95.0133 486.035 95.344C485.672 95.6747 485.245 95.9307 484.755 96.112C484.264 96.2933 483.741 96.384 483.187 96.384C482.376 96.384 481.645 96.192 480.995 95.808C480.344 95.424 479.853 94.912 479.523 94.272L480.403 93.504C480.701 93.9947 481.096 94.3893 481.587 94.688C482.088 94.9867 482.627 95.136 483.203 95.136C483.565 95.136 483.901 95.072 484.211 94.944C484.531 94.8267 484.803 94.656 485.027 94.432C485.261 94.2187 485.443 93.9573 485.571 93.648C485.699 93.3387 485.763 92.9973 485.763 92.624C485.763 92.272 485.699 91.9467 485.571 91.648C485.443 91.3493 485.267 91.0933 485.043 90.88C484.829 90.6667 484.573 90.5013 484.275 90.384C483.976 90.2667 483.656 90.208 483.315 90.208C482.856 90.208 482.424 90.3093 482.019 90.512C481.624 90.7147 481.299 91.0027 481.043 91.376H479.779C479.789 91.3227 479.816 91.1893 479.859 90.976C479.901 90.752 479.955 90.4853 480.019 90.176C480.083 89.856 480.152 89.504 480.227 89.12C480.301 88.736 480.376 88.3467 480.451 87.952C480.632 87.0347 480.835 86.0053 481.059 84.864H486.579V86.16H482.099L481.411 89.776C481.645 89.5307 481.939 89.3387 482.291 89.2C482.643 89.0507 483.043 88.976 483.491 88.976ZM492.319 88.976C492.842 88.976 493.327 89.0667 493.775 89.248C494.234 89.4187 494.628 89.664 494.959 89.984C495.29 90.304 495.551 90.688 495.743 91.136C495.935 91.584 496.031 92.0747 496.031 92.608C496.031 93.1733 495.924 93.6853 495.711 94.144C495.508 94.6133 495.226 95.0133 494.863 95.344C494.5 95.6747 494.074 95.9307 493.583 96.112C493.092 96.2933 492.57 96.384 492.015 96.384C491.204 96.384 490.474 96.192 489.823 95.808C489.172 95.424 488.682 94.912 488.351 94.272L489.231 93.504C489.53 93.9947 489.924 94.3893 490.415 94.688C490.916 94.9867 491.455 95.136 492.031 95.136C492.394 95.136 492.73 95.072 493.039 94.944C493.359 94.8267 493.631 94.656 493.855 94.432C494.09 94.2187 494.271 93.9573 494.399 93.648C494.527 93.3387 494.591 92.9973 494.591 92.624C494.591 92.272 494.527 91.9467 494.399 91.648C494.271 91.3493 494.095 91.0933 493.871 90.88C493.658 90.6667 493.402 90.5013 493.103 90.384C492.804 90.2667 492.484 90.208 492.143 90.208C491.684 90.208 491.252 90.3093 490.847 90.512C490.452 90.7147 490.127 91.0027 489.871 91.376H488.607C488.618 91.3227 488.644 91.1893 488.687 90.976C488.73 90.752 488.783 90.4853 488.847 90.176C488.911 89.856 488.98 89.504 489.055 89.12C489.13 88.736 489.204 88.3467 489.279 87.952C489.46 87.0347 489.663 86.0053 489.887 84.864H495.407V86.16H490.927L490.239 89.776C490.474 89.5307 490.767 89.3387 491.119 89.2C491.471 89.0507 491.871 88.976 492.319 88.976Z" fill="#301712"/>
</g>
<g clip-path="url(#clip1_88_33)">
<path d="M1927.77 175.222C1912.34 182.7 1895.39 186.42 1878.27 186.42C1863.38 186.42 1848.61 183.609 1834.85 177.909C1827.47 174.857 1820.22 171.495 1813.2 167.441C1793.54 156.072 1756.24 119.489 1735.66 119.481C1713.28 119.473 1699.9 145.837 1682.29 146.715C1662.64 147.693 1659.58 122.743 1630.43 128.73C1608.29 133.273 1604.44 162.789 1579.6 164.381C1559.09 165.694 1558.41 148.959 1542.58 142.824C1533.58 139.338 1525.78 138.74 1518.71 140.013C1501.3 152.912 1483.77 165.865 1464.46 175.222C1449.03 182.7 1432.08 186.42 1414.96 186.42C1414.7 186.42 1414.44 186.42 1414.19 186.412C1414.01 186.412 1413.82 186.42 1413.65 186.42C1405.08 186.42 1396.56 185.364 1388.26 183.306C1384.22 182.343 1380.24 181.163 1376.33 179.757L1366.59 176.643C1336.39 166.866 1312.74 140.238 1286.64 125.795C1278.37 121.221 1271.71 119.73 1266.05 120.18C1258.16 121.943 1251.39 126.789 1245 131.867C1237.63 138.825 1230.57 146.474 1220 147.499C1202.14 149.239 1190.69 125.802 1169.28 129.996C1160.45 131.727 1152.35 138.988 1144.02 146.101C1136.78 154.791 1129.51 163.527 1116.3 164.374C1099.05 165.476 1095.82 153.82 1085.82 146.435C1081.02 143.725 1075.8 141.737 1069.87 141.714C1051.64 141.66 1034.17 157.959 1019.62 160.895C1013.65 165.678 1007.54 170.392 1000.83 174.011C992.976 178.235 985.974 180.518 978.593 182.568C969.385 185.123 959.884 186.42 950.329 186.42C939.424 186.42 928.573 184.727 918.177 181.411L903.27 176.651C873.062 166.874 849.417 140.246 823.319 125.802C786.988 105.697 781.659 145.076 756.679 147.507C738.826 149.246 727.373 125.81 705.965 130.004C687.394 133.638 672.032 161.757 651.04 161.531C636.741 161.376 625.243 141.784 606.541 141.729C606.232 141.729 605.916 141.745 605.608 141.753C588.973 154.069 572.153 166.284 553.698 175.23C538.266 182.708 521.315 186.428 504.194 186.428C489.31 186.428 474.542 183.617 460.776 177.917C453.395 174.865 446.146 171.502 439.128 167.449C419.462 156.08 382.167 119.497 361.591 119.489C339.21 119.481 325.83 145.845 308.224 146.723C288.565 147.701 285.512 122.751 256.36 128.738C234.219 133.281 230.37 162.797 205.53 164.389C185.016 165.702 184.337 148.967 168.512 142.832C133.191 129.142 116.232 159.924 90.0573 174.018C82.2064 178.243 75.2039 180.526 67.8235 182.576C58.6153 185.131 49.114 186.428 39.5588 186.428C28.6539 186.428 17.8031 184.735 7.40726 181.419L-7.50012 176.659C-37.7082 166.882 -61.3534 140.254 -87.4509 125.81C-123.782 105.705 -129.111 145.084 -154.091 147.515C-171.944 149.254 -183.397 125.818 -204.805 130.011C-223.376 133.646 -238.738 161.764 -259.73 161.539C-274.029 161.384 -285.527 141.792 -304.229 141.737C-324.735 141.675 -344.278 162.324 -359.787 161.345C-383.27 159.854 -398.617 111.188 -431.007 133.653V-137.565H1984.99V137.808C1966.61 151.429 1948.18 165.329 1927.76 175.222H1927.77Z" fill="white"/>
</g>
<defs>
<clipPath id="clip0_88_33">
<rect width="1920" height="222" fill="white" transform="matrix(1 0 0 -1 0 194.42)"/>
</clipPath>
<clipPath id="clip1_88_33">
<rect width="1920" height="222" fill="white" transform="matrix(1 0 0 -1 0 186.42)"/>
</clipPath>
</defs>
</svg>
