<svg width="21" height="21" viewBox="0 0 21 21" fill="none" xmlns="http://www.w3.org/2000/svg">
<g clip-path="url(#clip0_1_1539)">
<path d="M20.9142 5.81387C20.9139 4.97763 20.9099 4.1414 20.9076 3.30515C20.9107 3.10258 20.9173 2.89998 20.9163 2.69741C20.9094 1.21345 19.8212 0.112241 18.3557 0.10836C17.4063 0.105845 16.4569 0.108091 15.5075 0.108303C11.6932 0.109147 7.87895 0.108402 4.06468 0.111856C2.8592 0.112948 1.84897 0.91466 1.5908 2.07143C1.46429 2.63829 1.53753 3.21603 1.5287 3.78879C1.52606 3.96065 1.48848 4.0229 1.30808 4.0204C0.938992 4.0153 0.718799 4.22089 0.725437 4.53026C0.731928 4.83232 0.944553 5.0247 1.30295 5.02062C1.47609 5.01865 1.52859 5.06773 1.52772 5.24695C1.52066 6.70876 1.52131 8.17063 1.52606 9.63247C1.52658 9.79161 1.49088 9.85244 1.32038 9.85151C0.939635 9.84944 0.727231 10.0384 0.724506 10.3483C0.721783 10.6586 0.938917 10.8557 1.31205 10.8546C1.4708 10.8541 1.52705 10.8934 1.52629 11.0647C1.51974 12.5349 1.5203 14.0052 1.52443 15.4755C1.52484 15.6232 1.49435 15.6817 1.333 15.6824C0.934636 15.6842 0.719116 15.875 0.723202 16.191C0.727197 16.5007 0.94023 16.6901 1.31984 16.6875C1.49119 16.6863 1.52807 16.7479 1.52471 16.9066C1.51595 17.3205 1.51609 17.7348 1.52417 18.1487C1.55121 19.5344 2.75718 20.6645 4.12282 20.5888C4.16436 20.5909 4.20589 20.5948 4.24743 20.5949C8.96821 20.5965 13.689 20.598 18.4098 20.5983C18.526 20.5983 18.6439 20.5957 18.758 20.5762C20.0664 20.3531 20.9169 19.3324 20.9172 17.9786C20.9179 13.9237 20.916 9.86879 20.9142 5.81387ZM19.9175 6.77861C19.9158 10.489 19.9153 14.1993 19.914 17.9097C19.9137 18.9534 19.2955 19.5805 18.2668 19.5809C13.9103 19.5824 9.55372 19.5835 5.19717 19.5851C5.08898 19.5851 4.98079 19.5891 4.87259 19.5912C4.48381 19.5495 4.09006 19.6302 3.70301 19.5402C3.00702 19.3782 2.53142 18.7892 2.52283 18.0689C2.51839 17.6971 2.53424 17.3246 2.51687 16.9536C2.507 16.7426 2.56821 16.6701 2.77764 16.6883C2.99379 16.707 3.16447 16.6096 3.26625 16.406C3.35397 16.2305 3.33516 16.0622 3.23055 15.9022C3.12454 15.7401 2.96576 15.658 2.78209 15.6824C2.54036 15.7144 2.51644 15.6005 2.51749 15.3956C2.52479 13.9758 2.52545 12.5559 2.51562 11.1362C2.51413 10.9205 2.55524 10.8293 2.78615 10.8538C2.99121 10.8756 3.15689 10.7775 3.25831 10.5867C3.3553 10.4042 3.33707 10.2275 3.22322 10.0612C3.11415 9.90186 2.95451 9.83223 2.76928 9.84924C2.5798 9.86664 2.51396 9.81094 2.51528 9.60289C2.52448 8.15779 2.52254 6.71258 2.5157 5.26746C2.51485 5.08795 2.54706 5.01428 2.74516 5.0197C3.09886 5.02939 3.31451 4.82751 3.3181 4.52562C3.32177 4.21655 3.10327 4.01836 2.73071 4.01925C2.57241 4.01963 2.50644 3.98158 2.51655 3.80909C2.5461 3.30433 2.45827 2.79352 2.56709 2.29358C2.71744 1.60276 3.3099 1.12138 4.00912 1.12115C8.80681 1.11957 13.6045 1.12029 18.4022 1.12412C19.2602 1.12481 19.9074 1.79539 19.9148 2.67203C19.9189 3.15353 19.9211 3.63504 19.9242 4.11655C19.9218 5.0039 19.9179 5.89126 19.9175 6.77861Z" fill="#301712"/>
<path d="M16.8788 14.0844C16.4231 12.8913 15.6479 11.9853 14.5964 11.3031C14.2899 11.1042 13.9555 10.96 13.6003 10.7879C14.2056 10.3908 14.6298 9.87317 14.9193 9.24041C15.321 8.43553 15.3508 7.59437 15.1348 6.73792C14.6616 4.8617 12.7822 3.63996 10.8976 4.03528C9.36678 4.35642 8.35159 5.31517 8.00464 6.87021C7.66655 8.38551 8.13868 9.66845 9.33305 10.655C9.52071 10.81 9.46271 10.8449 9.28555 10.9193C8.71151 11.1604 8.19903 11.504 7.74267 11.9306C6.69234 12.9125 6.07981 14.122 5.89742 15.5619C5.82251 16.1534 6.23696 16.712 6.82424 16.7363C7.20607 16.7521 7.58931 16.7331 7.97191 16.7296C8.04667 16.7323 8.12144 16.7373 8.1962 16.7373C10.8511 16.7384 13.506 16.7394 16.1609 16.7396C16.9426 16.7396 17.3794 16.2196 17.2502 15.4386C17.1734 14.9745 17.0481 14.5276 16.8788 14.0844ZM8.90963 7.66353C8.91713 6.17757 10.1244 4.97414 11.6023 4.97943C13.0687 4.98468 14.2718 6.22665 14.2645 7.72742C14.2572 9.21455 13.0516 10.419 11.5758 10.4136C10.0642 10.408 8.90184 9.20902 8.90963 7.66353ZM16.0396 15.7287C13.7082 15.7237 11.3767 15.7264 9.04522 15.7276C8.93708 15.7277 8.82893 15.7318 8.7208 15.7341C8.20486 15.7308 7.68852 15.7143 7.17316 15.7303C6.9401 15.7375 6.88063 15.6639 6.9234 15.4435C7.25429 13.7376 8.18934 12.5197 9.76206 11.8166C10.6849 11.404 11.645 11.3869 12.6206 11.552C13.9835 11.8946 15.0196 12.6782 15.7146 13.9184C15.9887 14.4076 16.1465 14.9379 16.2503 15.4891C16.2884 15.6914 16.2272 15.7291 16.0396 15.7287Z" fill="#301712"/>
</g>
<defs>
<clipPath id="clip0_1_1539">
<rect width="20.1942" height="20.4911" fill="white" transform="translate(0.723145 0.107178)"/>
</clipPath>
</defs>
</svg>
