<svg width="64" height="64" viewBox="0 0 64 64" fill="none" xmlns="http://www.w3.org/2000/svg">
<g clip-path="url(#clip0_1_645)">
<path d="M34.2279 0.921875L38.0439 1.47248C60.7739 5.94897 71.3819 33.1338 56.8928 51.7304C40.1375 73.2333 6.37297 64.7331 1.09828 38.4573L0.551272 34.6357C0.616392 33.1826 0.46336 31.6514 0.551272 30.2048C1.49551 14.9052 14.5097 1.8667 29.803 0.921875H34.2279ZM61.0018 32.4202C61.0018 16.3941 48.0235 3.40447 32.0171 3.40447C16.0107 3.40447 3.02907 16.3941 3.02907 32.4202C3.02907 48.4464 16.0074 61.436 32.0138 61.436C48.0202 61.436 60.9986 48.4431 60.9986 32.4202H61.0018Z" fill="white"/>
<path d="M59.1882 32.4202C59.1882 47.4429 47.0238 59.6213 32.017 59.6213C17.0102 59.6213 4.84583 47.4429 4.84583 32.4202C4.84583 17.3976 17.0102 5.22241 32.017 5.22241C47.0238 5.22241 59.1882 17.4008 59.1882 32.4235V32.4202ZM56.7006 32.4202C56.7006 18.7724 45.6498 7.70827 32.017 7.70827C18.3842 7.70827 7.3334 18.7724 7.3334 32.4202C7.3334 46.068 18.3842 57.1322 32.017 57.1322C45.6498 57.1322 56.7006 46.068 56.7006 32.4202Z" fill="white"/>
<path d="M25.352 19.4143C26.3678 19.2938 27.2339 19.4469 28.1684 19.8509C32.7333 22.9819 38.581 25.3015 43.0222 28.4846C45.767 30.4525 45.9168 34.02 43.3152 36.167L28.3149 44.8984C25.2608 46.5372 21.6174 44.5466 21.3211 41.1029C20.8327 35.4763 21.6695 29.1134 21.3569 23.4119C21.6923 21.3952 23.2844 19.6619 25.3552 19.4143H25.352ZM24.437 42.3474C24.8571 42.8003 25.6743 43.0609 26.2864 42.999C31.6849 40.2656 36.8749 37.0369 42.0942 33.9613C42.7292 33.1892 42.8854 32.3193 42.4426 31.3973C42.1203 30.7294 41.4951 30.4818 40.9025 30.1104C36.5167 27.3606 31.7532 25.0116 27.3479 22.2683C25.6873 21.2388 23.9454 22.2162 23.7761 24.1124C23.304 29.3512 24.144 35.2971 23.7761 40.6109C23.8184 41.1778 24.0463 41.9271 24.437 42.3474Z" fill="white"/>
<path d="M53.1255 29.3772C54.1316 29.1166 54.7079 29.7324 54.8447 30.6707C55.3721 34.2903 53.9916 40.2231 52.1129 43.3769C51.6571 44.1392 51.1719 44.8625 50.1593 44.3445C48.6648 43.5789 50.1593 41.8782 50.5956 40.8747C51.9241 37.7992 52.4646 34.8572 52.4222 31.4982C52.4125 30.8075 52.0315 29.6639 53.1223 29.3805L53.1255 29.3772Z" fill="white"/>
<path d="M12.9304 20.3885C13.8291 20.1865 14.6919 20.9163 14.5128 21.8415C13.1779 24.1971 12.3769 26.6797 11.7615 29.3089C11.2503 30.2407 9.6549 29.9442 9.51815 28.9212C9.30976 27.3704 11.0713 22.8873 11.9178 21.4669C12.149 21.0792 12.4485 20.496 12.9304 20.3885Z" fill="white"/>
<path d="M52.9236 28.1229C53.625 28.1229 54.1935 27.554 54.1935 26.8523C54.1935 26.1505 53.625 25.5817 52.9236 25.5817C52.2223 25.5817 51.6538 26.1505 51.6538 26.8523C51.6538 27.554 52.2223 28.1229 52.9236 28.1229Z" fill="white"/>
<path d="M10.3842 33.6388C11.0801 33.6388 11.6443 33.0743 11.6443 32.3779C11.6443 31.6816 11.0801 31.1171 10.3842 31.1171C9.6883 31.1171 9.12415 31.6816 9.12415 32.3779C9.12415 33.0743 9.6883 33.6388 10.3842 33.6388Z" fill="white"/>
</g>
<defs>
<clipPath id="clip0_1_645">
<rect width="63" height="63" fill="white" transform="translate(0.521851 0.921875)"/>
</clipPath>
</defs>
</svg>
