<svg width="21" height="21" viewBox="0 0 21 21" fill="none" xmlns="http://www.w3.org/2000/svg">
<g clip-path="url(#clip0_1_1419)">
<path d="M20.565 11.4666C20.0955 10.6809 19.4789 10.0764 18.7025 9.63351C18.7243 9.61738 18.7314 9.60749 18.7387 9.60734C19.0656 9.60048 19.0697 9.60001 19.019 9.23212C18.8034 7.66596 18.2234 6.25466 17.2642 5.00592C17.0458 4.7216 17.0451 4.72308 16.7642 4.94779C16.0951 5.48307 15.3724 5.92945 14.5921 6.27678C14.4613 6.335 14.4132 6.38876 14.4319 6.55084C14.5302 7.40507 14.6064 8.26191 14.696 9.11722C14.7118 9.26783 14.6674 9.34123 14.5231 9.40076C13.6929 9.7431 13.0112 10.2863 12.4796 11.0173C12.3932 11.1361 12.3041 11.1743 12.1632 11.1738C10.7744 11.1687 9.38545 11.1706 7.99654 11.1708C7.76744 11.1708 7.75531 11.1722 7.77394 11.4075C7.83457 12.1733 7.90209 12.9386 7.97333 13.7035C7.99237 13.9079 8.01412 13.9147 8.20445 13.8719C9.29175 13.6274 10.3892 13.5573 11.4719 13.6684C11.5461 14.2036 11.619 14.7291 11.6929 15.2625C11.559 15.2499 11.4011 15.2342 11.243 15.2201C10.3106 15.1374 9.38835 15.1976 8.47589 15.4143C8.34904 15.4444 8.30862 15.4874 8.34443 15.6243C8.57779 16.5159 8.86173 17.388 9.34237 18.1776C9.4923 18.424 9.67276 18.6594 9.87547 18.8627C10.2511 19.2393 10.6804 19.2466 11.0481 18.865C11.2912 18.6128 11.5076 18.3203 11.6777 18.0128C11.9139 17.5856 12.0955 17.1274 12.3023 16.6785C12.3147 16.6993 12.3379 16.7374 12.36 16.776C12.6353 17.258 12.9079 17.7416 13.1882 18.2206C13.2367 18.3034 13.2566 18.3651 13.2061 18.4548C13.1761 18.5081 13.1818 18.5821 13.1714 18.6468C13.2361 18.6432 13.3009 18.6411 13.3654 18.6354C13.3856 18.6336 13.4051 18.6223 13.4276 18.6144C13.743 19.0442 14.0572 19.4722 14.3717 19.9006C11.1738 21.3436 6.32533 21.0609 2.935 17.3291C-0.30562 13.7621 -0.593907 8.26032 2.26039 4.29157C5.12129 0.313657 10.3926 -1.06158 14.8068 1.06475C19.3509 3.25373 21.0023 7.89998 20.565 11.4666ZM4.05173 11.1708C3.3893 11.1708 2.72688 11.1717 2.06446 11.1699C1.94799 11.1696 1.86594 11.1835 1.88384 11.3388C2.08087 13.0485 2.70653 14.575 3.77192 15.916C3.84688 16.0104 3.90479 16.0546 4.01718 15.9601C4.74027 15.3521 5.53435 14.8594 6.39566 14.4792C6.48717 14.4388 6.51312 14.3909 6.50217 14.2813C6.40543 13.3125 6.31525 12.343 6.23323 11.3729C6.22035 11.2205 6.1769 11.1661 6.02294 11.1678C5.36593 11.1747 4.70881 11.1707 4.05173 11.1708ZM4.04585 9.60617C4.70826 9.60617 5.3707 9.60225 6.03304 9.6092C6.18047 9.61075 6.22066 9.56005 6.23292 9.41473C6.31429 8.44998 6.40161 7.48567 6.49996 6.52257C6.51351 6.3898 6.4776 6.33793 6.37066 6.29095C5.54346 5.92752 4.78312 5.45182 4.08112 4.87904C3.95171 4.77346 3.83369 4.78907 3.72704 4.92589C2.69774 6.24316 2.08266 7.73469 1.89242 9.40572C1.87143 9.59009 1.8785 9.60568 2.05863 9.60588C2.72104 9.60662 3.38344 9.60618 4.04585 9.60617ZM10.4614 9.60613C11.2999 9.60613 12.1384 9.60375 12.9769 9.60854C13.1124 9.60931 13.1738 9.57538 13.1603 9.42617C13.0895 8.63966 13.0227 7.85275 12.9568 7.06578C12.944 6.91288 12.8838 6.86696 12.7281 6.90331C11.2221 7.25489 9.71456 7.25426 8.20722 6.90737C8.02008 6.8643 7.99201 6.87714 7.97373 7.07545C7.90221 7.85107 7.84 8.62756 7.76967 9.4033C7.75568 9.55761 7.8029 9.61086 7.96191 9.60949C8.79502 9.60236 9.62822 9.60616 10.4614 9.60613ZM10.4599 5.60286C11.1345 5.60223 11.7999 5.51987 12.4574 5.36942C12.5488 5.34852 12.6272 5.32827 12.5913 5.18806C12.3597 4.28529 12.0739 3.40288 11.5863 2.60591C11.4225 2.33825 11.2196 2.08414 10.9921 1.8703C10.6485 1.54734 10.2753 1.54708 9.93297 1.87466C9.69597 2.10146 9.4861 2.37084 9.31559 2.65318C8.84694 3.42919 8.57231 4.28747 8.34313 5.16247C8.30543 5.30644 8.36172 5.34578 8.4778 5.37189C9.13065 5.51874 9.79058 5.60106 10.4599 5.60286ZM7.78093 2.21037C7.76158 2.06097 7.66792 2.11128 7.59148 2.13874C6.70603 2.45688 5.89294 2.90952 5.15291 3.49642C5.01033 3.60949 5.00386 3.64549 5.15725 3.74668C5.64296 4.06713 6.13216 4.38251 6.6272 4.68786C6.82506 4.80991 6.84576 4.79041 6.90525 4.56833C7.11357 3.79068 7.37171 3.03192 7.73558 2.31318C7.75251 2.27974 7.76597 2.2445 7.78093 2.21037ZM13.2408 2.10705C13.1143 2.13446 13.1434 2.21138 13.183 2.28942C13.5601 3.03201 13.8263 3.81669 14.0378 4.62139C14.0745 4.76084 14.137 4.79115 14.2529 4.71767C14.7577 4.39741 15.2648 4.08067 15.7646 3.75255C15.9303 3.64378 15.9219 3.60995 15.7594 3.4823C15.0298 2.90913 14.2325 2.46088 13.3619 2.14838C13.3218 2.13401 13.2813 2.12086 13.2408 2.10705ZM7.80143 18.6268C7.77117 18.555 7.76044 18.5247 7.74617 18.4963C7.37535 17.7572 7.10672 16.9797 6.89614 16.1801C6.85061 16.0072 6.8133 15.983 6.66444 16.0755C6.15674 16.3907 5.65269 16.7122 5.15243 17.0395C5.00471 17.1361 5.0131 17.1768 5.15653 17.2902C5.67938 17.7038 6.24003 18.0557 6.84341 18.3342C7.09959 18.4524 7.36358 18.5539 7.62749 18.6536C7.67166 18.6703 7.73357 18.6386 7.80143 18.6268Z" fill="white"/>
<path d="M12.2383 14.0169C12.2989 11.8141 13.7256 10.1537 15.7444 9.80612C17.8309 9.4469 19.9559 10.9312 20.4067 13.0395C20.5999 13.9435 20.4508 14.7921 20.1001 15.6189C19.3776 17.322 18.37 18.8352 17.1073 20.1731C16.9428 20.3474 16.7437 20.4895 16.5532 20.6366C16.4311 20.7309 16.2894 20.7325 16.1662 20.6377C15.9839 20.4976 15.7961 20.36 15.6357 20.196C14.712 19.2519 13.9685 18.1699 13.3179 17.0205C12.903 16.2874 12.5362 15.5303 12.3461 14.7005C12.2849 14.4334 12.2598 14.1577 12.2383 14.0169ZM16.3861 10.8998C14.749 10.8966 13.4238 12.2292 13.4209 13.8817C13.4181 15.5208 14.7438 16.8706 16.3633 16.8773C17.9809 16.884 19.3116 15.54 19.3146 13.8964C19.3176 12.2409 18.01 10.903 16.3861 10.8998Z" fill="white"/>
</g>
<defs>
<clipPath id="clip0_1_1419">
<rect width="20.3349" height="20.6384" fill="white" transform="translate(0.297852 0.0695801)"/>
</clipPath>
</defs>
</svg>
