<svg width="1920" height="131" viewBox="0 0 1920 131" fill="none" xmlns="http://www.w3.org/2000/svg">
<g clip-path="url(#clip0_88_33)">
<path d="M1927.77 124.622C1912.34 128.881 1895.39 131 1878.27 131C1863.38 131 1848.61 129.399 1834.85 126.152C1827.47 124.414 1820.22 122.499 1813.2 120.19C1793.54 113.715 1756.24 92.8785 1735.66 92.8741C1713.28 92.8696 1699.9 107.886 1682.29 108.385C1662.64 108.943 1659.58 94.7317 1630.43 98.1418C1608.29 100.729 1604.44 117.541 1579.6 118.448C1559.09 119.195 1558.41 109.664 1542.58 106.169C1533.58 104.184 1525.78 103.843 1518.71 104.568C1501.3 111.915 1483.77 119.292 1464.46 124.622C1449.03 128.881 1432.08 131 1414.96 131C1414.7 131 1414.44 131 1414.19 130.996C1414.01 130.996 1413.82 131 1413.65 131C1405.08 131 1396.56 130.398 1388.26 129.226C1384.22 128.678 1380.24 128.006 1376.33 127.205L1366.59 125.431C1336.39 119.863 1312.74 104.697 1286.64 96.4699C1278.37 93.8648 1271.71 93.0156 1266.05 93.2721C1258.16 94.2761 1251.39 97.0361 1245 99.9287C1237.63 103.892 1230.57 108.248 1220 108.832C1202.14 109.823 1190.69 96.4744 1169.28 98.8627C1160.45 99.8491 1152.35 103.985 1144.02 108.036C1136.78 112.985 1129.51 117.961 1116.3 118.443C1099.05 119.071 1095.82 112.432 1085.82 108.226C1081.02 106.683 1075.8 105.55 1069.87 105.537C1051.64 105.506 1034.17 114.79 1019.62 116.462C1013.65 119.186 1007.54 121.871 1000.83 123.932C992.976 126.338 985.974 127.639 978.593 128.806C969.385 130.261 959.884 131 950.329 131C939.424 131 928.573 130.036 918.177 128.147L903.27 125.436C873.062 119.867 849.417 104.701 823.319 96.4744C786.987 85.0233 781.659 107.452 756.679 108.837C738.826 109.827 727.373 96.4788 705.965 98.8672C687.394 100.937 672.032 116.953 651.04 116.824C636.741 116.736 625.243 105.577 606.541 105.546C606.232 105.546 605.916 105.555 605.608 105.559C588.973 112.574 572.153 119.531 553.698 124.626C538.266 128.886 521.315 131.004 504.194 131.004C489.31 131.004 474.542 129.403 460.775 126.157C453.395 124.419 446.146 122.503 439.128 120.195C419.462 113.719 382.167 92.8829 361.591 92.8785C339.21 92.8741 325.83 107.89 308.223 108.39C288.565 108.947 285.512 94.7361 256.36 98.1462C234.219 100.734 230.37 117.545 205.53 118.452C185.016 119.2 184.337 109.668 168.512 106.174C133.191 98.3762 116.232 115.909 90.0573 123.937C82.2065 126.343 75.2039 127.643 67.8235 128.811C58.6153 130.266 49.114 131.004 39.5588 131.004C28.6539 131.004 17.8031 130.04 7.40725 128.152L-7.50011 125.44C-37.7082 119.872 -61.3534 104.705 -87.4509 96.4788C-123.782 85.0277 -129.111 107.457 -154.091 108.841C-171.944 109.832 -183.397 96.4832 -204.805 98.8716C-223.376 100.942 -238.738 116.957 -259.73 116.829C-274.029 116.74 -285.527 105.581 -304.229 105.55C-324.735 105.515 -344.278 117.276 -359.787 116.718C-383.27 115.869 -398.617 88.1503 -431.007 100.946V-53.5303H1984.99V103.312C1966.61 111.07 1948.18 118.987 1927.76 124.622H1927.77Z" fill="#DCDCDC"/>
<path d="M302.634 74.5006C302.634 73.8073 302.751 73.13 302.986 72.4686C303.231 71.7966 303.583 71.1886 304.042 70.6446C304.511 70.09 305.082 69.6526 305.754 69.3326C306.426 69.002 307.188 68.8366 308.042 68.8366C309.055 68.8366 309.924 69.0713 310.65 69.5406C311.375 69.9993 311.914 70.5913 312.266 71.3166L311.13 72.0526C310.906 71.5726 310.618 71.194 310.266 70.9166C309.924 70.6286 309.551 70.426 309.146 70.3086C308.751 70.1913 308.362 70.1326 307.978 70.1326C307.348 70.1326 306.788 70.2606 306.298 70.5166C305.818 70.7726 305.412 71.114 305.082 71.5406C304.751 71.9673 304.5 72.4473 304.33 72.9806C304.17 73.5033 304.09 74.0313 304.09 74.5646C304.09 75.1513 304.186 75.7166 304.378 76.2606C304.58 76.8046 304.858 77.2846 305.21 77.7006C305.562 78.1166 305.978 78.4473 306.458 78.6926C306.938 78.938 307.46 79.0606 308.026 79.0606C308.42 79.0606 308.826 78.9913 309.242 78.8526C309.658 78.714 310.047 78.5006 310.41 78.2126C310.772 77.914 311.06 77.53 311.274 77.0606L312.474 77.7166C312.239 78.282 311.876 78.762 311.386 79.1566C310.895 79.5513 310.346 79.85 309.738 80.0526C309.14 80.2553 308.548 80.3566 307.962 80.3566C307.183 80.3566 306.468 80.1913 305.818 79.8606C305.167 79.5193 304.602 79.0713 304.122 78.5166C303.652 77.9513 303.284 77.322 303.018 76.6286C302.762 75.9246 302.634 75.2153 302.634 74.5006ZM313.396 77.8446C313.396 77.3113 313.545 76.8526 313.844 76.4686C314.153 76.074 314.575 75.77 315.108 75.5566C315.641 75.3433 316.26 75.2366 316.964 75.2366C317.337 75.2366 317.732 75.2686 318.148 75.3326C318.564 75.386 318.932 75.4713 319.252 75.5886V74.9806C319.252 74.3406 319.06 73.8393 318.676 73.4766C318.292 73.1033 317.748 72.9166 317.044 72.9166C316.585 72.9166 316.143 73.002 315.716 73.1726C315.3 73.3326 314.857 73.5673 314.388 73.8766L313.876 72.8846C314.42 72.5113 314.964 72.234 315.508 72.0526C316.052 71.8606 316.617 71.7646 317.204 71.7646C318.271 71.7646 319.113 72.0633 319.732 72.6606C320.351 73.2473 320.66 74.0686 320.66 75.1246V78.6606C320.66 78.8313 320.692 78.9593 320.756 79.0446C320.831 79.1193 320.948 79.162 321.108 79.1726V80.2606C320.969 80.282 320.847 80.298 320.74 80.3086C320.644 80.3193 320.564 80.3246 320.5 80.3246C320.169 80.3246 319.919 80.234 319.748 80.0526C319.588 79.8713 319.497 79.6793 319.476 79.4766L319.444 78.9486C319.081 79.418 318.607 79.7806 318.02 80.0366C317.433 80.2926 316.852 80.4206 316.276 80.4206C315.721 80.4206 315.225 80.3086 314.788 80.0846C314.351 79.85 314.009 79.5406 313.764 79.1566C313.519 78.762 313.396 78.3246 313.396 77.8446ZM318.836 78.4366C318.964 78.2873 319.065 78.138 319.14 77.9886C319.215 77.8286 319.252 77.6953 319.252 77.5886V76.5486C318.921 76.4206 318.575 76.3246 318.212 76.2606C317.849 76.186 317.492 76.1486 317.14 76.1486C316.425 76.1486 315.844 76.2926 315.396 76.5806C314.959 76.858 314.74 77.242 314.74 77.7326C314.74 77.9993 314.809 78.2606 314.948 78.5166C315.097 78.762 315.311 78.9646 315.588 79.1246C315.876 79.2846 316.228 79.3646 316.644 79.3646C317.081 79.3646 317.497 79.2793 317.892 79.1086C318.287 78.9273 318.601 78.7033 318.836 78.4366ZM322.943 68.5806H324.351V78.1006C324.351 78.5593 324.415 78.842 324.543 78.9486C324.671 79.0553 324.826 79.1086 325.007 79.1086C325.231 79.1086 325.445 79.0873 325.647 79.0446C325.85 78.9913 326.021 78.938 326.159 78.8846L326.383 80.0366C326.149 80.1326 325.871 80.2126 325.551 80.2766C325.231 80.3406 324.949 80.3726 324.703 80.3726C324.159 80.3726 323.727 80.218 323.407 79.9086C323.098 79.5993 322.943 79.1673 322.943 78.6126V68.5806ZM327.521 68.5806H328.929V78.1006C328.929 78.5593 328.993 78.842 329.121 78.9486C329.249 79.0553 329.404 79.1086 329.585 79.1086C329.809 79.1086 330.023 79.0873 330.225 79.0446C330.428 78.9913 330.599 78.938 330.737 78.8846L330.961 80.0366C330.727 80.1326 330.449 80.2126 330.129 80.2766C329.809 80.3406 329.527 80.3726 329.281 80.3726C328.737 80.3726 328.305 80.218 327.985 79.9086C327.676 79.5993 327.521 79.1673 327.521 78.6126V68.5806ZM337.294 71.5566V80.2606H335.854V68.9006H337.07L344.014 77.7806V68.9166H345.454V80.2606H344.142L337.294 71.5566ZM351.45 80.4206C350.821 80.4206 350.25 80.3086 349.738 80.0846C349.226 79.85 348.783 79.5353 348.41 79.1406C348.037 78.7353 347.749 78.2713 347.546 77.7486C347.343 77.226 347.242 76.6766 347.242 76.1006C347.242 75.514 347.343 74.9593 347.546 74.4366C347.749 73.914 348.037 73.4553 348.41 73.0606C348.783 72.6553 349.226 72.3406 349.738 72.1166C350.261 71.882 350.831 71.7646 351.45 71.7646C352.079 71.7646 352.65 71.882 353.162 72.1166C353.674 72.3406 354.117 72.6553 354.49 73.0606C354.874 73.4553 355.167 73.914 355.37 74.4366C355.573 74.9593 355.674 75.514 355.674 76.1006C355.674 76.6766 355.573 77.226 355.37 77.7486C355.167 78.2713 354.879 78.7353 354.506 79.1406C354.133 79.5353 353.685 79.85 353.162 80.0846C352.65 80.3086 352.079 80.4206 351.45 80.4206ZM348.682 76.1166C348.682 76.6926 348.805 77.2153 349.05 77.6846C349.306 78.154 349.642 78.5273 350.058 78.8046C350.474 79.0713 350.938 79.2046 351.45 79.2046C351.962 79.2046 352.426 79.066 352.842 78.7886C353.269 78.5113 353.605 78.138 353.85 77.6686C354.106 77.1886 354.234 76.6606 354.234 76.0846C354.234 75.5086 354.106 74.986 353.85 74.5166C353.605 74.0473 353.269 73.674 352.842 73.3966C352.426 73.1193 351.962 72.9806 351.45 72.9806C350.938 72.9806 350.474 73.1246 350.058 73.4126C349.642 73.69 349.306 74.0633 349.05 74.5326C348.805 75.002 348.682 75.53 348.682 76.1166ZM367.563 71.9086H368.923L365.371 80.2606H364.139L362.523 76.3246L360.923 80.2606H359.691L356.139 71.9086H357.483L360.363 78.8686L361.707 75.4446L360.299 71.9246H361.531L362.523 74.5806L363.515 71.9246H364.747L363.355 75.4446L364.699 78.8686L367.563 71.9086ZM378.553 74.0046V75.1566H376.665V77.2046H375.385V75.1566H373.497V74.0046H375.385V71.9566H376.665V74.0046H378.553ZM379.929 75.0446C379.929 74.3193 380.105 73.6633 380.457 73.0766C380.82 72.4793 381.311 72.0046 381.929 71.6526C382.548 71.3006 383.236 71.1246 383.993 71.1246C384.815 71.1246 385.529 71.322 386.137 71.7166C386.756 72.1006 387.236 72.6606 387.577 73.3966C387.929 74.122 388.105 74.9966 388.105 76.0206C388.105 77.514 387.929 78.7566 387.577 79.7486C387.225 80.7406 386.729 81.482 386.089 81.9726C385.449 82.474 384.703 82.7246 383.849 82.7246C383.113 82.7246 382.441 82.5433 381.833 82.1806C381.236 81.8286 380.767 81.338 380.425 80.7086L381.289 79.8606C381.524 80.3513 381.871 80.746 382.329 81.0446C382.799 81.3433 383.311 81.4926 383.865 81.4926C384.452 81.4926 384.959 81.3166 385.385 80.9646C385.823 80.6126 386.159 80.106 386.393 79.4446C386.639 78.7833 386.767 77.9833 386.777 77.0446C386.628 77.4073 386.404 77.7273 386.105 78.0046C385.817 78.282 385.481 78.4953 385.097 78.6446C384.713 78.794 384.297 78.8686 383.849 78.8686C383.124 78.8686 382.463 78.698 381.865 78.3566C381.268 78.0153 380.793 77.5566 380.441 76.9806C380.1 76.4046 379.929 75.7593 379.929 75.0446ZM383.977 72.3406C383.487 72.3406 383.033 72.4633 382.617 72.7086C382.212 72.954 381.887 73.2793 381.641 73.6846C381.396 74.09 381.273 74.5433 381.273 75.0446C381.273 75.5353 381.396 75.9833 381.641 76.3886C381.887 76.794 382.212 77.1193 382.617 77.3646C383.033 77.61 383.487 77.7326 383.977 77.7326C384.479 77.7326 384.932 77.61 385.337 77.3646C385.743 77.1193 386.068 76.794 386.313 76.3886C386.559 75.9833 386.681 75.5353 386.681 75.0446C386.681 74.554 386.559 74.106 386.313 73.7006C386.068 73.2846 385.737 72.954 385.321 72.7086C384.916 72.4633 384.468 72.3406 383.977 72.3406ZM395.591 78.9806V80.2606H389.847V78.9806H392.119V72.7406C392.023 72.8686 391.874 73.0073 391.671 73.1566C391.469 73.2953 391.239 73.4286 390.983 73.5566C390.727 73.6846 390.471 73.7913 390.215 73.8766C389.959 73.9513 389.725 73.9886 389.511 73.9886V72.6446C389.746 72.6446 390.002 72.5806 390.279 72.4526C390.567 72.314 390.845 72.154 391.111 71.9726C391.378 71.7913 391.602 71.6206 391.783 71.4606C391.975 71.3006 392.087 71.1886 392.119 71.1246H393.559V78.9806H395.591ZM400.601 75.0446C400.601 74.3193 400.777 73.6633 401.129 73.0766C401.492 72.4793 401.983 72.0046 402.601 71.6526C403.22 71.3006 403.908 71.1246 404.665 71.1246C405.487 71.1246 406.201 71.322 406.809 71.7166C407.428 72.1006 407.908 72.6606 408.249 73.3966C408.601 74.122 408.777 74.9966 408.777 76.0206C408.777 77.514 408.601 78.7566 408.249 79.7486C407.897 80.7406 407.401 81.482 406.761 81.9726C406.121 82.474 405.375 82.7246 404.521 82.7246C403.785 82.7246 403.113 82.5433 402.505 82.1806C401.908 81.8286 401.439 81.338 401.097 80.7086L401.961 79.8606C402.196 80.3513 402.543 80.746 403.001 81.0446C403.471 81.3433 403.983 81.4926 404.537 81.4926C405.124 81.4926 405.631 81.3166 406.057 80.9646C406.495 80.6126 406.831 80.106 407.065 79.4446C407.311 78.7833 407.439 77.9833 407.449 77.0446C407.3 77.4073 407.076 77.7273 406.777 78.0046C406.489 78.282 406.153 78.4953 405.769 78.6446C405.385 78.794 404.969 78.8686 404.521 78.8686C403.796 78.8686 403.135 78.698 402.537 78.3566C401.94 78.0153 401.465 77.5566 401.113 76.9806C400.772 76.4046 400.601 75.7593 400.601 75.0446ZM404.649 72.3406C404.159 72.3406 403.705 72.4633 403.289 72.7086C402.884 72.954 402.559 73.2793 402.313 73.6846C402.068 74.09 401.945 74.5433 401.945 75.0446C401.945 75.5353 402.068 75.9833 402.313 76.3886C402.559 76.794 402.884 77.1193 403.289 77.3646C403.705 77.61 404.159 77.7326 404.649 77.7326C405.151 77.7326 405.604 77.61 406.009 77.3646C406.415 77.1193 406.74 76.794 406.985 76.3886C407.231 75.9833 407.353 75.5353 407.353 75.0446C407.353 74.554 407.231 74.106 406.985 73.7006C406.74 73.2846 406.409 72.954 405.993 72.7086C405.588 72.4633 405.14 72.3406 404.649 72.3406ZM418.231 77.0446C418.231 77.7166 418.044 78.3033 417.671 78.8046C417.308 79.306 416.818 79.6953 416.199 79.9726C415.591 80.25 414.924 80.3886 414.199 80.3886C413.442 80.3886 412.764 80.2393 412.167 79.9406C411.57 79.6313 411.095 79.2206 410.743 78.7086C410.402 78.1966 410.231 77.6206 410.231 76.9806C410.231 76.5113 410.338 76.09 410.551 75.7166C410.764 75.3433 411.031 75.0286 411.351 74.7726C411.682 74.506 412.018 74.3086 412.359 74.1806C412.05 74.042 411.762 73.8606 411.495 73.6366C411.228 73.4126 411.015 73.1513 410.855 72.8526C410.695 72.554 410.615 72.2286 410.615 71.8766C410.615 71.3966 410.722 70.9753 410.935 70.6126C411.148 70.2393 411.431 69.9246 411.783 69.6686C412.135 69.4126 412.524 69.2206 412.951 69.0926C413.378 68.9646 413.804 68.9006 414.231 68.9006C414.658 68.9006 415.084 68.9646 415.511 69.0926C415.938 69.2206 416.327 69.4126 416.679 69.6686C417.042 69.914 417.33 70.2233 417.543 70.5966C417.756 70.9593 417.863 71.3806 417.863 71.8606C417.863 72.2126 417.783 72.5433 417.623 72.8526C417.463 73.1513 417.244 73.4126 416.967 73.6366C416.7 73.8606 416.407 74.042 416.087 74.1806C416.471 74.33 416.823 74.5433 417.143 74.8206C417.474 75.0873 417.735 75.4073 417.927 75.7806C418.13 76.154 418.231 76.5753 418.231 77.0446ZM416.807 76.9486C416.807 76.6073 416.732 76.3033 416.583 76.0366C416.434 75.7593 416.231 75.53 415.975 75.3486C415.719 75.1566 415.436 75.0126 415.127 74.9166C414.828 74.8206 414.524 74.7726 414.215 74.7726C413.788 74.7726 413.378 74.8633 412.983 75.0446C412.599 75.226 412.284 75.482 412.039 75.8126C411.794 76.1326 411.671 76.5166 411.671 76.9646C411.671 77.2953 411.746 77.594 411.895 77.8606C412.044 78.1273 412.242 78.3566 412.487 78.5486C412.743 78.7406 413.02 78.8846 413.319 78.9806C413.628 79.0766 413.938 79.1246 414.247 79.1246C414.674 79.1246 415.079 79.034 415.463 78.8526C415.858 78.6713 416.178 78.4153 416.423 78.0846C416.679 77.754 416.807 77.3753 416.807 76.9486ZM412.039 71.9246C412.039 72.298 412.151 72.618 412.375 72.8846C412.599 73.1513 412.882 73.354 413.223 73.4926C413.564 73.6206 413.9 73.6846 414.231 73.6846C414.572 73.6846 414.908 73.6153 415.239 73.4766C415.58 73.338 415.863 73.1353 416.087 72.8686C416.311 72.602 416.423 72.2766 416.423 71.8926C416.423 71.53 416.316 71.2206 416.103 70.9646C415.9 70.7086 415.628 70.5113 415.287 70.3726C414.956 70.234 414.599 70.1646 414.215 70.1646C413.842 70.1646 413.484 70.2393 413.143 70.3886C412.812 70.5273 412.546 70.73 412.343 70.9966C412.14 71.2526 412.039 71.562 412.039 71.9246ZM419.586 75.0446C419.586 74.3193 419.762 73.6633 420.114 73.0766C420.476 72.4793 420.967 72.0046 421.586 71.6526C422.204 71.3006 422.892 71.1246 423.65 71.1246C424.471 71.1246 425.186 71.322 425.794 71.7166C426.412 72.1006 426.892 72.6606 427.234 73.3966C427.586 74.122 427.762 74.9966 427.762 76.0206C427.762 77.514 427.586 78.7566 427.234 79.7486C426.882 80.7406 426.386 81.482 425.746 81.9726C425.106 82.474 424.359 82.7246 423.506 82.7246C422.77 82.7246 422.098 82.5433 421.49 82.1806C420.892 81.8286 420.423 81.338 420.082 80.7086L420.946 79.8606C421.18 80.3513 421.527 80.746 421.986 81.0446C422.455 81.3433 422.967 81.4926 423.522 81.4926C424.108 81.4926 424.615 81.3166 425.042 80.9646C425.479 80.6126 425.815 80.106 426.05 79.4446C426.295 78.7833 426.423 77.9833 426.434 77.0446C426.284 77.4073 426.06 77.7273 425.762 78.0046C425.474 78.282 425.138 78.4953 424.754 78.6446C424.37 78.794 423.954 78.8686 423.506 78.8686C422.78 78.8686 422.119 78.698 421.522 78.3566C420.924 78.0153 420.45 77.5566 420.098 76.9806C419.756 76.4046 419.586 75.7593 419.586 75.0446ZM423.634 72.3406C423.143 72.3406 422.69 72.4633 422.274 72.7086C421.868 72.954 421.543 73.2793 421.298 73.6846C421.052 74.09 420.93 74.5433 420.93 75.0446C420.93 75.5353 421.052 75.9833 421.298 76.3886C421.543 76.794 421.868 77.1193 422.274 77.3646C422.69 77.61 423.143 77.7326 423.634 77.7326C424.135 77.7326 424.588 77.61 424.994 77.3646C425.399 77.1193 425.724 76.794 425.97 76.3886C426.215 75.9833 426.338 75.5353 426.338 75.0446C426.338 74.554 426.215 74.106 425.97 73.7006C425.724 73.2846 425.394 72.954 424.978 72.7086C424.572 72.4633 424.124 72.3406 423.634 72.3406ZM432.624 82.6446C431.813 82.6446 431.082 82.4526 430.432 82.0686C429.781 81.6846 429.29 81.1726 428.96 80.5326L429.84 79.7646C430.138 80.2553 430.533 80.65 431.024 80.9486C431.525 81.2473 432.064 81.3966 432.64 81.3966C433.13 81.3966 433.568 81.29 433.952 81.0766C434.336 80.8633 434.64 80.57 434.864 80.1966C435.088 79.8126 435.2 79.3753 435.2 78.8846C435.2 78.4046 435.088 77.9833 434.864 77.6206C434.65 77.258 434.357 76.9753 433.984 76.7726C433.621 76.57 433.21 76.4686 432.752 76.4686C432.293 76.4686 431.861 76.57 431.456 76.7726C431.061 76.9753 430.736 77.2633 430.48 77.6366H429.216L430.496 71.1246H436.016V72.4206H431.536L430.848 76.0366C431.082 75.7913 431.376 75.5993 431.728 75.4606C432.09 75.3113 432.49 75.2366 432.928 75.2366C433.632 75.2366 434.261 75.3913 434.816 75.7006C435.381 76.01 435.824 76.4366 436.144 76.9806C436.474 77.5246 436.64 78.154 436.64 78.8686C436.64 79.6153 436.458 80.2713 436.096 80.8366C435.744 81.4126 435.264 81.8553 434.656 82.1646C434.048 82.4846 433.37 82.6446 432.624 82.6446ZM437.773 75.0446C437.773 74.3193 437.949 73.6633 438.301 73.0766C438.664 72.4793 439.154 72.0046 439.773 71.6526C440.392 71.3006 441.08 71.1246 441.837 71.1246C442.658 71.1246 443.373 71.322 443.981 71.7166C444.6 72.1006 445.08 72.6606 445.421 73.3966C445.773 74.122 445.949 74.9966 445.949 76.0206C445.949 77.514 445.773 78.7566 445.421 79.7486C445.069 80.7406 444.573 81.482 443.933 81.9726C443.293 82.474 442.546 82.7246 441.693 82.7246C440.957 82.7246 440.285 82.5433 439.677 82.1806C439.08 81.8286 438.61 81.338 438.269 80.7086L439.133 79.8606C439.368 80.3513 439.714 80.746 440.173 81.0446C440.642 81.3433 441.154 81.4926 441.709 81.4926C442.296 81.4926 442.802 81.3166 443.229 80.9646C443.666 80.6126 444.002 80.106 444.237 79.4446C444.482 78.7833 444.61 77.9833 444.621 77.0446C444.472 77.4073 444.248 77.7273 443.949 78.0046C443.661 78.282 443.325 78.4953 442.941 78.6446C442.557 78.794 442.141 78.8686 441.693 78.8686C440.968 78.8686 440.306 78.698 439.709 78.3566C439.112 78.0153 438.637 77.5566 438.285 76.9806C437.944 76.4046 437.773 75.7593 437.773 75.0446ZM441.821 72.3406C441.33 72.3406 440.877 72.4633 440.461 72.7086C440.056 72.954 439.73 73.2793 439.485 73.6846C439.24 74.09 439.117 74.5433 439.117 75.0446C439.117 75.5353 439.24 75.9833 439.485 76.3886C439.73 76.794 440.056 77.1193 440.461 77.3646C440.877 77.61 441.33 77.7326 441.821 77.7326C442.322 77.7326 442.776 77.61 443.181 77.3646C443.586 77.1193 443.912 76.794 444.157 76.3886C444.402 75.9833 444.525 75.5353 444.525 75.0446C444.525 74.554 444.402 74.106 444.157 73.7006C443.912 73.2846 443.581 72.954 443.165 72.7086C442.76 72.4633 442.312 72.3406 441.821 72.3406ZM451.242 75.0446C451.242 74.3193 451.418 73.6633 451.77 73.0766C452.133 72.4793 452.623 72.0046 453.242 71.6526C453.861 71.3006 454.549 71.1246 455.306 71.1246C456.127 71.1246 456.842 71.322 457.45 71.7166C458.069 72.1006 458.549 72.6606 458.89 73.3966C459.242 74.122 459.418 74.9966 459.418 76.0206C459.418 77.514 459.242 78.7566 458.89 79.7486C458.538 80.7406 458.042 81.482 457.402 81.9726C456.762 82.474 456.015 82.7246 455.162 82.7246C454.426 82.7246 453.754 82.5433 453.146 82.1806C452.549 81.8286 452.079 81.338 451.738 80.7086L452.602 79.8606C452.837 80.3513 453.183 80.746 453.642 81.0446C454.111 81.3433 454.623 81.4926 455.178 81.4926C455.765 81.4926 456.271 81.3166 456.698 80.9646C457.135 80.6126 457.471 80.106 457.706 79.4446C457.951 78.7833 458.079 77.9833 458.09 77.0446C457.941 77.4073 457.717 77.7273 457.418 78.0046C457.13 78.282 456.794 78.4953 456.41 78.6446C456.026 78.794 455.61 78.8686 455.162 78.8686C454.437 78.8686 453.775 78.698 453.178 78.3566C452.581 78.0153 452.106 77.5566 451.754 76.9806C451.413 76.4046 451.242 75.7593 451.242 75.0446ZM455.29 72.3406C454.799 72.3406 454.346 72.4633 453.93 72.7086C453.525 72.954 453.199 73.2793 452.954 73.6846C452.709 74.09 452.586 74.5433 452.586 75.0446C452.586 75.5353 452.709 75.9833 452.954 76.3886C453.199 76.794 453.525 77.1193 453.93 77.3646C454.346 77.61 454.799 77.7326 455.29 77.7326C455.791 77.7326 456.245 77.61 456.65 77.3646C457.055 77.1193 457.381 76.794 457.626 76.3886C457.871 75.9833 457.994 75.5353 457.994 75.0446C457.994 74.554 457.871 74.106 457.626 73.7006C457.381 73.2846 457.05 72.954 456.634 72.7086C456.229 72.4633 455.781 72.3406 455.29 72.3406ZM460.664 75.0446C460.664 74.3193 460.84 73.6633 461.192 73.0766C461.554 72.4793 462.045 72.0046 462.664 71.6526C463.282 71.3006 463.97 71.1246 464.728 71.1246C465.549 71.1246 466.264 71.322 466.872 71.7166C467.49 72.1006 467.97 72.6606 468.312 73.3966C468.664 74.122 468.84 74.9966 468.84 76.0206C468.84 77.514 468.664 78.7566 468.312 79.7486C467.96 80.7406 467.464 81.482 466.824 81.9726C466.184 82.474 465.437 82.7246 464.584 82.7246C463.848 82.7246 463.176 82.5433 462.568 82.1806C461.97 81.8286 461.501 81.338 461.16 80.7086L462.024 79.8606C462.258 80.3513 462.605 80.746 463.064 81.0446C463.533 81.3433 464.045 81.4926 464.6 81.4926C465.186 81.4926 465.693 81.3166 466.12 80.9646C466.557 80.6126 466.893 80.106 467.128 79.4446C467.373 78.7833 467.501 77.9833 467.512 77.0446C467.362 77.4073 467.138 77.7273 466.84 78.0046C466.552 78.282 466.216 78.4953 465.832 78.6446C465.448 78.794 465.032 78.8686 464.584 78.8686C463.858 78.8686 463.197 78.698 462.6 78.3566C462.002 78.0153 461.528 77.5566 461.176 76.9806C460.834 76.4046 460.664 75.7593 460.664 75.0446ZM464.712 72.3406C464.221 72.3406 463.768 72.4633 463.352 72.7086C462.946 72.954 462.621 73.2793 462.376 73.6846C462.13 74.09 462.008 74.5433 462.008 75.0446C462.008 75.5353 462.13 75.9833 462.376 76.3886C462.621 76.794 462.946 77.1193 463.352 77.3646C463.768 77.61 464.221 77.7326 464.712 77.7326C465.213 77.7326 465.666 77.61 466.072 77.3646C466.477 77.1193 466.802 76.794 467.048 76.3886C467.293 75.9833 467.416 75.5353 467.416 75.0446C467.416 74.554 467.293 74.106 467.048 73.7006C466.802 73.2846 466.472 72.954 466.056 72.7086C465.65 72.4633 465.202 72.3406 464.712 72.3406ZM470.086 75.0446C470.086 74.3193 470.262 73.6633 470.614 73.0766C470.976 72.4793 471.467 72.0046 472.086 71.6526C472.704 71.3006 473.392 71.1246 474.15 71.1246C474.971 71.1246 475.686 71.322 476.294 71.7166C476.912 72.1006 477.392 72.6606 477.734 73.3966C478.086 74.122 478.262 74.9966 478.262 76.0206C478.262 77.514 478.086 78.7566 477.734 79.7486C477.382 80.7406 476.886 81.482 476.246 81.9726C475.606 82.474 474.859 82.7246 474.006 82.7246C473.27 82.7246 472.598 82.5433 471.99 82.1806C471.392 81.8286 470.923 81.338 470.582 80.7086L471.446 79.8606C471.68 80.3513 472.027 80.746 472.486 81.0446C472.955 81.3433 473.467 81.4926 474.022 81.4926C474.608 81.4926 475.115 81.3166 475.542 80.9646C475.979 80.6126 476.315 80.106 476.55 79.4446C476.795 78.7833 476.923 77.9833 476.934 77.0446C476.784 77.4073 476.56 77.7273 476.262 78.0046C475.974 78.282 475.638 78.4953 475.254 78.6446C474.87 78.794 474.454 78.8686 474.006 78.8686C473.28 78.8686 472.619 78.698 472.022 78.3566C471.424 78.0153 470.95 77.5566 470.598 76.9806C470.256 76.4046 470.086 75.7593 470.086 75.0446ZM474.134 72.3406C473.643 72.3406 473.19 72.4633 472.774 72.7086C472.368 72.954 472.043 73.2793 471.798 73.6846C471.552 74.09 471.43 74.5433 471.43 75.0446C471.43 75.5353 471.552 75.9833 471.798 76.3886C472.043 76.794 472.368 77.1193 472.774 77.3646C473.19 77.61 473.643 77.7326 474.134 77.7326C474.635 77.7326 475.088 77.61 475.494 77.3646C475.899 77.1193 476.224 76.794 476.47 76.3886C476.715 75.9833 476.838 75.5353 476.838 75.0446C476.838 74.554 476.715 74.106 476.47 73.7006C476.224 73.2846 475.894 72.954 475.478 72.7086C475.072 72.4633 474.624 72.3406 474.134 72.3406ZM483.124 82.6446C482.313 82.6446 481.582 82.4526 480.932 82.0686C480.281 81.6846 479.79 81.1726 479.46 80.5326L480.34 79.7646C480.638 80.2553 481.033 80.65 481.524 80.9486C482.025 81.2473 482.564 81.3966 483.14 81.3966C483.63 81.3966 484.068 81.29 484.452 81.0766C484.836 80.8633 485.14 80.57 485.364 80.1966C485.588 79.8126 485.7 79.3753 485.7 78.8846C485.7 78.4046 485.588 77.9833 485.364 77.6206C485.15 77.258 484.857 76.9753 484.484 76.7726C484.121 76.57 483.71 76.4686 483.252 76.4686C482.793 76.4686 482.361 76.57 481.956 76.7726C481.561 76.9753 481.236 77.2633 480.98 77.6366H479.716L480.996 71.1246H486.516V72.4206H482.036L481.348 76.0366C481.582 75.7913 481.876 75.5993 482.228 75.4606C482.59 75.3113 482.99 75.2366 483.428 75.2366C484.132 75.2366 484.761 75.3913 485.316 75.7006C485.881 76.01 486.324 76.4366 486.644 76.9806C486.974 77.5246 487.14 78.154 487.14 78.8686C487.14 79.6153 486.958 80.2713 486.596 80.8366C486.244 81.4126 485.764 81.8553 485.156 82.1646C484.548 82.4846 483.87 82.6446 483.124 82.6446ZM491.889 82.6446C491.078 82.6446 490.348 82.4526 489.697 82.0686C489.046 81.6846 488.556 81.1726 488.225 80.5326L489.105 79.7646C489.404 80.2553 489.798 80.65 490.289 80.9486C490.79 81.2473 491.329 81.3966 491.905 81.3966C492.396 81.3966 492.833 81.29 493.217 81.0766C493.601 80.8633 493.905 80.57 494.129 80.1966C494.353 79.8126 494.465 79.3753 494.465 78.8846C494.465 78.4046 494.353 77.9833 494.129 77.6206C493.916 77.258 493.622 76.9753 493.249 76.7726C492.886 76.57 492.476 76.4686 492.017 76.4686C491.558 76.4686 491.126 76.57 490.721 76.7726C490.326 76.9753 490.001 77.2633 489.745 77.6366H488.481L489.761 71.1246H495.281V72.4206H490.801L490.113 76.0366C490.348 75.7913 490.641 75.5993 490.993 75.4606C491.356 75.3113 491.756 75.2366 492.193 75.2366C492.897 75.2366 493.526 75.3913 494.081 75.7006C494.646 76.01 495.089 76.4366 495.409 76.9806C495.74 77.5246 495.905 78.154 495.905 78.8686C495.905 79.6153 495.724 80.2713 495.361 80.8366C495.009 81.4126 494.529 81.8553 493.921 82.1646C493.313 82.4846 492.636 82.6446 491.889 82.6446Z" fill="#301712"/>
</g>
<g clip-path="url(#clip1_88_33)">
<path d="M1927.77 120.066C1912.34 124.325 1895.39 126.443 1878.27 126.443C1863.38 126.443 1848.61 124.842 1834.85 121.596C1827.47 119.858 1820.22 117.943 1813.2 115.634C1793.54 109.159 1756.24 88.322 1735.66 88.3175C1713.28 88.3131 1699.9 103.329 1682.29 103.829C1662.64 104.386 1659.58 90.1752 1630.43 93.5853C1608.29 96.1727 1604.44 112.984 1579.6 113.891C1559.09 114.639 1558.41 105.107 1542.58 101.613C1533.58 99.6271 1525.78 99.2865 1518.71 100.012C1501.3 107.358 1483.77 114.736 1464.46 120.066C1449.03 124.325 1432.08 126.443 1414.96 126.443C1414.7 126.443 1414.44 126.443 1414.19 126.439C1414.01 126.439 1413.82 126.443 1413.65 126.443C1405.08 126.443 1396.56 125.842 1388.26 124.67C1384.22 124.121 1380.24 123.449 1376.33 122.649L1366.59 120.875C1336.39 115.306 1312.74 100.14 1286.64 91.9134C1278.37 89.3083 1271.71 88.4591 1266.05 88.7156C1258.16 89.7196 1251.39 92.4795 1245 95.3722C1237.63 99.3351 1230.57 103.692 1220 104.276C1202.14 105.266 1190.69 91.9178 1169.28 94.3062C1160.45 95.2925 1152.35 99.428 1144.02 103.479C1136.78 108.429 1129.51 113.405 1116.3 113.887C1099.05 114.515 1095.82 107.876 1085.82 103.67C1081.02 102.126 1075.8 100.994 1069.87 100.98C1051.64 100.95 1034.17 110.233 1019.62 111.905C1013.65 114.63 1007.54 117.314 1000.83 119.376C992.976 121.782 985.974 123.082 978.593 124.25C969.385 125.705 959.884 126.443 950.329 126.443C939.424 126.443 928.573 125.479 918.177 123.591L903.27 120.879C873.062 115.311 849.417 100.145 823.319 91.9178C786.988 80.4668 781.659 102.896 756.679 104.28C738.826 105.271 727.373 91.9223 705.965 94.3107C687.394 96.3806 672.032 112.396 651.04 112.268C636.741 112.179 625.243 101.02 606.541 100.989C606.232 100.989 605.916 100.998 605.608 101.003C588.973 108.017 572.153 114.975 553.698 120.07C538.266 124.329 521.315 126.448 504.194 126.448C489.31 126.448 474.542 124.847 460.776 121.6C453.395 119.862 446.146 117.947 439.128 115.638C419.462 109.163 382.167 88.3264 361.591 88.322C339.21 88.3175 325.83 103.333 308.224 103.833C288.565 104.391 285.512 90.1796 256.36 93.5897C234.219 96.1771 230.37 112.989 205.53 113.896C185.016 114.643 184.337 105.112 168.512 101.617C133.191 93.8197 116.232 111.352 90.0573 119.38C82.2064 121.786 75.2039 123.086 67.8235 124.254C58.6153 125.709 49.114 126.448 39.5588 126.448C28.6539 126.448 17.8031 125.484 7.40726 123.595L-7.50012 120.884C-37.7082 115.315 -61.3534 100.149 -87.4509 91.9223C-123.782 80.4712 -129.111 102.9 -154.091 104.284C-171.944 105.275 -183.397 91.9267 -204.805 94.3151C-223.376 96.385 -238.738 112.401 -259.73 112.272C-274.029 112.184 -285.527 101.025 -304.229 100.994C-324.735 100.958 -344.278 112.719 -359.787 112.162C-383.27 111.313 -398.617 83.5938 -431.007 96.3894V-58.0868H1984.99V98.7557C1966.61 106.514 1948.18 114.431 1927.76 120.066H1927.77Z" fill="white"/>
</g>
<defs>
<clipPath id="clip0_88_33">
<rect width="1920" height="126.443" fill="white" transform="matrix(1 0 0 -1 0 131)"/>
</clipPath>
<clipPath id="clip1_88_33">
<rect width="1920" height="126.443" fill="white" transform="matrix(1 0 0 -1 0 126.443)"/>
</clipPath>
</defs>
</svg>
