<svg width="1920" height="223" viewBox="0 0 1920 223" fill="none" xmlns="http://www.w3.org/2000/svg">
<path d="M504.195 1.42065C520.71 1.42071 537.064 4.8968 552.036 11.8816L553.48 12.5681C571.887 21.4909 588.672 33.6795 605.31 45.9978L605.437 46.0916L605.595 46.0955L606.541 46.1189H606.542C616.068 46.0912 623.736 41.0844 630.729 36.1648C634.243 33.6928 637.575 31.2495 640.925 29.407C644.06 27.6827 647.171 26.5086 650.398 26.3376L651.045 26.3171C661.328 26.2071 670.279 33.0408 679.086 40.5144C683.465 44.2304 687.807 48.1003 692.208 51.2595C696.475 54.3218 700.842 56.7508 705.424 57.7439L705.869 57.8357C716.789 59.9746 725.159 55.0482 732.93 49.9304C736.834 47.3596 740.571 44.7509 744.451 42.8826C748.198 41.0783 752.04 39.9852 756.225 40.3035L756.63 40.3386C762.738 40.9329 767.664 43.7849 772.206 47.4734C774.478 49.3188 776.646 51.366 778.817 53.4392C780.984 55.5081 783.156 57.6057 785.418 59.5261C789.946 63.3686 794.884 66.5497 801.017 67.4724C806.964 68.367 813.96 67.1275 822.708 62.447L823.561 61.9832C836.649 54.7393 849.131 44.4353 862.052 34.7722C874.996 25.092 888.403 16.0349 903.423 11.1736L903.422 11.1726L918.33 6.41382L918.329 6.41284C928.675 3.11261 939.476 1.42848 950.329 1.42847C959.541 1.42847 968.704 2.63954 977.6 5.0271L978.459 5.26147C985.594 7.24318 992.35 9.43749 999.861 13.3904L1000.59 13.7781C1007.26 17.3732 1013.34 22.0606 1019.31 26.8435L1019.4 26.9197L1019.52 26.9441C1023.1 27.6653 1026.87 29.2124 1030.83 31.1462C1034.79 33.0828 1038.88 35.3808 1043.14 37.6082C1051.33 41.904 1060.06 45.904 1069 46.1248L1069.87 46.1345H1069.87C1075.92 46.1107 1081.22 44.0826 1086.07 41.3484L1086.09 41.3337L1086.12 41.3152C1088.66 39.4405 1090.76 37.2995 1092.74 35.1814C1094.73 33.0539 1096.59 30.9651 1098.67 29.1365C1102.67 25.6273 1107.48 23.0946 1115.48 23.4324L1116.27 23.4734C1129.24 24.3044 1136.38 32.8566 1143.64 41.5671L1143.67 41.5994L1143.7 41.6267C1147.85 45.1758 1151.98 48.7892 1156.18 51.7273C1160.24 54.5746 1164.4 56.8148 1168.76 57.7566L1169.19 57.8435C1180.11 59.9825 1188.48 55.056 1196.25 49.9382C1200.15 47.3674 1203.89 44.7588 1207.77 42.8904C1211.51 41.0862 1215.36 39.9931 1219.54 40.3113L1219.95 40.3464C1230.31 41.3512 1237.23 48.8375 1244.65 55.8445L1244.67 55.8591L1244.69 55.8728C1251.08 60.9523 1257.93 65.8658 1265.94 67.656L1265.98 67.6638L1266.01 67.6667C1271.62 68.1126 1278.13 66.6907 1286.11 62.4138L1286.89 61.991C1299.97 54.7472 1312.46 44.4431 1325.38 34.78C1338.32 25.1002 1351.73 16.0418 1366.75 11.1804L1366.75 11.1814L1376.49 8.06714L1376.5 8.06519L1376.5 8.06128C1379.91 6.83696 1383.37 5.78455 1386.87 4.89819L1388.37 4.52905L1388.38 4.52808C1396.64 2.47988 1405.12 1.4285 1413.65 1.42847C1413.73 1.42847 1413.81 1.43041 1413.9 1.43237C1413.99 1.43429 1414.09 1.43627 1414.19 1.43628H1414.2C1414.45 1.42879 1414.7 1.42847 1414.96 1.42847C1431.47 1.42847 1447.83 4.90468 1462.8 11.8894L1464.24 12.5759C1483.5 21.9096 1501 34.834 1518.41 47.7371L1518.5 47.8064L1518.62 47.8269C1525.56 49.0778 1533.19 48.5434 1541.92 45.3113L1542.76 44.99C1550.81 41.8722 1555.04 36.0304 1559.69 31.3035C1562.03 28.9278 1564.48 26.8162 1567.6 25.3728C1570.51 24.0222 1574.04 23.2433 1578.64 23.4177L1579.57 23.4656C1591.76 24.2467 1598.81 31.86 1605.65 40.0076C1612.34 47.9842 1618.85 56.5232 1629.81 58.9949L1630.33 59.1082C1637.69 60.62 1643.44 60.1841 1648.22 58.6736C1653 57.165 1656.78 54.595 1660.23 51.8982C1667.06 46.5562 1672.5 40.8369 1681.82 41.115L1682.27 41.1326C1686.55 41.3459 1690.6 43.1089 1694.65 45.6814C1698.7 48.2573 1702.69 51.611 1706.88 54.9724C1715.08 61.5585 1723.99 68.1612 1735.13 68.3621L1735.66 68.3669C1740.93 68.3649 1747.21 66.0268 1753.93 62.4089C1760.66 58.7838 1767.89 53.8387 1775.07 48.5505C1782.25 43.2634 1789.41 37.6153 1795.99 32.5935C1802.57 27.5635 1808.57 23.1645 1813.45 20.3406L1813.45 20.3396C1820 16.553 1826.77 13.3698 1833.66 10.4763L1835.04 9.90112H1835.04C1848.74 4.22752 1863.44 1.42847 1878.27 1.42847C1895.31 1.42854 1912.18 5.13085 1927.54 12.572V12.5759C1947.84 22.4085 1966.16 36.2117 1984.49 49.7917V324.413H-430.507V54.6375C-422.64 59.8625 -415.717 60.9589 -409.407 59.5437C-402.919 58.0885 -397.152 53.9936 -391.726 49.2078C-389.01 46.8122 -386.364 44.2292 -383.752 41.7029C-381.137 39.1729 -378.553 36.6987 -375.945 34.5007C-370.717 30.0962 -365.459 26.8649 -359.754 26.5027L-359.755 26.5017C-355.99 26.2641 -351.944 27.3391 -347.638 29.1248C-343.333 30.9102 -338.821 33.3828 -334.118 35.9041C-324.896 40.847 -314.943 45.9801 -304.714 46.1091L-304.227 46.1111C-294.702 46.0832 -287.034 41.0766 -280.041 36.157C-276.527 33.685 -273.194 31.2416 -269.844 29.3992C-266.709 27.6749 -263.599 26.5007 -260.372 26.3298L-259.725 26.3093C-249.442 26.199 -240.49 33.0327 -231.683 40.5066C-227.304 44.2226 -222.962 48.0925 -218.561 51.2517C-214.295 54.3141 -209.928 56.7431 -205.345 57.7361L-204.901 57.8279C-193.981 59.9667 -185.611 55.0403 -177.839 49.9226C-173.936 47.3518 -170.199 44.7431 -166.319 42.8748C-162.572 41.0707 -158.73 39.9775 -154.545 40.2957L-154.139 40.3308C-148.032 40.9251 -143.106 43.7771 -138.564 47.4656C-136.292 49.311 -134.125 51.3591 -131.954 53.4324C-129.787 55.5013 -127.614 57.5978 -125.351 59.5183C-120.824 63.3608 -115.885 66.542 -109.752 67.4646C-103.806 68.3592 -96.8093 67.1198 -88.061 62.4392L-87.2085 61.9753C-74.1202 54.7315 -61.638 44.4275 -48.7173 34.7644C-35.7736 25.0842 -22.3663 16.027 -7.34619 11.1658L-7.34717 11.1648L7.55908 6.40601C17.9059 3.10576 28.7059 1.42065 39.5591 1.42065C48.7717 1.42068 57.9339 2.63185 66.8296 5.01929L67.6899 5.25366C75.054 7.29921 82.0162 9.57038 89.8198 13.7693V13.7703C96.3203 17.2706 102.258 21.8122 108.079 26.4646C113.888 31.1082 119.593 35.8712 125.583 39.7615C131.579 43.6561 137.893 46.6981 144.95 47.8943C151.792 49.0541 159.301 48.4735 167.861 45.2976L168.693 44.9822C176.735 41.8643 180.965 36.0226 185.619 31.2957C187.957 28.9199 190.411 26.8084 193.527 25.365C196.443 24.0143 199.969 23.2364 204.564 23.4109L205.498 23.4578C217.687 24.2389 224.738 31.8522 231.574 39.9998C238.266 47.9764 244.777 56.5153 255.734 58.9871L256.259 59.1003C263.62 60.6121 269.364 60.1762 274.148 58.6658C278.925 57.1572 282.71 54.5871 286.16 51.8904C292.992 46.5484 298.43 40.8292 307.751 41.1072L308.199 41.1248C312.478 41.3381 316.53 43.102 320.575 45.6746C324.625 48.2504 328.618 51.6032 332.804 54.9646C341.006 61.5507 349.921 68.1533 361.059 68.3542L361.591 68.3591C366.863 68.3571 373.143 66.0191 379.858 62.4011C386.586 58.776 393.814 53.8309 400.997 48.5427C408.178 43.2556 415.339 37.6075 421.914 32.5857C428.499 27.5558 434.494 23.1567 439.378 20.3328L439.377 20.3318C445.933 16.5452 452.696 13.362 459.586 10.4685L460.966 9.89331C474.669 4.2196 489.373 1.42065 504.195 1.42065Z" fill="#FFFCED" stroke="black"/>
</svg>
